<svg xmlns="http://www.w3.org/2000/svg" viewBox="0 0 529.901 529.901">
  <path d="M524.484 51.108c-3.614-3.617-7.898-5.426-12.847-5.426H182.731c-4.952 0-9.234 1.809-12.85 5.426-3.617 3.616-5.426 7.898-5.426 12.847v91.36h-45.681c-4.952 0-10.472 1.241-16.562 3.715-6.091 2.474-10.944 5.52-14.562 9.135l-56.531 56.527c-3.615 3.617-6.661 8.475-9.135 14.562-2.474 6.095-3.711 11.613-3.711 16.562v118.771c-4.952 0-9.233 1.81-12.85 5.427C1.809 383.628 0 387.912 0 392.86c0 4.949 1.809 9.23 5.424 12.848 3.621 3.617 7.902 5.424 12.85 5.424h36.547c0 20.181 7.134 37.4 21.411 51.678 14.277 14.274 31.499 21.409 51.678 21.409 20.177 0 37.401-7.135 51.678-21.409 14.272-14.277 21.411-31.497 21.411-51.678h109.638c0 20.181 7.139 37.4 21.409 51.678 14.277 14.274 31.497 21.409 51.674 21.409 20.178 0 37.404-7.135 51.675-21.409 14.277-14.277 21.416-31.497 21.416-51.678h54.816c4.948 0 9.233-1.807 12.847-5.424 3.614-3.617 5.428-7.898 5.428-12.848V63.959c-.001-4.952-1.807-9.231-5.418-12.851zM153.748 436.973c-7.142 7.135-15.752 10.704-25.841 10.704-10.088 0-18.702-3.569-25.84-10.704-7.135-7.139-10.707-15.752-10.707-25.841 0-10.085 3.568-18.699 10.707-25.838 7.142-7.135 15.752-10.707 25.84-10.707 10.089 0 18.702 3.572 25.841 10.707 7.135 7.139 10.705 15.753 10.705 25.838-.001 10.089-3.567 18.702-10.705 25.841zm10.708-172.019H54.821v-8.564c.378-1.903 1.237-3.999 2.568-6.28l55.672-55.677c1.521-1.328 3.617-2.19 6.28-2.568h45.114v73.089zm245.105 172.019c-7.138 7.135-15.748 10.704-25.837 10.704s-18.699-3.569-25.837-10.704c-7.139-7.139-10.715-15.752-10.715-25.841 0-10.085 3.576-18.699 10.715-25.838 7.138-7.135 15.748-10.707 25.837-10.707s18.699 3.572 25.837 10.707c7.136 7.139 10.705 15.753 10.705 25.838-.004 10.089-3.567 18.702-10.705 25.841zm47.25-217.702c0 2.668-.855 4.858-2.563 6.567-1.718 1.715-3.907 2.568-6.57 2.568h-63.953v63.951c0 2.67-.855 4.856-2.563 6.571-1.718 1.711-3.901 2.563-6.57 2.563h-54.819c-2.666 0-4.856-.853-6.563-2.563-1.719-1.715-2.57-3.901-2.57-6.571v-63.951h-63.952c-2.667 0-4.854-.854-6.567-2.568-1.711-1.709-2.568-3.899-2.568-6.567v-54.817c0-2.666.854-4.853 2.568-6.565 1.713-1.711 3.9-2.57 6.567-2.57h63.952V91.365c0-2.663.852-4.853 2.57-6.567 1.707-1.709 3.897-2.565 6.563-2.565h54.819c2.669 0 4.853.856 6.57 2.565 1.708 1.715 2.563 3.905 2.563 6.567v63.953h63.953c2.663 0 4.853.859 6.57 2.57 1.708 1.713 2.563 3.899 2.563 6.565v54.818z"/>
</svg>
