<svg xmlns="http://www.w3.org/2000/svg" viewBox="0 0 475.078 475.077">
  <path d="M438.536 146.177H36.547c-4.952 0-9.235 1.807-12.85 5.424-3.617 3.615-5.424 7.898-5.424 12.847v274.084c0 4.948 1.807 9.233 5.424 12.847 3.615 3.617 7.898 5.428 12.85 5.428h401.989c4.949 0 9.229-1.811 12.847-5.428 3.614-3.613 5.421-7.898 5.421-12.847V164.448c0-4.952-1.8-9.231-5.421-12.847-3.614-3.617-7.898-5.424-12.847-5.424zm-151.609 85.936c-3.613 3.616-7.898 5.424-12.847 5.424h-73.089c-4.946 0-9.229-1.809-12.847-5.424-3.615-3.617-5.424-7.898-5.424-12.85 0-4.948 1.809-9.231 5.424-12.847 3.617-3.617 7.9-5.426 12.847-5.426h73.096c4.945 0 9.227 1.809 12.847 5.426 3.614 3.615 5.421 7.898 5.421 12.847 0 4.951-1.811 9.233-5.428 12.85zM469.658 23.695c-3.618-3.617-7.898-5.424-12.848-5.424H18.272c-4.948 0-9.231 1.807-12.847 5.424C1.809 27.31 0 31.593 0 36.542v73.089c0 4.948 1.809 9.229 5.426 12.847 3.616 3.617 7.898 5.424 12.847 5.424h438.531c4.948 0 9.233-1.807 12.854-5.424 3.613-3.617 5.42-7.898 5.42-12.847V36.542c0-4.952-1.807-9.232-5.42-12.847z"/>
</svg>
