<svg xmlns="http://www.w3.org/2000/svg" viewBox="0 0 511.626 511.627">
  <path d="M134.761 54.816h17.699v401.707h-17.699zM98.786 54.816h8.848v401.707h-8.848zM197.568 54.816h8.852v401.707h-8.852zM179.581 54.816h8.852v401.707h-8.852zM26.84 54.816h9.136v401.707H26.84zM53.959 54.816h8.851v401.707h-8.851zM0 54.816h17.987V456.81H0zM215.557 54.816h8.852v401.707h-8.852zM394.856 54.816h17.986v401.707h-17.986zM439.966 54.816h26.837v401.707h-26.837zM475.653 54.816h9.134v401.707h-9.134zM493.64 54.816h17.986V456.81H493.64zM332.045 54.816h17.987v401.707h-17.987zM368.019 54.816h17.987v401.707h-17.987zM296.072 54.816h17.986v401.707h-17.986zM251.243 54.816h17.989v401.707h-17.989z"/>
</svg>
