<svg xmlns="http://www.w3.org/2000/svg" viewBox="0 0 438.536 438.536">
  <path d="M417.698 376.865L274.08 150.467V36.545h18.274c4.948 0 9.236-1.812 12.847-5.428 3.621-3.614 5.428-7.898 5.428-12.847s-1.807-9.231-5.428-12.847C301.591 1.807 297.303 0 292.354 0H146.177c-4.952 0-9.234 1.807-12.85 5.424-3.617 3.615-5.424 7.898-5.424 12.847s1.807 9.233 5.424 12.847c3.619 3.616 7.902 5.428 12.85 5.428h18.271v113.918L20.838 376.862c-10.656 16.946-12.703 31.463-6.136 43.543 6.567 12.087 19.939 18.131 40.113 18.131h328.911c20.17 0 33.54-6.044 40.104-18.131 6.571-12.08 4.524-26.593-6.132-43.54zm-300.071-84.51l77.658-122.481 5.709-8.853V36.542h36.541V161.021l5.708 8.853 77.662 122.481H117.627z"/>
</svg>
