<svg xmlns="http://www.w3.org/2000/svg" viewBox="0 0 438.536 438.536">
  <path d="M414.41 24.123C398.333 8.042 378.963 0 356.315 0H82.228C59.58 0 40.21 8.042 24.126 24.123 8.045 40.207.003 59.576.003 82.225v274.084c0 22.647 8.042 42.018 24.123 58.102 16.084 16.084 35.454 24.126 58.102 24.126h274.084c22.648 0 42.018-8.042 58.095-24.126 16.084-16.084 24.126-35.454 24.126-58.102V82.225c-.001-22.649-8.043-42.021-24.123-58.102zm-86.79 276.939c-1.047 3.713-1.563 6.235-1.563 7.569-.955 3.426-2.149 10.185-3.576 20.273-1.424 10.088-3.573 18.219-6.42 24.413-2.857 6.181-7.522 11.081-13.99 14.695-34.074 18.842-74.809 23.887-122.2 15.133-29.884-5.141-49.298-15.414-58.243-30.834-2.854-10.663-6.757-30.646-11.706-59.956l1.427-3.43 3.427-1.711c30.833 20.178 65.666 30.266 104.494 30.266 38.833 0 73.568-10.088 104.203-30.266 2.861.76 4.524 2.331 5.003 4.709.479 2.383.192 5.429-.856 9.139zm35.543-190.289c-6.085 39.21-13.709 84.223-22.84 135.04-.767 3.997-2.621 7.803-5.571 11.424-2.946 3.613-5.896 6.372-8.843 8.274-2.957 1.91-6.714 4.093-11.286 6.563-34.447 17.33-76.321 23.319-125.621 17.994-34.068-3.806-61.096-13.326-81.082-28.551-2.474-2.091-4.566-4.754-6.279-7.994-1.715-3.231-2.856-5.801-3.427-7.704-.572-1.902-1.237-5.331-1.999-10.283-.76-4.948-1.235-7.898-1.426-8.847-1.146-6.849-3.427-19.889-6.854-39.113s-6.186-35.498-8.28-48.822a1032.57 1032.57 0 0 1-5.426-39.397c.761-5.71 3.567-10.847 8.422-15.417 4.853-4.568 9.327-7.806 13.417-9.71 4.095-1.903 9.757-4.281 16.989-7.137 17.893-6.473 39.403-10.85 64.525-13.131 51.579-5.138 97.925-1.714 139.04 10.277 21.319 6.285 36.069 14.659 44.255 25.127 3.237 4.184 3.997 11.319 2.286 21.407z"/>
  <path d="M241.683 173.581c-13.606-7.801-27.077-8.754-40.396-2.852-8.565 3.805-15.465 9.896-20.701 18.271-5.236 8.376-7.661 17.228-7.282 26.553.571 12.755 5.901 23.507 15.987 32.264 10.09 8.754 21.416 12.566 33.979 11.427 12.56-1.143 23.027-6.953 31.408-17.422 8.374-10.462 11.8-21.979 10.277-34.542-1.904-14.66-9.665-25.892-23.272-33.699zm-9.849 58.818c-7.99 5.14-15.704 5.517-23.127 1.136-8.186-3.422-12.323-10.13-12.419-20.121-.094-9.991 3.949-16.895 12.135-20.701 6.852-4.187 14.18-4.093 21.984.284 7.803 4.38 11.703 10.66 11.703 18.846 1.144 8.566-2.282 15.416-10.276 20.556zM302.926 86.654c-4.753-2.38-8.846-3.905-12.278-4.57-3.422-.662-8.275-1.475-14.558-2.425-39.975-6.473-78.802-6.375-116.487.288-5.708.95-10.181 1.756-13.418 2.425-3.237.669-7.044 2.144-11.421 4.426-4.375 2.281-7.802 5.234-10.276 8.848 3.997 3.806 9.185 6.899 15.559 9.279 6.374 2.378 11.372 3.903 14.987 4.568 3.617.664 9.613 1.567 17.989 2.71 32.168 3.809 62.999 3.809 92.5 0 8.378-.951 14.421-1.711 18.131-2.282 3.713-.572 8.761-2.091 15.133-4.569s11.464-5.713 15.27-9.71c-2.664-3.617-6.377-6.613-11.131-8.988z"/>
</svg>
