<svg xmlns="http://www.w3.org/2000/svg" viewBox="0 0 438.543 438.543">
  <path d="M394.005 235.541c-17.131-19.987-42.537-33.878-76.231-41.683 23.612-10.85 37.887-18.177 42.835-21.982 11.991-8.947 21.032-18.942 27.113-29.98 6.092-11.042 9.134-23.223 9.134-36.545 0-12.371-1.995-23.981-5.995-34.831-3.997-10.852-10.182-20.749-18.556-29.694-8.565-8.943-18.273-16.18-29.122-21.7-10.089-4.947-19.226-8.658-27.411-11.132-19.603-5.14-37.781-7.71-54.529-7.71h-21.128c-3.806 0-7.666-.048-11.567-.144-3.898-.09-5.944-.14-6.134-.14-.949 0-2.284.05-4.002.141-1.713.096-3.049.144-3.999.144l-12.85.287L93.074 4.283l-74.23 1.714 1.142 23.695c15.986 2.096 26.84 3.337 32.548 3.715 9.707.571 16.274 2.002 19.701 4.283 2.096 1.525 3.238 2.666 3.428 3.427 1.902 4.187 2.946 14.56 3.14 31.121.76 28.171 1.619 66.619 2.568 115.344l.571 141.896c0 24.359-.855 42.828-2.568 55.388-.761 4.569-2.762 9.422-5.997 14.562-8.756 3.614-20.461 6.567-35.117 8.85-4.375.568-10.848 1.711-19.412 3.43l-.571 26.836c45.489-1.526 71.374-2.57 77.663-3.142 40.729-2.478 69.093-3.521 85.08-3.142l56.242 1.137c22.087.76 40.929-.288 56.534-3.139 24.742-4.568 44.057-10.283 57.958-17.135 14.082-6.851 27.404-17.131 39.964-30.833 9.527-10.466 16.275-21.601 20.272-33.407 5.521-16.174 8.278-31.494 8.278-45.963.005-24.739-8.748-47.202-26.263-67.379zM170.456 33.126c14.846-2.474 27.218-3.711 37.115-3.711 32.546 0 56.82 7.139 72.805 21.413 16.169 14.272 24.263 32.071 24.263 53.387 0 30.266-8.467 51.583-25.406 63.954-16.939 12.37-42.065 18.558-75.373 18.558-12.562 0-22.935-.665-31.118-1.997-.193-6.473-.288-13.8-.288-21.986l.288-27.979c.188-29.88-.383-56.431-1.714-79.656-.382-6.28-.572-13.603-.572-21.983zm142.755 329.753c-7.043 13.702-18.657 24.458-34.83 32.265-16.181 7.806-36.74 11.703-61.671 11.703-12.182 0-25.506-3.038-39.971-9.13-2.284-5.517-3.427-9.712-3.431-12.566l-.854-77.088.288-49.392v-41.114c5.14-1.903 14.753-2.853 28.837-2.853 31.787 0 55.291 3.046 70.519 9.135 15.797 6.096 29.218 18.086 40.258 35.978 7.803 12.566 11.704 29.694 11.704 51.394-.004 21.122-3.622 38.346-10.849 51.668z"/>
</svg>
