<svg xmlns="http://www.w3.org/2000/svg" viewBox="0 0 511.63 511.63">
  <path d="M416.838 292.79c-13.521-4.657-25.797-6.899-36.836-6.704-11.033.191-22.224 2.095-33.545 5.708-11.327 3.614-20.793 7.611-28.4 11.991-7.621 4.381-14.988 9.373-22.124 14.986-7.139 5.615-11.851 9.517-14.134 11.707-2.285 2.189-4 3.949-5.14 5.283 9.514-25.889 16.464-52.82 20.837-80.8l4.856.855c3.237.572 7.659 1 13.274 1.287 5.616.287 12.043.38 19.273.287 7.225-.096 14.846-.999 22.844-2.713 7.994-1.713 16.036-3.997 24.126-6.854 8.097-2.851 15.845-7.183 23.264-12.989 7.426-5.804 14.045-12.609 19.849-20.413 5.804-7.805 10.561-17.749 14.271-29.836 3.724-12.082 5.77-25.55 6.14-40.397-12.937-4.377-25.551-6.661-37.829-6.851-12.278-.193-22.936 1.193-31.977 4.139s-17.74 7.183-26.125 12.703c-8.37 5.52-15.126 10.804-20.272 15.843a141.987 141.987 0 0 0-14.407 16.558c-4.473 5.996-7.375 10.085-8.706 12.275-1.335 2.19-2.283 3.949-2.857 5.28.195-4.948.287-11.753.287-20.413 0-8.658-.092-13.466-.287-14.416l1.998-4.283c1.53-2.855 3.146-6.854 4.859-11.991 1.711-5.14 3.521-11.038 5.425-17.699 1.902-6.663 3.138-13.944 3.709-21.844.575-7.898.623-16.035.144-24.41-.472-8.376-2.423-16.846-5.852-25.41-3.426-8.564-7.994-16.656-13.702-24.267-5.708-7.616-13.75-14.896-24.126-21.844C265.298 10.61 253.164 4.759 239.269 0c-9.707 12.944-16.368 26.125-19.984 39.543-3.617 13.417-4.76 25.504-3.427 36.258 1.332 10.756 4.471 21.46 9.419 32.121 4.949 10.66 10.085 19.51 15.416 26.552 5.33 7.043 11.375 13.846 18.127 20.414 6.759 6.567 11.427 10.8 13.99 12.703 2.569 1.906 4.609 3.425 6.139 4.568 0 13.894-1.143 32.454-3.433 55.673l-1.136-4.567c-.955-2.855-2.478-6.615-4.572-11.276s-4.709-9.991-7.851-15.986c-3.138-5.996-7.137-11.993-11.989-17.989-4.849-5.996-10.179-11.798-15.986-17.416-5.802-5.614-12.797-10.373-20.983-14.274-8.188-3.899-16.94-6.755-26.269-8.564-9.329-1.812-20.035-1.902-32.121-.287-12.087 1.619-24.79 5.092-38.112 10.422 1.141 13.323 3.855 25.458 8.136 36.401 4.283 10.944 9.469 19.938 15.559 26.98 6.088 7.04 13.23 13.225 21.413 18.555 8.186 5.33 16.178 9.373 23.982 12.135s16.225 4.952 25.266 6.567c9.042 1.619 16.796 2.57 23.269 2.856 6.473.287 13.084.337 19.842.144 6.755-.192 11.183-.426 13.278-.714 2.098-.287 3.809-.523 5.144-.715-4.955 30.45-12.474 58.149-22.561 83.08-4.759-8.381-10.138-16.181-16.134-23.418-5.996-7.228-14.416-14.555-25.266-21.978-10.854-7.426-22.701-12.799-35.548-16.132-12.85-3.326-28.787-4.045-47.823-2.143-19.036 1.91-39.399 7.334-61.097 16.283 6.283 15.796 13.372 29.69 21.271 41.685 7.9 11.984 15.938 21.509 24.125 28.552 8.186 7.043 16.943 12.655 26.269 16.847 9.323 4.186 18.177 6.896 26.551 8.135 8.375 1.235 17.035 1.472 25.981.712 8.947-.764 16.842-2.006 23.697-3.713a171.085 171.085 0 0 0 20.555-6.57c-19.417 35.785-43.35 63.812-71.806 84.078-28.455 20.273-59.148 30.506-92.075 30.697-3.617 0-6.663 1.188-9.136 3.572-2.474 2.379-3.711 5.373-3.711 8.99 0 3.614 1.237 6.656 3.711 9.134 2.473 2.471 5.519 3.713 9.136 3.713 39.587-.194 76.182-12.795 109.774-37.828 33.595-25.033 61.147-59.244 82.653-102.638l4.856 2.851c3.046 1.903 7.426 4.042 13.134 6.42 5.708 2.382 12.323 5 19.842 7.851 7.519 2.857 15.745 4.948 24.694 6.279 8.945 1.339 18.131 2.143 27.552 2.431 9.422.283 19.082-1.092 28.982-4.145 9.896-3.046 19.318-7.474 28.257-13.278 8.945-5.801 17.61-14.229 25.981-25.27 8.381-11.032 15.611-24.163 21.703-39.392-12.573-10.083-25.608-17.458-39.115-22.119z"/>
</svg>
