<svg xmlns="http://www.w3.org/2000/svg" viewBox="0 0 438.533 438.533">
  <path d="M409.133 109.203c-19.608-33.592-46.205-60.189-79.798-79.796C295.736 9.801 259.058 0 219.273 0c-39.781 0-76.47 9.801-110.063 29.407-33.595 19.604-60.192 46.201-79.8 79.796C9.801 142.8 0 179.489 0 219.267c0 39.78 9.804 76.463 29.407 110.062 19.607 33.592 46.204 60.189 79.799 79.798 33.597 19.605 70.283 29.407 110.063 29.407s76.47-9.802 110.065-29.407c33.593-19.602 60.189-46.206 79.795-79.798 19.603-33.596 29.403-70.284 29.403-110.062.001-39.782-9.8-76.472-29.399-110.064zm-21.699 181.01c-9.709 22.556-22.696 41.97-38.969 58.245-16.271 16.269-35.689 29.26-58.245 38.965-22.555 9.712-46.202 14.564-70.946 14.564s-48.391-4.853-70.948-14.564c-22.554-9.705-41.971-22.696-58.245-38.965-16.269-16.275-29.259-35.687-38.97-58.245-9.707-22.552-14.562-46.206-14.562-70.946 0-24.744 4.854-48.391 14.562-70.948 9.707-22.554 22.697-41.968 38.97-58.245 16.274-16.269 35.691-29.26 58.245-38.97 22.554-9.704 46.205-14.558 70.948-14.558 24.74 0 48.395 4.851 70.946 14.558 22.556 9.707 41.97 22.698 58.245 38.97 16.272 16.274 29.26 35.688 38.969 58.245 9.709 22.554 14.564 46.201 14.564 70.948.004 24.744-4.855 48.397-14.564 70.946z"/>
  <path d="M219.27 73.085c-40.349 0-74.803 14.279-103.353 42.829-28.549 28.549-42.825 63-42.825 103.353 0 40.355 14.275 74.803 42.825 103.354 28.549 28.547 63.003 42.824 103.353 42.824s74.81-14.273 103.351-42.824c28.551-28.552 42.825-63.002 42.825-103.354s-14.271-74.804-42.825-103.353C294.08 87.361 259.619 73.085 219.27 73.085zm77.514 223.698c-21.409 21.409-47.247 32.114-77.514 32.114s-56.104-10.705-77.515-32.114c-21.414-21.416-32.121-47.253-32.121-77.517 0-30.268 10.707-56.103 32.121-77.516 21.416-21.411 47.251-32.12 77.515-32.12 30.267 0 56.105 10.709 77.514 32.12 21.412 21.413 32.12 47.248 32.12 77.516 0 30.264-10.708 56.101-32.12 77.517z"/>
  <path d="M219.27 146.178c-20.177 0-37.401 7.139-51.678 21.411-14.272 14.277-21.411 31.501-21.411 51.678 0 20.175 7.135 37.402 21.411 51.673 14.277 14.277 31.504 21.416 51.678 21.416 20.179 0 37.406-7.139 51.676-21.416 14.274-14.271 21.413-31.498 21.413-51.673 0-20.177-7.139-37.401-21.413-51.678-14.27-14.273-31.497-21.411-51.676-21.411z"/>
</svg>
