<svg xmlns="http://www.w3.org/2000/svg" viewBox="0 0 511.626 511.627">
  <path d="M500.922 47.248c-7.136-7.133-15.749-10.706-25.838-10.706H36.547c-10.09 0-18.704 3.576-25.841 10.706C3.571 54.387 0 63 0 73.089v365.447c0 10.089 3.567 18.699 10.706 25.838 7.141 7.139 15.75 10.711 25.841 10.711h438.531c10.092 0 18.706-3.572 25.845-10.711 7.132-7.139 10.704-15.749 10.704-25.838V73.089c-.001-10.085-3.573-18.698-10.705-25.841zM73.089 54.814h109.636V91.36H73.089V54.814zm401.995 383.722H36.547v-36.545h438.538v36.545h-.001zm-328.907-163.88c0-30.263 10.71-56.103 32.121-77.516 21.416-21.411 47.251-32.117 77.515-32.117 30.266 0 56.104 10.707 77.516 32.117 21.412 21.413 32.117 47.253 32.117 77.516 0 30.266-10.705 56.103-32.117 77.515-21.412 21.413-47.25 32.121-77.516 32.121-30.264 0-56.099-10.708-77.515-32.121-21.414-21.412-32.121-47.249-32.121-77.515zm328.907-162.164v33.686H36.547v-36.542h183.869l18.271-36.543h236.397v39.399z"/>
  <path d="M307.488 326.334c14.277-14.277 21.416-31.501 21.416-51.678 0-20.174-7.139-37.401-21.416-51.675-14.273-14.275-31.497-21.414-51.675-21.414-20.177 0-37.4 7.139-51.678 21.414-14.272 14.274-21.411 31.501-21.411 51.675 0 20.177 7.135 37.4 21.411 51.678 14.277 14.274 31.504 21.412 51.678 21.412 20.178 0 37.401-7.138 51.675-21.412zm-71.092-71.664c-5.33 5.332-7.993 11.803-7.993 19.415 0 2.665-.855 4.855-2.57 6.566-1.713 1.715-3.899 2.566-6.567 2.566-2.666 0-4.853-.852-6.567-2.566-1.713-1.711-2.568-3.901-2.568-6.566 0-12.563 4.473-23.314 13.418-32.261 8.947-8.945 19.701-13.417 32.264-13.417 2.663 0 4.853.854 6.567 2.568 1.715 1.709 2.57 3.899 2.57 6.563 0 2.666-.855 4.856-2.574 6.571-1.714 1.713-3.904 2.568-6.566 2.568-7.614.001-14.084 2.664-19.414 7.993z"/>
</svg>
