<svg xmlns="http://www.w3.org/2000/svg" viewBox="0 0 511.63 511.631">
  <path d="M511.63 401.994v36.546c0 4.948-1.811 9.232-5.425 12.854-3.617 3.61-7.905 5.421-12.85 5.421H18.274c-4.947 0-9.23-1.811-12.851-5.421C1.809 447.772 0 443.488 0 438.54v-36.546c0-4.948 1.809-9.232 5.424-12.847 3.618-3.617 7.898-5.427 12.851-5.427h475.082c4.944 0 9.232 1.81 12.85 5.427 3.613 3.615 5.423 7.899 5.423 12.847zM127.91 274.088c-4.952 0-9.233 1.811-12.85 5.428-3.618 3.613-5.424 7.901-5.424 12.847v36.545c0 4.948 1.807 9.236 5.424 12.847 3.62 3.617 7.901 5.432 12.85 5.432h255.813c4.948 0 9.233-1.814 12.847-5.432 3.617-3.61 5.428-7.898 5.428-12.847v-36.545c0-4.945-1.811-9.233-5.428-12.847-3.613-3.617-7.898-5.428-12.847-5.428H127.91zm-73.089-36.54H456.81c4.949 0 9.233-1.812 12.848-5.429 3.613-3.612 5.42-7.898 5.42-12.845v-36.547c0-4.952-1.807-9.231-5.42-12.847-3.614-3.617-7.898-5.424-12.848-5.424H54.821c-4.952 0-9.235 1.807-12.85 5.424-3.617 3.615-5.424 7.898-5.424 12.847v36.547c0 4.947 1.807 9.233 5.424 12.845 3.619 3.617 7.898 5.429 12.85 5.429zm109.636-109.639h182.714c4.948 0 9.236-1.809 12.854-5.424 3.613-3.617 5.424-7.898 5.424-12.847V73.091c0-4.948-1.811-9.229-5.417-12.85-3.62-3.612-7.905-5.424-12.854-5.424H164.457c-4.952 0-9.235 1.812-12.85 5.424-3.617 3.617-5.426 7.902-5.426 12.85v36.547c0 4.948 1.809 9.229 5.426 12.847 3.619 3.615 7.901 5.424 12.85 5.424z"/>
</svg>
