<svg xmlns="http://www.w3.org/2000/svg" viewBox="0 0 438.821 438.82">
  <path d="M432.39 257.938l-39.393-38.546 39.393-38.544c5.715-5.33 7.617-11.991 5.715-19.985-2.283-7.804-7.231-12.657-14.849-14.56l-53.674-13.706 15.133-53.104c2.279-7.801.479-14.467-5.427-19.985-5.517-5.902-12.18-7.71-19.986-5.426l-53.098 15.133-13.709-53.675c-1.903-7.806-6.749-12.658-14.551-14.561-7.81-2.096-14.47-.284-19.986 5.424L219.411 46.09 180.868 6.404c-5.52-5.9-12.181-7.708-19.985-5.424-7.804 1.903-12.657 6.755-14.56 14.561l-13.706 53.675-53.103-15.133c-7.804-2.285-14.465-.476-19.985 5.426-5.901 5.518-7.71 12.179-5.424 19.985l15.131 53.104-53.675 13.706c-7.613 1.903-12.563 6.755-14.845 14.56-1.906 7.994 0 14.655 5.709 19.985l39.398 38.544-39.398 38.545c-5.709 5.328-7.612 11.991-5.709 19.981 2.282 7.806 7.232 12.658 14.845 14.562l53.675 13.702-15.131 53.105c-2.286 7.803-.477 14.462 5.424 19.985 5.52 5.899 12.181 7.703 19.985 5.421l53.104-15.126 13.706 53.673c1.903 7.803 6.755 12.751 14.56 14.842 7.994 1.902 14.656 0 19.985-5.708l38.544-39.399 38.547 39.402c3.806 4.183 8.658 6.276 14.555 6.276 1.338 0 3.142-.191 5.432-.567 7.802-2.286 12.651-7.234 14.554-14.846l13.702-53.67 53.102 15.13c7.807 2.278 14.47.472 19.986-5.428 5.902-5.523 7.71-12.183 5.427-19.985l-15.129-53.105 53.67-13.699c7.621-1.902 12.565-6.759 14.849-14.561 1.903-7.993 0-14.656-5.718-19.985z"/>
</svg>
