<svg xmlns="http://www.w3.org/2000/svg" viewBox="0 0 438.536 438.536">
  <path d="M414.41 24.123C398.333 8.042 378.963 0 356.315 0H82.228C59.58 0 40.21 8.042 24.126 24.123 8.045 40.207.003 59.576.003 82.225v274.084c0 22.647 8.042 42.018 24.123 58.102 16.084 16.084 35.454 24.126 58.102 24.126h274.084c22.648 0 42.018-8.042 58.095-24.126 16.084-16.084 24.126-35.454 24.126-58.102V82.225c-.001-22.649-8.043-42.021-24.123-58.102zm-43.53 134.901l-175.307 175.3c-3.615 3.614-7.898 5.428-12.85 5.428-4.95 0-9.233-1.807-12.85-5.421L67.663 232.118c-3.616-3.62-5.424-7.898-5.424-12.848 0-4.949 1.809-9.233 5.424-12.847l29.124-29.124c3.617-3.616 7.895-5.424 12.847-5.424s9.235 1.809 12.851 5.424l60.242 60.24 133.334-133.333c3.606-3.617 7.898-5.424 12.847-5.424 4.945 0 9.227 1.807 12.847 5.424l29.126 29.125c3.61 3.615 5.421 7.898 5.421 12.847s-1.812 9.233-5.422 12.846z"/>
</svg>
