<svg xmlns="http://www.w3.org/2000/svg" viewBox="0 0 438.533 438.533">
  <path d="M409.133 109.203c-19.608-33.592-46.205-60.189-79.798-79.796C295.736 9.801 259.058 0 219.273 0c-39.781 0-76.47 9.801-110.063 29.407-33.595 19.604-60.192 46.201-79.8 79.796C9.801 142.8 0 179.489 0 219.267c0 39.78 9.804 76.463 29.407 110.062 19.607 33.592 46.204 60.189 79.799 79.798 33.597 19.605 70.283 29.407 110.063 29.407s76.47-9.802 110.065-29.407c33.593-19.602 60.189-46.206 79.795-79.798 19.603-33.596 29.403-70.284 29.403-110.062.001-39.782-9.8-76.472-29.399-110.064zm-55.391 188.005c-13.894 23.791-32.736 42.64-56.527 56.534-23.791 13.894-49.771 20.834-77.945 20.834-28.167 0-54.149-6.94-77.943-20.834-23.791-13.895-42.633-32.743-56.527-56.534-13.897-23.791-20.843-49.772-20.843-77.941 0-28.171 6.949-54.152 20.843-77.943 13.891-23.791 32.738-42.637 56.527-56.53 23.791-13.895 49.772-20.84 77.943-20.84 28.173 0 54.154 6.945 77.945 20.84 23.791 13.894 42.634 32.739 56.527 56.53 13.895 23.791 20.838 49.772 20.838 77.943 0 28.169-6.943 54.15-20.838 77.941z"/>
  <path d="M305.206 140.752c-3.61-3.616-7.898-5.424-12.847-5.424s-9.227 1.809-12.848 5.424l-78.513 78.515-41.971-41.971c-3.617-3.616-7.895-5.424-12.847-5.424s-9.234 1.809-12.85 5.424l-29.12 29.124c-3.617 3.613-5.424 7.898-5.424 12.847 0 4.946 1.807 9.231 5.424 12.845l83.938 83.939c3.616 3.613 7.898 5.427 12.847 5.427 4.952 0 9.233-1.813 12.851-5.427l120.486-120.484c3.613-3.612 5.428-7.895 5.428-12.842 0-4.948-1.808-9.231-5.428-12.847l-29.126-29.126z"/>
</svg>
