<svg xmlns="http://www.w3.org/2000/svg" viewBox="0 0 438.536 438.536">
  <path d="M414.41 24.123C398.333 8.042 378.963 0 356.315 0H82.228C59.58 0 40.21 8.042 24.126 24.123 8.045 40.207.003 59.576.003 82.225v274.084c0 22.647 8.042 42.018 24.123 58.102 16.084 16.084 35.454 24.126 58.102 24.126h274.084c22.648 0 42.018-8.042 58.095-24.126 16.084-16.084 24.126-35.454 24.126-58.102V82.225c-.001-22.649-8.043-42.021-24.123-58.102zm-48.961 332.186c0 2.471-.903 4.613-2.714 6.42s-3.949 2.711-6.42 2.711H82.228c-2.474 0-4.615-.904-6.423-2.711s-2.712-3.949-2.712-6.42V82.221c0-2.474.903-4.615 2.712-6.423 1.809-1.805 3.949-2.712 6.423-2.712h274.084c2.478 0 4.62.903 6.427 2.712 1.808 1.809 2.704 3.949 2.704 6.423v274.088h.006z"/>
  <path d="M310.636 146.174H127.914c-7.616 0-13.041 3.335-16.274 9.995-3.427 6.661-2.952 12.94 1.425 18.842l91.365 127.905c3.612 5.141 8.563 7.707 14.843 7.707 6.285 0 11.234-2.566 14.84-7.707l91.365-127.905c4.38-5.902 4.853-12.181 1.423-18.842-3.23-6.66-8.658-9.991-16.265-9.995z"/>
</svg>
