<svg xmlns="http://www.w3.org/2000/svg" viewBox="0 0 511.626 511.626">
  <path d="M234.693 270.09c8.754-20.745 16.175-37.019 22.266-48.82 4.568-8.754 8.854-16.13 12.851-22.126 3.993-5.996 8.85-11.849 14.558-17.558 5.715-5.711 12.278-9.998 19.705-12.85 7.419-2.855 15.697-4.283 24.838-4.283h73.084v54.818c0 2.474.903 4.617 2.71 6.423 1.807 1.809 3.949 2.712 6.42 2.712 2.669 0 4.859-.854 6.563-2.568l91.365-91.359c1.718-1.715 2.573-3.901 2.573-6.567 0-2.666-.855-4.853-2.573-6.574L417.976 30.26c-2.279-1.902-4.572-2.849-6.852-2.849-2.669 0-4.853.855-6.57 2.57-1.704 1.713-2.56 3.9-2.56 6.565V91.36H328.91c-12.946 0-25.126 1.574-36.549 4.714-11.423 3.14-21.56 7.135-30.409 11.991-8.852 4.854-17.416 11.372-25.697 19.558-8.28 8.182-15.324 16.084-21.126 23.697-5.804 7.611-11.897 17.127-18.272 28.549-6.374 11.42-11.514 21.414-15.416 29.978-3.903 8.566-8.613 19.13-14.132 31.693-8.757 20.746-16.18 37.022-22.27 48.822-4.567 8.754-8.853 16.132-12.847 22.127-3.996 5.996-8.853 11.848-14.562 17.557-5.711 5.715-12.278 9.999-19.701 12.854-7.421 2.854-15.703 4.284-24.838 4.284H9.139c-2.666 0-4.856.849-6.567 2.566-1.709 1.711-2.568 3.895-2.568 6.563v54.823c0 2.663.862 4.853 2.575 6.57 1.714 1.712 3.905 2.567 6.567 2.567H73.1c12.946 0 25.125-1.574 36.547-4.716 11.42-3.142 21.558-7.139 30.406-11.991 8.853-4.856 17.417-11.376 25.697-19.562 8.278-8.179 15.324-16.084 21.128-23.694 5.802-7.615 11.894-17.129 18.271-28.548 6.374-11.424 11.516-21.416 15.416-29.979 3.899-8.566 8.608-19.127 14.128-31.693z"/>
  <path d="M9.135 164.45h63.954c8.375 0 16.13 1.381 23.269 4.143s13.134 6.091 17.987 9.995c4.854 3.904 9.707 9.279 14.561 16.13 4.853 6.855 8.708 12.9 11.563 18.131 2.853 5.236 6.374 12.137 10.562 20.701 14.659-34.451 27.694-60.432 39.115-77.943-30.454-42.825-69.473-64.241-117.058-64.241H9.135c-2.666 0-4.856.855-6.567 2.57C.859 95.647 0 97.834 0 100.5v54.818c0 2.667.855 4.851 2.568 6.563 1.715 1.715 3.905 2.569 6.567 2.569zM417.983 286.085c-2.286-1.902-4.572-2.847-6.858-2.847-2.662 0-4.853.852-6.563 2.566-1.711 1.711-2.566 3.901-2.566 6.563v54.823h-73.091c-8.378 0-16.132-1.383-23.271-4.147-7.139-2.759-13.135-6.088-17.987-9.993-4.849-3.901-9.705-9.28-14.558-16.135-4.856-6.852-8.713-12.898-11.567-18.135-2.852-5.226-6.373-12.135-10.561-20.693-14.655 34.259-27.596 60.24-38.828 77.943 5.137 7.422 10.467 14.037 15.987 19.838 5.518 5.804 10.754 10.896 15.702 15.276 4.949 4.374 10.564 8.186 16.844 11.416 6.283 3.237 11.8 5.948 16.563 8.139 4.771 2.189 10.76 3.949 17.99 5.283 7.231 1.328 13.322 2.334 18.271 2.991 4.948.664 11.707 1.143 20.272 1.431 8.562.287 15.51.376 20.834.287 5.335-.096 13.045-.198 23.134-.287 10.089-.093 18.179-.144 24.271-.144v54.819c0 2.474.903 4.616 2.71 6.423 1.807 1.808 3.949 2.711 6.42 2.711 2.669 0 4.859-.855 6.563-2.566l91.365-91.358c1.711-1.718 2.566-3.901 2.566-6.57 0-2.666-.855-4.853-2.573-6.563l-91.069-91.071z"/>
</svg>
