<svg xmlns="http://www.w3.org/2000/svg" viewBox="0 0 511.763 511.763">
  <path d="M504.542 369.513L359.788 255.885l144.751-113.648c5.328-3.802 7.706-9.128 7.139-15.986-.955-6.658-4.292-11.514-10-14.56L465.133 93.42c-2.475-1.333-5.232-1.999-8.278-1.999-3.23 0-6.184.761-8.847 2.281L251.01 204.196l-31.405-18.842c-1.524-.76-2.666-1.234-3.427-1.427 2.667-9.323 3.617-18.558 2.856-27.693-1.332-14.656-6.661-28.743-15.987-42.255-9.324-13.512-21.886-25.22-37.685-35.117-25.125-15.99-51.485-23.982-79.084-23.982-26.075 0-47.204 7.521-63.382 22.557-8.183 7.421-14.228 16.269-18.129 26.551C.864 114.267-.608 125.023.342 136.249c1.331 14.465 6.661 28.459 15.986 41.971 9.324 13.516 21.792 25.319 37.401 35.404 25.122 15.99 51.581 23.984 79.369 23.984 15.798 0 30.168-2.948 43.11-8.85a24.58 24.58 0 0 0 6.28 6.283l34.833 20.841-34.833 20.835a24.788 24.788 0 0 0-6.28 6.283c-12.942-5.899-27.312-8.85-43.11-8.85-27.788 0-54.247 8.001-79.369 23.986-15.608 10.088-28.072 21.895-37.401 35.409-9.325 13.514-14.655 27.5-15.986 41.969-2.093 23.415 5.427 43.112 22.557 59.101 16.368 14.846 37.495 22.269 63.382 22.269 27.6 0 53.959-7.998 79.084-23.986 15.795-10.089 28.361-21.833 37.685-35.262 9.326-13.422 14.655-27.452 15.987-42.113.761-9.13-.188-18.37-2.856-27.692.762-.191 1.903-.663 3.427-1.423l31.405-18.85 196.999 110.488c2.662 1.526 5.615 2.285 8.85 2.285 3.046 0 5.801-.663 8.274-1.998l36.549-18.274c5.708-3.046 9.041-7.898 9.996-14.558.568-6.852-1.811-12.173-7.139-15.988zm-339.18-187.864c-7.423 6.854-18.177 10.282-32.264 10.282-19.036 0-37.307-5.618-54.818-16.846-15.416-9.707-25.504-20.843-30.262-33.406-4.759-12.559-2.762-22.841 5.996-30.835 7.426-6.849 18.18-10.278 32.264-10.278 19.036 0 37.307 5.619 54.818 16.846 15.415 9.707 25.503 20.841 30.262 33.404 4.758 12.562 2.761 22.841-5.996 30.833zm5.995 179.301c-4.759 12.56-14.847 23.695-30.262 33.407-17.511 11.225-35.782 16.84-54.818 16.844-14.084 0-24.838-3.429-32.264-10.28-8.757-7.994-10.754-18.274-5.996-30.841 4.758-12.559 14.847-23.688 30.262-33.4 17.511-11.225 35.782-16.844 54.818-16.844 14.084 0 24.838 3.43 32.264 10.28 8.758 7.994 10.755 18.275 5.996 30.834zm20.557-141.612l2.565-2.562c.193-.188.476-.428.859-.71.382-.288.763-.621 1.142-1 .953-.765 2.096-1.906 3.427-3.431 1.333-1.521 2.286-2.568 2.856-3.14l7.422-7.422 22.557 13.418-3.999 2.281c-6.28 3.805-9.419 9.135-9.419 15.986v3.14l-27.41-16.56zm63.953 63.953l-45.686 27.404-7.423-7.422c-.76-.76-1.807-1.903-3.14-3.43-1.331-1.526-2.378-2.669-3.14-3.429-.95-.763-1.615-1.335-1.997-1.711l-2.568-2.279 45.683-27.408v-32.264L456.861 109.7l36.542 18.274-210.135 164.45-27.401-9.133zm200.997 118.773L290.698 308.7c2.102-.759 3.34-1.423 3.717-1.998l50.538-39.396 148.46 116.483-36.549 18.275z"/>
  <path d="M274.139 237.61c-4.948 0-9.229 1.811-12.847 5.428-3.616 3.614-5.425 7.898-5.425 12.847 0 4.946 1.809 9.231 5.425 12.845 3.617 3.621 7.898 5.428 12.847 5.428s9.229-1.807 12.85-5.428c3.614-3.613 5.421-7.898 5.421-12.845 0-4.948-1.807-9.233-5.421-12.847-3.621-3.617-7.902-5.428-12.85-5.428z"/>
</svg>
