<svg xmlns="http://www.w3.org/2000/svg" viewBox="0 0 511.62 511.62">
  <path d="M509.053 240.106c-1.718-1.709-3.901-2.565-6.57-2.565h-51.106l9.712-36.547h41.395c2.669 0 4.853-.859 6.57-2.568 1.708-1.715 2.563-3.901 2.563-6.567v-18.271c0-2.668-.855-4.858-2.563-6.567-1.718-1.714-3.901-2.568-6.57-2.568h-31.689l25.981-98.216c.951-2.853.479-5.515-1.431-7.993-1.903-2.286-4.374-3.427-7.42-3.427h-39.111c-4.948 0-7.902 2.284-8.85 6.854l-26.553 102.781H309.199L281.226 61.671c-1.328-4.57-4.284-6.854-8.843-6.854h-35.984c-4.57 0-7.52 2.284-8.852 6.854l-27.695 102.781H97.357L71.66 61.671c-.95-4.57-3.901-6.854-8.85-6.854H23.697c-3.046 0-5.52 1.146-7.423 3.427-1.903 2.478-2.38 5.14-1.427 7.993l25.409 98.216H9.135c-2.666 0-4.853.854-6.567 2.568C.859 168.73 0 170.92 0 173.588v18.271c0 2.668.855 4.853 2.568 6.567 1.714 1.709 3.905 2.568 6.567 2.568h40.546l9.419 36.547H9.135c-2.666 0-4.853.855-6.567 2.565C.859 241.819 0 244.009 0 246.673v18.271c0 2.669.855 4.859 2.568 6.57 1.714 1.711 3.905 2.56 6.567 2.56h59.388l45.681 175.875c.38 1.906 1.377 3.521 2.996 4.856 1.621 1.334 3.474 1.995 5.57 1.995h45.396c4.567 0 7.517-2.283 8.85-6.852l47.68-175.868h59.672l47.39 175.872c1.335 4.571 4.285 6.851 8.851 6.851H386c4.568 0 7.518-2.279 8.85-6.851l46.821-175.872h60.812c2.669 0 4.853-.855 6.57-2.563 1.711-1.714 2.566-3.904 2.566-6.57v-18.271c.007-2.667-.848-4.857-2.566-6.57zM146.749 359.45c0 .185-.046.521-.14.992-.094.479-.144.808-.144 1-.191-.192-.288-.479-.288-.855 0-.377-.097-.664-.287-.856l-21.411-85.649h45.395l-23.125 85.368zm33.12-121.912h-64.237l-9.136-36.547h83.368l-9.995 36.547zm54.818 0l9.707-36.547h19.982l9.996 36.547h-39.685zM362.878 359.73c0 .192-.047.479-.144.856-.096.376-.144.663-.144.855-.191-.192-.332-.521-.424-1-.09-.472-.145-.808-.145-.992l-23.127-85.369h46.248l-22.264 85.65zm31.69-122.192h-65.664l-9.709-36.547h84.798l-9.425 36.547z"/>
</svg>
