<svg xmlns="http://www.w3.org/2000/svg" viewBox="0 0 548.157 548.157">
  <path d="M545.027 112.765c-3.046-6.471-7.57-11.657-13.565-15.555-5.996-3.9-12.614-5.852-19.846-5.852H292.351c-11.04 0-20.175 4.184-27.408 12.56L9.13 396.279c-4.758 5.328-7.661 11.56-8.708 18.698-1.049 7.139-.144 13.941 2.712 20.417 3.044 6.468 7.564 11.652 13.561 15.553 5.997 3.898 12.612 5.853 19.845 5.853h219.268c11.042 0 20.177-4.179 27.41-12.56l255.813-292.363c4.75-5.33 7.655-11.561 8.699-18.699 1.058-7.139.147-13.94-2.703-20.413zM255.811 420.254H36.54l95.93-109.632h219.27l-95.929 109.632z"/>
</svg>
