<svg xmlns="http://www.w3.org/2000/svg" viewBox="0 0 438.533 438.533">
  <path d="M409.133 109.203c-19.608-33.592-46.205-60.189-79.798-79.796C295.736 9.801 259.058 0 219.273 0c-39.781 0-76.466 9.801-110.063 29.407-33.595 19.604-60.192 46.201-79.8 79.796C9.801 142.8 0 179.489 0 219.267s9.804 76.463 29.407 110.062c19.607 33.585 46.204 60.189 79.799 79.798 33.597 19.605 70.283 29.407 110.063 29.407s76.47-9.802 110.065-29.407c33.593-19.602 60.189-46.206 79.795-79.798 19.603-33.599 29.403-70.287 29.403-110.062.001-39.778-9.8-76.472-29.399-110.064zm-162.436 225.43c-1.913-2.279-2.574-4.186-1.999-5.715-.191.954-.858 1.81-1.998 2.569-.951-1.14-2.67-2.569-5.141-4.28-2.478-1.719-4.188-3.143-5.14-4.292-.384-.568-.903-1.376-1.571-2.423a266.906 266.906 0 0 1-2.569-4.141c-1.041-1.711-1.801-3.189-2.279-4.429-.473-1.238-.517-1.95-.144-2.135-3.614 1.526-8.85.479-15.701-3.142-1.331-.76-3.333-2.759-5.996-5.996s-5.424-4.661-8.28-4.284c-.95.191-2.236.523-3.855.999-1.615.479-2.996.712-4.139.712-1.143 0-2.666-.376-4.57-1.144-1.52-.567-3.566-1.666-6.136-3.281-2.568-1.615-4.331-2.621-5.28-2.994a2161.716 2161.716 0 0 0-3.711-1.999l-4.568-2.279c-1.143-.567-2.334-1.472-3.571-2.71-1.237-1.239-2.043-2.525-2.424-3.857-.38-1.139-.856-3.425-1.427-6.854-.571-3.43-1.334-5.9-2.284-7.42-1.14-1.902-2.758-3.806-4.854-5.708-2.091-1.902-3.994-2.861-5.708-2.861 1.524 0 1.524-1.276 0-3.853-1.524-2.574-2.856-4.429-3.999-5.564-.381-.384-1.524-1.619-3.427-3.717a357.525 357.525 0 0 1-4.853-5.428c-1.331-1.522-2.478-3.281-3.427-5.283-.95-1.999-1.143-3.662-.571-4.997.189-.188 0-.476-.572-.855a14.795 14.795 0 0 0-2.141-1.143 49.084 49.084 0 0 0-2.424-.999c-.765-.281-1.336-.425-1.715-.425.383.767.81 2.143 1.287 4.141.476 2.002.999 3.478 1.569 4.429.383.76 1.999 3.524 4.854 8.274 4.952 7.994 7.232 13.901 6.854 17.706-1.143.377-1.906.191-2.286-.568-.381-.759-.669-1.807-.857-3.141-.19-1.328-.378-2.279-.572-2.854-.571-1.143-2.046-2.382-4.427-3.717-2.378-1.327-3.855-2.662-4.425-3.997.192 0 .426-.089.714-.287.287-.191.527-.28.715-.28.193-1.712-.806-3.901-2.996-6.571-2.19-2.662-3.09-4.564-2.712-5.708-1.524-1.143-2.856-3.381-3.999-6.707-1.142-3.333-2.095-5.476-2.856-6.429a12.213 12.213 0 0 0-2.853-2.996c-1.143-.854-2.568-1.805-4.283-2.853-1.713-1.047-2.856-1.759-3.427-2.141-.382-.187-1.141-1.04-2.284-2.564-6.28-7.616-8.183-11.709-5.708-12.279-2.474.57-4.521-1.284-6.139-5.57-1.619-4.281-2.141-7.568-1.571-9.851l-.57-.284c.192-.763.286-2.996.286-6.711 0-3.713.24-7.092.715-10.136.478-3.045 1.381-4.57 2.712-4.57-1.331.19-2.329-1.002-2.996-3.567-.666-2.572-.713-4.334-.144-5.284.19-.572 1.049-.187 2.57 1.143 1.52 1.328 2.378 2.19 2.568 2.568 2.475-1.336 3.428-3.046 2.856-5.142-.381-.76-2.38-2.758-5.996-5.996-8.186-5.327-12.375-7.898-12.562-7.71 1.138-2.091.854-3.899-.859-5.424-1.902 1.143-2.996 1.427-3.283.859-.284-.572-.522-1.615-.715-3.14-.188-1.521-.666-2.377-1.425-2.568-.953-.19-2.096-.95-3.427-2.283 16.939-27.028 39.303-48.155 67.093-63.385 1.141-.188 3.234-.284 6.279-.284 1.521.19 2.95.667 4.281 1.427 1.333.76 2.714 1.809 4.139 3.14 1.43 1.328 2.524 2.281 3.284 2.853.381-1.143-.094-2.856-1.426-5.14.378-1.143 2.473-2.286 6.28-3.427 4.375-.571 7.233-.478 8.564.287-1.14-1.714-3.042-4.094-5.708-7.138l-1.427 1.425c-1.524-1.331-5.518-.666-11.991 1.999-.378.188-1.331.715-2.855 1.569-1.521.855-2.762 1.475-3.711 1.855a7.034 7.034 0 0 1-3.427.286c9.135-4.947 18.083-8.855 26.84-11.707.566.378 1.52 1.188 2.853 2.424 1.331 1.237 2.378 2.143 3.14 2.712-.571-.378-.953-.192-1.143.571-.76 2.283-.76 4.186 0 5.708.95 1.336 2.236 2.093 3.855 2.286 1.619.188 3.568.094 5.852-.288 2.284-.378 3.809-.571 4.57-.571l2.856.288c6.089.571 8.47 0 7.138-1.715.57.765 1.236 2.334 1.997 4.714.76 2.38 1.619 4.046 2.568 4.998.953-.765 1.143-2.096.571-3.999-.571-1.903-.571-3.239 0-3.999.188-.378.76-.763 1.713-1.143a334.07 334.07 0 0 1 3.284-1.282c1.237-.478 2.046-.81 2.43-.999 1.141-.763.378-2.096-2.286-3.999-.381-.191-1.188-.476-2.424-.857a41.025 41.025 0 0 1-3.284-1.14c-.95-.378-1.949-.903-2.996-1.569-1.047-.667-1.524-1.427-1.431-2.286.096-.859.622-1.951 1.571-3.284 1.143-.949 3-1.331 5.568-1.141 2.568.188 4.521.663 5.852 1.425 5.142 2.856 5.901 5.43 2.286 7.71 1.906.188 4.19.95 6.854 2.281 2.662 1.334 3.709 2.762 3.14 4.286 1.523-2.855 3.044-4.286 4.569-4.286.95.193 1.858 1.479 2.712 3.858.855 2.378 1.377 3.662 1.566 3.855 1.526 2.091 3.039 2.568 4.572 1.425 1.52-1.141 3.094-2.806 4.709-4.996 1.615-2.187 2.519-3.186 2.711-2.996-1.903-.758-2.102-1.521-.568-2.283 2.847-1.713 5.421-2.19 7.707-1.425.567.378 1.334 1.237 2.278 2.565 1.708 3.431 1.424 5.046-.855 4.856 1.711 1.524 2.42 3.429 2.143 5.71-.287 2.284-1.77 3.332-4.432 3.14-.948 0-2.334-.478-4.145-1.427-1.807-.95-3.186-1.472-4.141-1.569-.951-.099-2.286.426-3.997 1.569-.76.953-1.759 2.572-2.998 4.854-1.238 2.288-2.334 3.903-3.285 4.853-2.853 2.855-7.616 3.904-14.277 3.14.572 0 .522.571-.144 1.714-.669 1.141-1.569 2.428-2.712 3.854-1.143 1.427-1.809 2.236-1.997 2.426a14.566 14.566 0 0 0-3.427 6.567c0 .381-.096 1.667-.288 3.853-.193 2.19-.571 3.858-1.143 4.998 2.284-.571 4.093.575 5.424 3.427 1.143 2.666 1.143 4.093 0 4.285 6.283-.948 11.803-.57 16.565 1.143 6.851 2.474 10.759 4.948 11.71 7.423 1.137-1.715 3.895-1.812 8.275-.288 1.714.95 3.23 3.809 4.571 8.564.76 2.853 2.047 5.33 3.854 7.422 1.811 2.093 3.758 2.663 5.855 1.713l.853-.571a26.762 26.762 0 0 0 1.854-.998c.479-.284.999-.666 1.567-1.143.575-.476.91-.904.999-1.282.089-.38-.048-.765-.424-1.143-1.335-1.143-2.334-2.712-2.998-4.708-.66-1.999-.517-3.761.432-5.286.567-.76 2.091-1.903 4.564-3.427 2.478-1.525 4.001-3.046 4.568-4.569.771-2.474-.188-4.521-2.851-6.141-2.665-1.615-4-3.09-4-4.425 0-.953.619-2.093 1.854-3.427 1.242-1.331 1.766-2.572 1.571-3.711 0-.575-.336-1.762-1-3.571-.66-1.812-1.047-3.143-1.14-3.999-.096-.857.336-1.856 1.283-2.996 1.328-.763 4.47-.715 9.418.14 4.949.859 8.187 1.763 9.713 2.712.574.378 1.81.95 3.713 1.714 1.902.756 3.569 1.565 5 2.425 1.42.855 2.23 1.661 2.419 2.424h-1.424c1.331 1.146 2.143 2.474 2.423 3.999.288 1.528-.424 2.667-2.135 3.431 1.136-.193 2.665.094 4.568.855 3.046 1.141 3.142 2.19.287 3.14.568-.193 1.376-.38 2.42-.572 1.047-.19 1.852-.477 2.426-.855.377-.192.855-.522 1.424-1 .575-.476.999-.763 1.287-.854a9.116 9.116 0 0 1 1.286-.288c.568-.094 1.137.05 1.704.428.199 0 .623-.477 1.287-1.427a55.602 55.602 0 0 1 2.139-2.852c.764-.95 1.424-1.425 1.999-1.425.564 0 1.092.234 1.563.71.482.478.855.999 1.144 1.571.287.572.567 1.191.855 1.853.287.666.52 1.193.712 1.571.376.95 1.286 1.953 2.71 2.996 1.424 1.044 2.327 2.046 2.71 2.996.192.572.565 2 1.14 4.287.568 2.284 1.335 3.853 2.283 4.708.951.859 2.378 1.571 4.28 2.141.381.193 1.243.096 2.57-.282 1.328-.383 2.427-.478 3.282-.288.862.188 1.286.948 1.286 2.284 1.14-1.143 1.708-1.906 1.708-2.284.195 2.475.808 4.475 1.862 5.996 1.047 1.52 2.71 2.19 4.996 1.997l-.575 6.283c-.568.95-1.995 1.662-4.284 2.137-2.286.478-3.71.909-4.285 1.287-.568.19-1.95 1.332-4.141 3.428-2.19 2.096-3.087 3.333-2.71 3.711-3.23-3.617-8.091-4.664-14.559-3.14-7.23 1.142-12.183 2.284-14.845 3.427-3.043 1.525-5.141 2.95-6.283 4.281-.191.19-.517.859-.996 1.999a51.971 51.971 0 0 1-1.424 3.14c-.482.95-.903 1.426-1.283 1.426 1.146-.185 2.427-1.094 3.854-2.709 1.431-1.619 2.334-2.519 2.711-2.712 4.944-3.234 9.037-4.377 12.292-3.403 4.186 1.143 4.853 2.667 1.995 4.57-.373.378-1.379.521-2.994.428-1.615-.094-2.711-.05-3.285.144 1.718.378 3.141.903 4.291 1.565 1.136.666 1.424 1.571.852 2.712 3.043 1.714 3.617 3.617 1.715 5.713-2.478 2.478-5.421 3.521-8.85 3.14.575 0 .575.382 0 1.142l-4.859 3.14c-.377.187-1.615.662-3.71 1.427-2.094.756-3.524 1.619-4.284 2.568-.568.762-.855 1.903-.855 3.431 0 1.525-.096 2.668-.287 3.428-.188.765-.952.949-2.279.571-.575 1.141-2.334 2.046-5.284 2.708-2.95.666-4.9 1.665-5.852 2.996 1.136 1.525 1.047 3.046-.288 4.57-2.286 1.906-4.284 1.713-5.995-.571-.951.381-1.667 1.331-2.143 2.856-.472 1.524-1.19 2.571-2.136 3.14 1.335 2.094 1.137 3.621-.567 4.568.185 0 .616.193 1.279.572.664.38 1.376.855 2.143 1.427.76.572 1.231.859 1.424.859-.76 1.709-1.811 2.565-3.142 2.565 1.143 3.047-.281 6.38-4.277 9.994-.768.76-1.958 1.52-3.573 2.284-1.626.76-3.097 1.377-4.432 1.854-1.335.477-2.091.809-2.282.999-1.903 1.716-3.334 3.475-4.281 5.282-.948 1.811-1.092 3.569-.432 5.284.668 1.718 2.427 2.854 5.287 3.429l.277 2.282v5.137l.287 2.286c.195 1.331.339 2.522.432 3.572.093 1.048.093 2.375 0 3.997-.093 1.615-.523 2.522-1.283 2.707-.756.195-1.804 0-3.139-.571-1.529-.76-3.333-4.948-5.431-12.56-.38-1.902-1.526-4.182-3.429-6.851-.951.951-1.759 1.567-2.423 1.852-.661.287-1.144.339-1.421.144-.287-.188-.811-.619-1.573-1.283-.76-.664-1.421-1.191-1.995-1.567-.952-.568-2.615-1.048-5-1.424-2.375-.38-3.858-.859-4.422-1.427-4.573 3.432-7.335 2.569-8.285-2.563-.378.948-.332 2.231.144 3.854.478 1.618.715 2.519.715 2.71-1.331 2.478-3.424 2.662-6.28.568-1.143-1.137-3.761-1.28-7.854-.425-4.093.853-6.805.996-8.136.425.193 0 .571.284 1.143.858.57.373.953.661 1.142.853-.192.764-.476 1.331-.859 1.711-.382.377-.763.521-1.142.432-.381-.096-.809-.096-1.287 0a4.815 4.815 0 0 0-1.285.424c-.761.568-1.711 1.567-2.854 2.994-1.141 1.428-1.997 2.331-2.568 2.707 1.14 3.046 1.665 5.38 1.571 6.995-.099 1.622-.381 4.001-.859 7.139s-.715 5.664-.715 7.57c0 3.038.905 6.57 2.712 10.561 1.809 3.997 3.949 6.755 6.424 8.281 1.336.76 3.621 1.232 6.854 1.421 3.235.194 5.52 0 6.851-.568 1.143-.564 1.997-1.235 2.568-1.995s1.049-1.862 1.427-3.285c.381-1.424.669-2.423.859-2.991 1.331-3.621 3.805-5.523 7.417-5.715 2.293-.191 3.949.055 5.003.712 1.047.667 1.472 1.57 1.28 2.714-.192 1.139-.571 2.33-1.137 3.568a60.303 60.303 0 0 1-2.144 4.142c-.851 1.529-1.378 2.669-1.562 3.433-.381 1.522-.719 3.661-.999 6.427-.287 2.758-.528 4.425-.719 4.999.384.186 1.809.281 4.281.281 0-.377.144-1 .431-1.855.281-.855.425-1.379.425-1.567.955 1.526 2.478 2.375 4.572 2.567 2.094.191 3.62-.568 4.571-2.283.384.572 1.526 2.002 3.43 4.288 1.902 2.279 2.949 4.182 3.142 5.708.191.767.567 1.999 1.136 3.717.575 1.711.767 2.902.575 3.572-.191.657-1.144.996-2.854.996-.76 0-1.238.287-1.424.855-.198.575-.198 1.283 0 2.139.192.855.432 1.667.712 2.427.284.756.664 1.571 1.137 2.427.485.849.719 1.375.719 1.566 3.422 6.276 8.09 7.991 13.989 5.141 0 5.517-1.334 8.562-4.004 9.13-1.505.378-3.213-.583-5.116-2.862zm4.264 64.501c-.376-1.903-.568-3.423-.547-4.559-.199-1.526.472-3.573 1.991-6.14 1.522-2.566 2.282-4.521 2.282-5.852-3.045-.76-4.186-3.237-3.432-7.423.383-2.857 3.141-6.663 8.281-11.42 3.62-3.237 4.757-7.81 3.429-13.705-.575-2.475-1.054-6.095-1.431-10.853-.376-4.76-.76-8.09-1.143-9.992 0 .568.903 1.092 2.717 1.567 1.808.472 2.902 1.095 3.282 1.848.38-.564.853-1.615 1.427-3.135.568-1.526 1.144-2.665 1.704-3.429.384-.571 1.191-1.283 2.431-2.143 1.238-.855 2.046-1.375 2.426-1.567.373-.188 1.235-.804 2.563-1.854 1.334-1.047 2.43-1.852 3.288-2.423.862-.571 1.995-.999 3.426-1.28 1.431-.287 2.427.138 2.994 1.28.955 1.144.767 2.902-.567 5.284-1.335 2.382-1.335 4.048 0 5.003.194-.575.38-1.817.567-3.72.195-1.903.767-3.33 1.715-4.288 1.143-1.136 2.234-1.807 3.285-1.992 1.047-.198 1.995-.055 2.848.428.862.476 1.861 1.133 2.998 1.995 1.143.855 2.189 1.38 3.141 1.567 2.854.952 6.283 3.046 10.28 6.283-.191-.194-.191-.431 0-.719.192-.28.568-.567 1.144-.855.568-.28 1.088-.567 1.567-.855a7.998 7.998 0 0 1 1.567-.708l.855-.287c1.328 0 2.282-.093 2.851-.288.567-.188 1.386 0 2.426.575 1.041.568 1.76.996 2.136 1.283.383.28 1.047.804 1.999 1.567.951.76 1.622 1.335 1.991 1.711.575.376 1.622 1.047 3.142 1.999 1.526.951 2.717 1.711 3.573 2.278.862.568 1.621 1.431 2.278 2.563a5.63 5.63 0 0 1 .719 3.72c1.144.192 3.423.948 6.852 2.279.575.377 1.759.716 3.572.996 1.808.287 2.998.719 3.569 1.283-27.578 29.139-60.988 47.126-100.196 53.978z"/>
</svg>
