<svg xmlns="http://www.w3.org/2000/svg" viewBox="0 0 439.362 439.361">
  <path d="M420.673 293.628H18.683c-4.952 0-9.235 1.811-12.851 5.428-3.617 3.614-5.424 7.902-5.424 12.848v73.087c0 4.948 1.807 9.229 5.424 12.847 3.619 3.613 7.898 5.424 12.851 5.424h401.991c4.948 0 9.233-1.811 12.847-5.424 3.614-3.617 5.421-7.898 5.421-12.847V311.9c0-4.941-1.807-9.233-5.421-12.847-3.614-3.615-7.896-5.425-12.848-5.425zM435.242 244.229L232.53 41.526c-3.617-3.617-7.895-5.426-12.849-5.426-4.952 0-9.233 1.809-12.85 5.426L4.121 244.229c-3.616 3.621-4.853 6.666-3.709 9.137 1.141 2.479 4.187 3.717 9.135 3.717h420.274c4.948 0 7.994-1.238 9.13-3.717 1.139-2.47-.092-5.515-3.709-9.137z"/>
</svg>
