<svg xmlns="http://www.w3.org/2000/svg" viewBox="0 0 401.987 401.987">
  <path d="M345.176 382.016l-9.996-45.392c-.567-2.669-1.995-4.668-4.284-5.995-2.475-1.335-4.948-1.52-7.42-.568l-1.43.568-3.43.855c-1.525.376-3.285.808-5.283 1.283-1.999.476-4.326.948-6.995 1.427-2.655.476-5.476.907-8.419 1.287-2.949.373-6.132.712-9.561.999-3.43.281-6.852.425-10.281.425-24.174 0-45.922-6.517-65.239-19.555-19.32-13.042-33.548-30.696-42.683-52.961h110.486c2.098 0 4.001-.712 5.708-2.143 1.719-1.424 2.766-3.183 3.139-5.284l6.852-31.977c.574-2.847 0-5.42-1.708-7.706-1.903-2.286-4.288-3.43-7.139-3.43h-131.04c-.571-12.942-.571-22.934 0-29.978h139.325c5.144 0 8.186-2.472 9.137-7.421l6.852-32.548c.567-2.664-.089-5.136-1.999-7.422-1.707-2.284-4.086-3.431-7.132-3.431h-133.62c9.517-21.317 23.791-38.066 42.827-50.248 19.034-12.185 40.542-18.274 64.524-18.274.764-.38 3.569-.284 8.419.286 4.853.568 7.618.808 8.281.712.657-.094 3.142.193 7.42.855l6.427 1 4.996.998c1.431.288 2.525.522 3.285.715l1.143.284c2.472.765 4.75.525 6.852-.711 2.095-1.241 3.429-3.094 4.001-5.568l12.278-45.395c.568-2.475.28-4.759-.855-6.852-1.715-2.288-3.621-3.715-5.715-4.284C315.39 2.19 296.92 0 277.51 0c-42.641 0-80.751 12.185-114.347 36.545-33.595 24.362-56.77 56.532-69.523 96.501H65.663c-2.666 0-4.853.855-6.567 2.568-1.709 1.711-2.568 3.901-2.568 6.567v32.548c0 2.664.856 4.854 2.568 6.563 1.715 1.715 3.905 2.568 6.567 2.568h19.13c-.575 9.139-.666 19.126-.288 29.981H65.663c-2.474 0-4.615.903-6.423 2.711-1.807 1.807-2.712 3.949-2.712 6.42v32.264c0 2.478.905 4.613 2.712 6.427 1.809 1.808 3.949 2.704 6.423 2.704h27.124c11.991 42.064 34.643 75.52 67.952 100.357 33.311 24.846 72.235 37.261 116.771 37.261 3.62 0 7.282-.089 10.995-.287 3.72-.191 7.187-.479 10.424-.855 3.234-.377 6.424-.801 9.565-1.28 3.138-.479 5.995-.947 8.562-1.431 2.57-.472 4.997-.947 7.279-1.42 2.286-.482 4.332-.999 6.143-1.574 1.807-.564 3.323-.996 4.565-1.276 1.239-.287 2.238-.626 2.994-.999l1.431-.288c2.095-.76 3.713-2.142 4.853-4.144 1.143-1.987 1.423-4.132.855-6.415z"/>
</svg>
