<svg xmlns="http://www.w3.org/2000/svg" viewBox="0 0 401.999 401.998">
  <path d="M237.543 301.499h-73.091c-4.95 0-9.233 1.811-12.851 5.425-3.615 3.617-5.424 7.897-5.424 12.847v63.953c0 4.948 1.809 9.232 5.424 12.854 3.621 3.61 7.9 5.421 12.851 5.421h73.097c4.942 0 9.227-1.811 12.848-5.421 3.61-3.621 5.42-7.905 5.42-12.854v-63.953c0-4.949-1.813-9.229-5.427-12.847-3.617-3.617-7.902-5.425-12.847-5.425zM259.383 5.424C255.862 1.812 251.628 0 246.676 0h-91.359c-4.948 0-9.18 1.812-12.703 5.424-3.521 3.617-5.186 7.902-4.996 12.85l7.992 219.265c.19 4.948 2.139 9.236 5.852 12.847 3.711 3.621 8.041 5.431 12.991 5.431h73.097c4.942 0 9.271-1.81 12.991-5.431 3.71-3.61 5.653-7.898 5.852-12.847l7.987-219.265c.198-4.948-1.475-9.229-4.997-12.85z"/>
</svg>
