<svg xmlns="http://www.w3.org/2000/svg" viewBox="0 0 438.536 438.536">
  <path d="M414.41 24.123C398.333 8.042 378.963 0 356.315 0H82.228C59.58 0 40.21 8.042 24.126 24.123 8.045 40.207.003 59.576.003 82.225v274.084c0 22.647 8.042 42.018 24.123 58.102 16.084 16.084 35.454 24.126 58.102 24.126h274.084c22.648 0 42.018-8.042 58.095-24.126 16.084-16.084 24.126-35.454 24.126-58.102V82.225c-.001-22.649-8.043-42.021-24.123-58.102zm-41.255 201.425h-49.963V406.84H248.39V225.548h-37.4V163.02h37.401v-37.402c0-26.838 6.283-47.107 18.843-60.813 12.559-13.706 33.304-20.555 62.242-20.555h49.963v62.526h-31.401c-10.663 0-17.467 1.853-20.417 5.568-2.949 3.711-4.428 10.23-4.428 19.558v31.119h56.534l-6.572 62.527z"/>
</svg>
