<svg xmlns="http://www.w3.org/2000/svg" viewBox="0 0 548.179 548.179">
  <path d="M547.888 273.237c-4.948-6.661-32.264-15.513-81.94-26.551l-100.502-9.135-63.953-18.273h-18.268L199.568 118.78h19.698c4.952 0 9.234-.428 12.85-1.287 3.617-.859 5.424-1.952 5.424-3.284 0-1.331-1.807-2.424-5.424-3.284-3.616-.855-7.898-1.285-12.85-1.285H127.907v9.135h18.274v118.771h-45.683L45.68 173.592H18.274l-9.136 9.136v54.818h9.136v9.135h36.547v2.284L0 255.818v36.546l54.821 6.851v2.283H18.274v9.13H9.139v54.823l9.136 9.134h27.406l54.818-63.954h45.683v118.777h-18.274v9.13h91.36c4.952 0 9.234-.425 12.85-1.28 3.617-.862 5.424-1.954 5.424-3.288 0-1.331-1.807-2.427-5.424-3.289-3.616-.855-7.898-1.28-12.85-1.28H199.57l83.656-100.502h18.268l63.953-18.273 100.506-9.131c54.625-12.183 82.036-21.32 82.228-27.408l-.293-.85z"/>
</svg>
