<svg xmlns="http://www.w3.org/2000/svg" viewBox="0 0 511.63 511.631">
  <path d="M489.93 167.875c-14.469-14.465-31.601-21.698-51.394-21.698H331.757c4.189-11.419 6.283-23.601 6.283-36.545 0-23.219-7.758-41.204-23.271-53.96-15.516-12.751-35.166-19.126-58.957-19.126-7.232 0-13.849 1.665-19.845 4.998-5.996 3.328-11.231 8.042-15.703 14.128-4.471 6.091-8.326 12.087-11.56 17.989-3.239 5.901-6.761 12.752-10.566 20.555-3.806 7.808-6.945 13.706-9.419 17.705-6.661 10.47-16.18 22.742-28.549 36.829-.382.571-1.715 2.19-3.999 4.854-2.284 2.666-4.093 4.712-5.424 6.139a531.098 531.098 0 0 1-5.852 6.139c-2.574 2.666-4.858 4.805-6.854 6.424a762.98 762.98 0 0 1-6.424 5.14c-2.284 1.809-4.521 3.14-6.71 3.999-2.187.855-4.233 1.283-6.136 1.283H36.547c-10.09 0-18.704 3.575-25.841 10.71C3.571 200.57 0 209.184 0 219.272v182.725c0 10.088 3.567 18.701 10.706 25.84 7.141 7.136 15.75 10.708 25.841 10.708h82.224c11.228 0 32.449 5.619 63.666 16.848 35.972 13.134 66.616 19.694 91.932 19.694 26.836 0 48.44-7.662 64.809-22.983 16.368-15.317 24.461-36.206 24.267-62.67 11.427-14.657 17.135-31.597 17.135-50.819 0-4.185-.288-8.277-.855-12.274 6.283-10.849 9.804-22.176 10.567-33.976h48.252c19.986 0 37.165-7.231 51.538-21.696 14.366-14.464 21.55-31.688 21.55-51.671-.006-19.609-7.24-36.646-21.702-51.123zM67.665 396.576C64.047 400.193 59.766 402 54.818 402c-4.952 0-9.235-1.807-12.85-5.424-3.618-3.617-5.424-7.898-5.424-12.847s1.807-9.233 5.424-12.848c3.619-3.617 7.898-5.427 12.85-5.427 4.948 0 9.229 1.81 12.847 5.427 3.616 3.614 5.424 7.898 5.424 12.848 0 4.949-1.809 9.23-5.424 12.847zM464.23 244.984c-7.228 7.233-15.804 10.848-25.701 10.848H344.03c2.854 3.234 5.232 7.758 7.135 13.562 1.906 5.804 2.858 11.088 2.858 15.845 0 13.135-5.045 24.455-15.133 33.969 3.429 6.091 5.14 12.662 5.14 19.701 0 7.043-1.667 14.037-4.996 20.984-3.333 6.943-7.854 11.94-13.565 14.986.951 5.701 1.43 11.036 1.43 15.988 0 31.777-17.986 47.67-53.96 47.67-15.419 0-32.502-3.045-51.249-9.13a5331.591 5331.591 0 0 1-55.246-18.274c-18.083-6.087-33.974-9.133-47.68-9.133h-9.135V219.28h9.135c13.513 0 26.835-5.426 39.969-16.279 5.713-4.762 15.325-14.851 28.837-30.266 13.706-15.415 24.366-29.211 31.977-41.396 2.474-3.999 5.996-10.185 10.566-18.559 12.562-26.458 21.127-39.684 25.697-39.684 13.514 0 24.506 2.902 32.976 8.705 8.47 5.807 12.703 15.083 12.703 27.835 0 8.186-1.427 16.228-4.281 24.126-2.857 7.898-5.995 14.372-9.421 19.414s-6.567 10.278-9.422 15.703c-2.854 5.424-4.28 10.041-4.28 13.846h164.452c9.513 0 17.986 3.665 25.412 10.992 7.42 7.332 11.129 15.843 11.129 25.553 0 9.906-3.614 18.47-10.848 25.714z"/>
</svg>
