<svg xmlns="http://www.w3.org/2000/svg" viewBox="0 0 511.62 511.62">
  <path d="M156.45 351.309c8.564 12.272 19.368 23.935 32.404 34.972 13.039 11.036 26.215 20.553 39.543 28.547 13.326 7.998 28.553 15.893 45.682 23.702l-.287-.287 1.143.287c-12.754-24.365-19.128-45.679-19.128-63.953 0-9.709 2.334-18.894 7-27.549 4.661-8.664 10.749-16.426 18.268-23.271 7.522-6.851 15.848-13.702 24.982-20.554 9.133-6.857 18.267-14.232 27.411-22.127 9.134-7.898 17.463-16.276 24.981-25.126 7.519-8.852 13.606-19.558 18.274-32.12 4.661-12.563 6.995-26.269 6.995-41.112 0-18.654-2.621-36.164-7.851-52.534-5.235-16.368-12.135-30.693-20.697-42.968-8.562-12.275-19.362-23.935-32.408-34.97-13.038-11.04-26.214-20.557-39.539-28.549C269.897 15.703 254.671 7.804 237.543 0l.284.288-.856-.288c12.56 24.741 18.839 46.061 18.839 63.95 0 9.707-2.331 18.892-6.995 27.55-4.665 8.66-10.754 16.415-18.271 23.269-7.52 6.851-15.846 13.703-24.982 20.557-9.139 6.851-18.276 14.228-27.411 22.126-9.136 7.898-17.462 16.274-24.982 25.122-7.517 8.852-13.606 19.558-18.271 32.12-4.661 12.563-6.995 26.269-6.995 41.112 0 18.654 2.611 36.165 7.846 52.533 5.236 16.369 12.137 30.698 20.701 42.97zM454.092 477.788c-1.811-1.803-3.949-2.703-6.42-2.703H63.95c-2.474 0-4.615.9-6.423 2.703-1.809 1.808-2.712 3.949-2.712 6.424v18.271c0 2.479.903 4.617 2.712 6.427 1.809 1.811 3.949 2.711 6.423 2.711h383.722c2.471 0 4.609-.9 6.42-2.711 1.807-1.81 2.714-3.948 2.714-6.427v-18.271c0-2.475-.901-4.616-2.714-6.424z"/>
</svg>
