<svg xmlns="http://www.w3.org/2000/svg" viewBox="0 0 465.951 465.951">
  <path d="M430.543 29.408c-1.526-1.333-3.429-1.999-5.712-1.999-.76 0-1.427.096-1.991.288L294.933 55.105c-2.098.378-3.812 1.425-5.146 3.14-1.332 1.709-1.992 3.612-1.992 5.708H201.57c2.666-5.902 4-11.993 4-18.273 0-12.563-4.473-23.317-13.418-32.262C183.203 4.471 172.451 0 159.888 0c-12.563 0-23.319 4.471-32.264 13.418-8.949 8.945-13.418 19.699-13.418 32.262 0 8.375 2.378 16.562 7.139 24.556-10.66 3.424-20.985 8.42-30.979 14.987-9.991 6.564-18.08 12.943-24.269 19.126a183.712 183.712 0 0 0-17.271 19.985c-5.327 7.139-8.897 12.229-10.706 15.275-1.805 3.046-3.189 5.52-4.139 7.423-2.284 4.568-2.618 9.229-.998 13.988 1.615 4.761 4.611 8.282 8.992 10.566 2.474 1.331 5.234 1.997 8.28 1.997 7.611 0 13.04-3.335 16.274-9.993.765-1.521 2.096-3.855 3.999-6.995s5.758-8.232 11.56-15.276c5.804-7.043 12.089-13.363 18.844-18.986 6.759-5.609 15.465-10.656 26.125-15.127s21.604-6.711 32.836-6.711h9.133v31.694c-18.842 5.708-34.211 16.603-46.11 32.687-11.896 16.086-17.843 34.216-17.843 54.39v228.407c0 4.948 1.811 9.236 5.424 12.847 3.617 3.614 7.902 5.431 12.847 5.431h146.184c4.941 0 9.227-1.816 12.847-5.431 3.61-3.61 5.421-7.898 5.421-12.847V219.266c0-21.888-6.898-41.206-20.697-57.958-13.802-16.746-31.265-27.312-52.39-31.689v-29.125h73.087c0 2.096.664 3.999 1.995 5.713 1.338 1.713 3.05 2.76 5.144 3.14l127.907 27.406c.571.193 1.235.288 1.995.288 2.279 0 4.188-.666 5.711-1.997 2.286-1.715 3.43-4.095 3.43-7.139v-91.36c-.006-3.044-1.145-5.424-3.435-7.137zM172.738 58.531c-3.617 3.617-7.895 5.426-12.847 5.426s-9.237-1.809-12.851-5.426c-3.617-3.615-5.424-7.898-5.424-12.845 0-4.949 1.807-9.235 5.424-12.851 3.617-3.614 7.902-5.426 12.851-5.426 4.948 0 9.229 1.812 12.847 5.426 3.614 3.616 5.424 7.902 5.424 12.851 0 4.946-1.81 9.23-5.424 12.845z"/>
</svg>
