<svg xmlns="http://www.w3.org/2000/svg" viewBox="0 0 438.536 438.536">
  <path d="M414.41 24.123C398.333 8.042 378.963 0 356.315 0H82.228C59.58 0 40.21 8.042 24.126 24.123 8.045 40.207.003 59.576.003 82.225v274.084c0 22.647 8.042 42.018 24.123 58.102 16.084 16.084 35.454 24.126 58.102 24.126h274.084c22.648 0 42.018-8.042 58.095-24.126 16.084-16.084 24.126-35.454 24.126-58.102V82.225c-.001-22.649-8.043-42.018-24.123-58.102zm-232.825 237.97c-11.803 11.804-26.075 17.706-42.827 17.706-16.75 0-31.024-5.902-42.825-17.706-11.799-11.8-17.701-26.073-17.701-42.826 0-16.755 5.898-31.027 17.701-42.827 11.798-11.801 26.075-17.703 42.825-17.703 16.751 0 31.023 5.902 42.827 17.703 11.798 11.799 17.699 26.072 17.699 42.827 0 16.746-5.901 31.026-17.699 42.826zm161.018 0c-11.793 11.804-26.07 17.706-42.825 17.706-16.748 0-31.024-5.902-42.831-17.706-11.793-11.8-17.699-26.073-17.699-42.826 0-16.755 5.906-31.027 17.699-42.827 11.807-11.801 26.08-17.703 42.831-17.703 16.748 0 31.025 5.902 42.825 17.703 11.8 11.799 17.706 26.072 17.706 42.827 0 16.746-5.907 31.026-17.706 42.826z"/>
</svg>
