<svg xmlns="http://www.w3.org/2000/svg" viewBox="0 0 511.627 511.627">
  <path d="M219.277.003c-4.952 0-9.235 1.809-12.85 5.424C202.809 9.045 201 13.326 201 18.274v118.771c0 4.948-1.809 9.231-5.424 12.847-3.621 3.617-7.898 5.426-12.85 5.426s-9.235-1.809-12.851-5.426c-3.617-3.616-5.424-7.898-5.424-12.847V18.274c0-4.948-1.809-9.229-5.426-12.847-3.619-3.616-7.902-5.424-12.851-5.424-4.946 0-9.229 1.809-12.847 5.424-3.615 3.617-5.424 7.898-5.424 12.847v118.771c0 4.948-1.809 9.231-5.424 12.847-3.617 3.617-7.898 5.426-12.847 5.426-4.952 0-9.235-1.809-12.85-5.426-3.618-3.616-5.426-7.898-5.426-12.847V18.274c0-4.948-1.807-9.229-5.424-12.847C82.316 1.811 78.037.003 73.085.003s-9.233 1.809-12.85 5.424c-3.615 3.617-5.424 7.898-5.424 12.847v182.725c0 11.609 3.374 22.172 10.135 31.689 6.759 9.519 15.562 16.18 26.41 19.985v222.411c0 9.896 3.617 18.456 10.85 25.693 7.233 7.234 15.8 10.849 25.697 10.849h36.543c9.898 0 18.462-3.621 25.697-10.855 7.233-7.23 10.848-15.797 10.848-25.693V252.67c10.85-3.805 19.648-10.47 26.409-19.985 6.759-9.514 10.138-20.079 10.138-31.689V18.271c0-4.948-1.809-9.229-5.417-12.843-3.615-3.616-7.894-5.425-12.844-5.425zM451.383 5.424C447.766 1.809 443.484 0 438.536 0h-73.087c-25.125 0-46.634 8.951-64.521 26.84-17.891 17.89-26.844 39.398-26.844 64.525v228.401c0 2.478.91 4.613 2.714 6.427 1.811 1.807 3.953 2.711 6.42 2.711h63.954v146.181c0 9.896 3.62 18.456 10.852 25.693 7.23 7.231 15.803 10.849 25.7 10.849h36.538c9.9 0 18.463-3.614 25.697-10.849 7.234-7.237 10.855-15.797 10.855-25.693V18.271c-.007-4.948-1.814-9.229-5.431-12.847z"/>
</svg>
