<svg xmlns="http://www.w3.org/2000/svg" viewBox="0 0 440.25 440.25">
  <path d="M434.823 207.279L232.111 4.571c-3.609-3.617-6.655-4.856-9.133-3.713-2.475 1.143-3.712 4.189-3.712 9.137v202.708c-.949-2.091-2.187-3.901-3.711-5.424L12.847 4.571C9.229.954 6.186-.285 3.711.858 1.237 2.001 0 5.047 0 9.995v420.262c0 4.948 1.237 7.994 3.711 9.138 2.474 1.14 5.518-.1 9.135-3.721l202.708-202.701c1.521-1.711 2.762-3.524 3.711-5.428v202.712c0 4.948 1.237 7.991 3.712 9.131 2.478 1.143 5.523-.093 9.133-3.714l202.712-202.708c3.61-3.617 5.428-7.901 5.428-12.847-.002-4.941-1.817-9.223-5.427-12.84z"/>
</svg>
