<svg xmlns="http://www.w3.org/2000/svg" viewBox="0 0 439.679 439.679">
  <path d="M145.031 169.879c-2.666-2.857-6.089-4.286-10.276-4.286-4.192 0-7.521 1.434-9.995 4.286l-34.546 34.258c-2.666 2.667-3.997 5.996-3.997 9.994 0 3.997 1.334 7.428 3.997 10.282l116.203 116.483c2.284 2.286 5.138 3.621 8.564 4.004.383.191.955.28 1.714.28 3.805 0 7.324-1.431 10.564-4.284l208.417-208.42c2.669-2.859 4.004-6.283 4.004-10.282 0-3.997-1.335-7.424-4.004-10.277L401.42 77.654c-2.854-2.856-6.283-4.281-10.28-4.281s-7.426 1.429-10.28 4.281l-163.88 164.17-71.949-71.945z"/>
  <path d="M422.835 182.435L246.108 359.164c-7.426 7.803-16.848 11.711-28.267 11.711h-7.994l-1.713-1.144c-7.044-1.718-13.418-5.235-19.13-10.567L73.089 242.681c-7.995-7.994-11.992-17.515-11.992-28.55 0-11.228 3.997-20.647 11.992-28.262l34.261-34.545c7.804-7.804 17.318-11.709 28.549-11.709 10.85 0 20.273 3.999 28.266 11.991l53.676 53.677L331.467 91.364l-75.657-75.66C245.721 5.619 233.542.576 219.263.576c-14.275 0-26.457 5.042-36.542 15.128L15.131 183.292C5.042 193.382 0 205.562 0 219.839c0 14.279 5.046 26.455 15.131 36.547l167.594 167.586c10.085 10.089 22.314 15.13 36.685 15.13 14.372 0 26.503-5.041 36.403-15.13l167.59-167.586c10.089-10.093 15.133-22.269 15.133-36.551 0-14.281-5.044-26.457-15.133-36.547l-.568-.853z"/>
</svg>
