<svg xmlns="http://www.w3.org/2000/svg" viewBox="0 0 475.082 475.082">
  <path d="M182.725 36.542H36.547c-9.9 0-18.464 3.619-25.697 10.854C3.617 54.62 0 63.192 0 73.087v109.636c0 9.897 3.617 18.464 10.85 25.693 7.232 7.236 15.796 10.854 25.697 10.854h146.178c9.9 0 18.464-3.621 25.697-10.854 7.233-7.229 10.85-15.796 10.85-25.693V73.087c0-9.895-3.617-18.464-10.85-25.692-7.233-7.237-15.8-10.853-25.697-10.853zM182.725 255.813H36.547c-9.9 0-18.464 3.621-25.697 10.852C3.617 273.896 0 282.462 0 292.358v109.636c0 9.897 3.617 18.467 10.85 25.694 7.232 7.234 15.796 10.852 25.697 10.852h146.178c9.9 0 18.464-3.617 25.697-10.852 7.233-7.228 10.85-15.797 10.85-25.694V292.358c0-9.896-3.617-18.462-10.85-25.693-7.233-7.237-15.8-10.852-25.697-10.852zM464.23 47.396c-7.225-7.238-15.797-10.854-25.694-10.854H292.355c-9.896 0-18.463 3.619-25.693 10.854-7.234 7.224-10.852 15.797-10.852 25.692v109.636c0 9.897 3.617 18.464 10.852 25.693 7.23 7.236 15.797 10.854 25.693 10.854h146.181c9.897 0 18.47-3.621 25.694-10.854 7.234-7.229 10.852-15.796 10.852-25.693V73.087c0-9.895-3.615-18.461-10.852-25.691zM438.536 255.813H292.355c-9.896 0-18.463 3.621-25.693 10.852-7.234 7.231-10.852 15.797-10.852 25.693v109.636c0 9.897 3.617 18.467 10.852 25.694 7.23 7.234 15.797 10.852 25.693 10.852h146.181c9.897 0 18.47-3.617 25.694-10.852 7.234-7.228 10.852-15.797 10.852-25.694V292.358c0-9.896-3.614-18.462-10.852-25.693-7.225-7.237-15.79-10.852-25.694-10.852z"/>
</svg>
