<svg xmlns="http://www.w3.org/2000/svg" viewBox="0 0 548.176 548.176">
  <path d="M505.347 170.733c-28.551-28.549-62.998-42.825-103.353-42.825H146.181c-40.349 0-74.807 14.275-103.353 42.825C14.275 199.283 0 233.734 0 274.086c0 40.357 14.279 74.805 42.828 103.353 28.546 28.548 63 42.829 103.353 42.829 36.547 0 68.708-12.187 96.501-36.549h62.811c27.791 24.362 59.952 36.549 96.501 36.549 40.348 0 74.802-14.274 103.353-42.829 28.552-28.554 42.829-62.995 42.829-103.353 0-40.352-14.278-74.803-42.829-103.353zM237.541 292.36c0 2.666-.854 4.856-2.568 6.563-1.713 1.715-3.9 2.57-6.567 2.57h-54.818v54.819c0 2.666-.854 4.856-2.568 6.564-1.713 1.714-3.899 2.569-6.567 2.569h-36.545c-2.664 0-4.854-.855-6.567-2.569-1.711-1.708-2.565-3.898-2.565-6.564v-54.819H63.953c-2.664 0-4.854-.855-6.567-2.57-1.711-1.707-2.565-3.897-2.565-6.563v-36.545c0-2.664.854-4.854 2.565-6.567 1.713-1.714 3.903-2.568 6.567-2.568h54.821v-54.818c0-2.664.854-4.854 2.565-6.567 1.712-1.715 3.903-2.568 6.567-2.568h36.545c2.667 0 4.854.854 6.567 2.568 1.714 1.713 2.568 3.903 2.568 6.567v54.818h54.818c2.667 0 4.854.854 6.567 2.568 1.714 1.713 2.568 3.903 2.568 6.567v36.545zm153.749 44.109c-7.139 7.139-15.753 10.711-25.845 10.711-10.081 0-18.698-3.572-25.834-10.711-7.139-7.132-10.707-15.749-10.707-25.837 0-10.089 3.568-18.702 10.707-25.838 7.136-7.132 15.753-10.708 25.834-10.708 10.092 0 18.706 3.576 25.845 10.708 7.132 7.136 10.704 15.749 10.704 25.838 0 10.088-3.572 18.705-10.704 25.837zm73.083-73.089c-7.131 7.135-15.748 10.706-25.837 10.706s-18.702-3.567-25.837-10.706c-7.139-7.14-10.708-15.75-10.708-25.841 0-10.085 3.569-18.698 10.708-25.835 7.135-7.139 15.748-10.707 25.837-10.707s18.706 3.568 25.837 10.707c7.139 7.137 10.712 15.75 10.712 25.835 0 10.09-3.569 18.704-10.712 25.841z"/>
</svg>
