<svg xmlns="http://www.w3.org/2000/svg" viewBox="0 0 438.536 438.536">
  <path d="M365.449 109.631V36.545h-36.542v73.085H255.82v36.547h73.087v73.089h36.542v-73.089h73.083v210.131c0 22.647-8.042 42.018-24.126 58.102-16.077 16.084-35.446 24.126-58.095 24.126H222.697c7.419-13.894 11.129-28.835 11.129-44.823 0-12.566-2.095-24.223-6.276-34.975-4.188-10.749-9.471-19.602-15.847-26.549a297.32 297.32 0 0 0-20.555-20.27c-7.329-6.563-14.178-12.228-20.557-16.991-6.374-4.753-11.658-9.944-15.843-15.554-4.187-5.623-6.279-11.283-6.279-16.991 0-6.854 2.19-13.325 6.567-19.417 4.38-6.088 9.71-11.94 15.987-17.556 6.279-5.619 12.515-11.755 18.702-18.42 6.186-6.658 11.466-15.511 15.843-26.549 4.38-11.038 6.567-23.507 6.567-37.404 0-13.894-2.522-27.74-7.564-41.54s-12.231-25.078-21.556-33.835c-1.142-1.138-2.474-2.185-3.997-3.14-1.521-.95-2.714-1.667-3.568-2.141-.859-.478-1.809-1.381-2.855-2.712-1.049-1.331-2.046-2.95-2.996-4.853h38.543l38.546-18.272H121.913c-26.267 0-49.536 3.662-69.805 10.994C31.84 54.866 14.469 67.572.003 85.651c0-23.984 7.708-44.252 23.124-60.813C38.547 8.276 58.243 0 82.228 0h274.084c22.648 0 42.018 8.042 58.095 24.123 16.084 16.084 24.126 35.453 24.126 58.102v27.406h-73.084zM56.821 208.56c6.086 7.904 13.513 14.326 22.267 19.274s17.983 7.419 27.694 7.419c18.464 0 31.833-5.763 40.114-17.276 8.28-11.511 12.419-26.787 12.419-45.821 0-11.613-1.524-23.791-4.563-36.54-3.047-12.751-7.52-25.122-13.421-37.113-5.9-11.991-13.894-21.892-23.982-29.696-10.085-7.804-21.411-11.708-33.974-11.708-17.701 0-31.455 6.567-41.258 19.7-9.801 13.134-14.703 28.835-14.703 47.11 0 8.942 1.093 18.361 3.284 28.262 2.19 9.898 5.568 19.799 10.138 29.696 4.564 9.897 9.894 18.795 15.985 26.693zm35.114 66.952c0-4.757 1.997-12.946 5.996-24.558-7.233.951-13.894 1.431-19.985 1.431-32.355 0-58.336-11.232-77.941-33.69v123.624c28.737-14.852 65.378-22.935 109.918-24.27-11.993-15.612-17.988-29.786-17.988-42.537zm97.632 120.904c-.953-3.135-2.618-6.416-4.996-9.849-2.38-3.422-4.377-6.324-5.996-8.706-1.617-2.375-4.139-5.182-7.566-8.418-3.424-3.234-6.042-5.661-7.851-7.279-1.807-1.619-4.853-4.042-9.135-7.279-4.278-3.237-7.233-5.428-8.848-6.563-1.615-1.144-4.755-3.333-9.419-6.57s-7.566-5.236-8.708-5.996c-3.235-.376-7.898-.567-13.99-.567-10.466 0-20.651.66-30.546 1.994-9.9 1.332-20.083 3.614-30.551 6.852-10.467 3.237-19.984 7.943-28.549 14.13-8.564 6.188-15.131 13.559-19.702 22.128 5.142 17.316 14.993 31.354 29.552 42.106 14.564 10.759 30.883 16.136 48.966 16.136H190.72c1.903-6.28 2.853-13.042 2.853-20.27 0-3.997-.428-7.851-1.293-11.563a158.148 158.148 0 0 0-2.713-10.286z"/>
</svg>
