<svg xmlns="http://www.w3.org/2000/svg" viewBox="0 0 401.987 401.987">
  <path d="M344.035 281.661c-1.711-1.811-3.901-2.714-6.564-2.714h-46.254c-2.669 0-4.859.903-6.57 2.714s-2.566 3.949-2.566 6.423v51.675H163.882V231.551h87.077c2.475 0 4.616-.904 6.424-2.711 1.81-1.807 2.713-3.949 2.713-6.424v-37.404c0-2.667-.903-4.853-2.713-6.567-1.808-1.709-3.949-2.568-6.424-2.568h-87.077v-61.385c0-14.462 4.947-26.166 14.844-35.116 9.9-8.946 22.936-13.418 39.113-13.418 8.566 0 17.419 1.715 26.553 5.142 9.138 3.424 15.704 6.468 19.701 9.136 3.997 2.662 6.476 4.475 7.423 5.424 1.903 1.711 4.09 2.377 6.567 1.999 2.475-.193 4.565-1.333 6.279-3.428l29.407-36.263c1.529-1.903 2.189-4.045 1.998-6.423-.191-2.38-1.143-4.328-2.854-5.852C284.369 11.9 252.485 0 217.271 0c-36.352 0-66.286 10.566-89.792 31.693-23.507 21.13-35.26 47.966-35.26 80.515v63.666H65.096c-2.664 0-4.854.859-6.567 2.568-1.715 1.712-2.57 3.899-2.57 6.567v37.401c0 2.471.855 4.609 2.57 6.42 1.713 1.81 3.903 2.713 6.567 2.713h27.123v109.346H64.525c-2.474 0-4.617.906-6.423 2.713-1.809 1.811-2.712 3.953-2.712 6.424v42.825c0 2.669.854 4.853 2.568 6.57 1.713 1.708 3.903 2.566 6.567 2.566h272.946c2.666 0 4.856-.858 6.564-2.566 1.711-1.718 2.562-3.901 2.562-6.57V288.074c.005-2.468-.851-4.616-2.562-6.413z"/>
</svg>
