<svg xmlns="http://www.w3.org/2000/svg" viewBox="0 0 511.63 511.63">
  <path d="M500.922 193.442c-7.139-7.139-15.753-10.709-25.845-10.709h-82.221c-1.902 0-3.949-.428-6.139-1.282-2.19-.859-4.433-2.19-6.708-3.999-2.286-1.812-4.429-3.523-6.427-5.142s-4.288-3.756-6.852-6.423a548.702 548.702 0 0 1-5.852-6.139c-1.335-1.425-3.145-3.472-5.428-6.14-2.286-2.662-3.62-4.283-4.004-4.853-12.36-14.087-21.888-26.364-28.548-36.831-2.478-3.999-5.615-9.895-9.421-17.703-3.806-7.801-7.327-14.652-10.564-20.557-3.237-5.901-7.09-11.897-11.566-17.987-4.466-6.088-9.705-10.8-15.697-14.13-5.996-3.332-12.611-4.997-19.842-4.997-23.791 0-43.443 6.374-58.957 19.126-15.513 12.751-23.268 30.74-23.268 53.959 0 12.948 2.091 25.125 6.28 36.545H73.089c-19.792 0-36.925 7.234-51.391 21.7S0 199.382 0 218.989c0 19.984 7.183 37.208 21.554 51.673 14.372 14.469 31.549 21.696 51.535 21.696h48.25c.765 11.8 4.286 23.123 10.566 33.975a86.723 86.723 0 0 0-.859 12.272c0 19.417 5.808 36.356 17.417 50.819l-.287 1.43c-.19 26.648 8.086 47.35 24.838 62.099 16.75 14.75 38.638 22.125 65.666 22.125 24.173 0 54.346-6.567 90.504-19.702 31.218-11.225 52.441-16.847 63.673-16.847h82.221c10.096 0 18.709-3.569 25.845-10.708 7.132-7.139 10.708-15.749 10.708-25.838V219.265c-.005-10.089-3.577-18.703-10.709-25.823zm-98.931 208.549h-9.134c-13.709 0-29.595 3.045-47.671 9.123a4609.382 4609.382 0 0 1-55.391 18.274c-18.843 6.091-36.26 9.134-52.246 9.134-16.562 0-29.458-3.898-38.688-11.707-9.235-7.807-13.85-19.794-13.85-35.975 0-6.091.381-11.419 1.143-15.984-5.708-3.042-10.229-8.046-13.562-14.985-3.333-6.947-4.997-13.942-4.997-20.985 0-7.035 1.713-13.606 5.14-19.697-10.088-9.521-15.131-20.838-15.131-33.973 0-4.753.953-10.04 2.855-15.841 1.903-5.811 4.287-10.328 7.139-13.563H73.092c-9.899 0-18.464-3.621-25.697-10.85-7.232-7.233-10.848-15.8-10.848-25.697 0-9.71 3.709-18.222 11.132-25.554 7.423-7.327 15.896-10.992 25.41-10.992h164.45c0-3.806-1.427-8.42-4.283-13.846-2.853-5.421-5.996-10.66-9.42-15.703s-6.567-11.516-9.419-19.414c-2.856-7.898-4.283-15.94-4.283-24.126 0-12.75 4.233-22.028 12.703-27.836 8.47-5.802 19.463-8.704 32.976-8.704 1.524 0 3.287 1.093 5.284 3.284 1.998 2.19 4.045 5.092 6.136 8.708a437.603 437.603 0 0 1 5.712 10.135 255.339 255.339 0 0 1 5.283 10.282c1.811 3.711 2.81 5.852 2.995 6.423 4.568 8.754 8.186 15.227 10.852 19.414 7.61 12.181 18.274 25.981 31.977 41.396.376.378.808.855 1.283 1.427.476.57.855.998 1.14 1.285.287.284.623.712.999 1.284 5.523 6.283 10.185 11.417 13.99 15.415s8.569 8.379 14.277 13.134c5.708 4.762 11.648 8.28 17.843 10.564 6.188 2.286 12.61 3.432 19.273 3.432h9.131v182.718h.003zm67.667-5.428c-3.617 3.62-7.898 5.428-12.848 5.428-4.948 0-9.232-1.808-12.847-5.428-3.62-3.614-5.427-7.898-5.427-12.848 0-4.948 1.807-9.232 5.427-12.847 3.614-3.613 7.898-5.427 12.847-5.427s9.23 1.813 12.848 5.427c3.613 3.614 5.42 7.898 5.42 12.847 0 4.95-1.807 9.234-5.42 12.848z"/>
</svg>
