<svg xmlns="http://www.w3.org/2000/svg" viewBox="0 0 511.623 511.623">
  <path d="M455.387 182.438c-11.231-31.212-16.844-52.435-16.844-63.666V36.547c0-10.09-3.58-18.704-10.712-25.84C420.692 3.571 412.075 0 401.987 0H219.271c-10.088 0-18.702 3.571-25.841 10.707-7.133 7.14-10.705 15.754-10.705 25.84v82.225c0 1.902-.428 3.945-1.287 6.136s-2.19 4.43-3.999 6.711c-1.807 2.281-3.521 4.427-5.137 6.423s-3.756 4.283-6.423 6.851a585.57 585.57 0 0 1-6.136 5.852c-1.425 1.334-3.472 3.14-6.139 5.424-2.664 2.284-4.283 3.62-4.854 3.999-14.082 12.37-26.362 21.888-36.829 28.549-3.996 2.474-9.897 5.614-17.7 9.419-7.804 3.809-14.655 7.331-20.557 10.566-5.901 3.237-11.897 7.093-17.987 11.563-6.091 4.471-10.8 9.707-14.134 15.703-3.333 5.996-4.996 12.609-4.996 19.842 0 23.791 6.423 43.444 19.273 58.957 12.847 15.513 30.784 23.274 53.815 23.274 14.087 0 26.268-2.098 36.545-6.283v106.778c0 19.794 7.233 36.925 21.7 51.395 14.465 14.462 31.499 21.692 51.106 21.692 19.984 0 37.211-7.183 51.669-21.549 14.476-14.377 21.703-31.553 21.703-51.538v-48.252c12.368-1.331 23.688-4.856 33.969-10.568 4.004.575 8.097.856 12.278.856 19.411 0 36.351-5.805 50.819-17.416l1.431.281c26.648.194 47.342-8.087 62.092-24.839 14.756-16.744 22.124-38.633 22.124-65.661.006-24.17-6.553-54.343-19.684-90.499zM370.873 41.961c3.62-3.617 7.898-5.426 12.847-5.426s9.232 1.809 12.854 5.426c3.613 3.619 5.421 7.902 5.421 12.85 0 4.949-1.811 9.23-5.421 12.847-3.621 3.615-7.905 5.424-12.854 5.424s-9.227-1.809-12.847-5.424c-3.614-3.617-5.421-7.895-5.421-12.847s1.807-9.235 5.421-12.85zm55.969 270.804c-7.812 9.233-19.8 13.847-35.977 13.847-6.092 0-11.423-.377-15.988-1.144-3.046 5.716-8.042 10.232-14.989 13.565-6.947 3.326-13.942 4.997-20.984 4.997-7.036 0-13.607-1.712-19.698-5.141-9.514 10.089-20.838 15.133-33.972 15.133-10.852 0-20.66-3.34-29.412-9.999v94.499c0 9.897-3.615 18.466-10.85 25.7-7.233 7.231-15.8 10.855-25.697 10.855-9.708 0-18.225-3.724-25.553-11.143-7.33-7.419-10.992-15.886-10.992-25.413V274.077c-3.809 0-8.423 1.428-13.849 4.281a163.573 163.573 0 0 0-15.703 9.422c-5.042 3.425-11.516 6.566-19.414 9.421-7.902 2.854-15.94 4.277-24.126 4.277-12.753 0-22.029-4.229-27.836-12.703-5.806-8.466-8.708-19.465-8.708-32.972 0-1.521 1.094-3.287 3.284-5.28 2.19-1.995 5.092-4.042 8.708-6.136a475.666 475.666 0 0 1 10.134-5.71 256.56 256.56 0 0 1 10.279-5.28c3.711-1.809 5.852-2.806 6.423-2.996 8.757-4.57 15.23-8.182 19.417-10.85 12.181-7.611 25.981-18.271 41.396-31.977.953-.759 2.284-1.903 3.999-3.427 6.28-5.518 11.417-10.183 15.415-13.988 3.999-3.805 8.376-8.563 13.135-14.277 4.758-5.711 8.276-11.654 10.562-17.843 2.284-6.189 3.425-12.612 3.425-19.273v-9.136h182.723v9.136c0 13.706 3.046 29.597 9.137 47.679a4736.738 4736.738 0 0 1 18.274 55.389c6.092 18.843 9.138 36.26 9.138 52.248.003 16.556-3.908 29.45-11.701 38.683z"/>
</svg>
