<svg xmlns="http://www.w3.org/2000/svg" viewBox="0 0 438.533 438.532">
  <path d="M433.978 243.531L377.724 70.519c-3.237-10.089-9.232-18.274-17.986-24.554s-18.371-9.419-28.836-9.419H107.637c-10.472 0-20.08 3.137-28.837 9.419-8.757 6.28-14.753 14.465-17.987 24.554L4.568 243.531C1.523 253.052 0 260.189 0 264.947v91.361c0 12.559 4.471 23.308 13.417 32.257 8.947 8.949 19.701 13.422 32.264 13.422h347.176c12.56 0 23.315-4.473 32.265-13.422 8.945-8.949 13.411-19.698 13.411-32.257v-91.361c0-4.758-1.51-11.895-4.555-21.416zM95.646 81.649c.763-2.474 2.284-4.521 4.568-6.136 2.286-1.619 4.759-2.428 7.423-2.428h223.262c2.666 0 5.144.81 7.426 2.428 2.283 1.615 3.806 3.662 4.565 6.136l44.823 137.617H50.822L95.646 81.649zm306.355 274.66c0 2.471-.911 4.609-2.718 6.42-1.813 1.81-3.949 2.707-6.42 2.707H45.681c-2.474 0-4.615-.897-6.423-2.707-1.807-1.811-2.712-3.949-2.712-6.42v-91.361c0-2.479.905-4.613 2.712-6.428 1.809-1.803 3.949-2.703 6.423-2.703h347.183c2.471 0 4.609.896 6.42 2.703 1.807 1.814 2.714 3.949 2.714 6.428v91.361h.003z"/>
  <path d="M274.087 287.786c-6.283 0-11.662 2.231-16.132 6.708-4.473 4.476-6.714 9.852-6.714 16.132 0 6.279 2.237 11.659 6.714 16.132 4.473 4.477 9.849 6.707 16.132 6.707s11.663-2.23 16.132-6.707c4.47-4.47 6.715-9.849 6.715-16.132 0-6.28-2.238-11.663-6.715-16.132-4.475-4.473-9.848-6.708-16.132-6.708zM347.178 287.786c-6.283 0-11.663 2.238-16.136 6.708-4.473 4.476-6.707 9.852-6.707 16.132 0 6.279 2.234 11.659 6.707 16.132 4.473 4.477 9.853 6.707 16.136 6.707 6.276 0 11.663-2.23 16.132-6.707 4.47-4.47 6.715-9.849 6.715-16.132 0-6.28-2.238-11.663-6.715-16.132-4.477-4.473-9.855-6.708-16.132-6.708z"/>
</svg>
