<svg xmlns="http://www.w3.org/2000/svg" viewBox="0 0 511.627 511.627">
  <path d="M451.378 115.06c-3.613-3.617-7.898-5.424-12.847-5.424h-91.357V27.412c0-7.616-2.663-14.092-7.991-19.417C333.854 2.666 327.376 0 319.766 0H191.857c-7.611 0-14.084 2.663-19.414 7.994-5.33 5.329-7.992 11.802-7.992 19.417v82.224H73.089c-4.952 0-9.233 1.807-12.85 5.424-3.615 3.617-5.424 7.898-5.424 12.847v365.446c0 4.952 1.809 9.233 5.424 12.851 3.621 3.617 7.902 5.424 12.85 5.424h365.449c4.948 0 9.233-1.807 12.847-5.424 3.61-3.617 5.428-7.898 5.428-12.851V127.907c-.004-4.949-1.811-9.23-5.435-12.847zM201.002 45.679c0-2.474.905-4.617 2.712-6.423 1.809-1.809 3.949-2.714 6.423-2.714h18.272c2.474 0 4.615.905 6.423 2.714 1.807 1.807 2.712 3.949 2.712 6.423v27.41h36.54v-27.41c0-2.474.907-4.617 2.711-6.423 1.813-1.809 3.956-2.714 6.427-2.714h18.274c2.478 0 4.613.905 6.427 2.714 1.8 1.807 2.703 3.949 2.703 6.423v91.363c0 2.475-.903 4.615-2.703 6.424-1.813 1.809-3.949 2.712-6.427 2.712h-18.274c-2.471 0-4.62-.903-6.427-2.712-1.801-1.809-2.711-3.949-2.711-6.424v-27.41h-36.54v27.41c0 2.475-.905 4.615-2.712 6.424-1.809 1.809-3.949 2.712-6.423 2.712h-18.272c-2.474 0-4.615-.903-6.423-2.712-1.807-1.809-2.712-3.949-2.712-6.424V45.679zm219.262 429.406H310.632v-63.953c0-2.478-.907-4.62-2.707-6.427-1.817-1.807-3.949-2.711-6.427-2.711h-91.367c-2.474 0-4.615.904-6.423 2.711-1.807 1.807-2.712 3.949-2.712 6.427v63.953H91.36V146.178h73.098v9.135c0 7.613 2.662 14.084 7.992 19.414s11.803 7.994 19.414 7.994h127.909c7.61 0 14.089-2.664 19.41-7.994 5.328-5.33 7.994-11.801 7.994-19.414v-9.135h73.084v328.907h.003z"/>
  <path d="M155.313 365.449h-18.271c-2.474 0-4.615.903-6.423 2.714-1.809 1.807-2.712 3.949-2.712 6.42v18.274c0 2.478.903 4.609 2.712 6.427 1.809 1.807 3.949 2.707 6.423 2.707h18.271c2.474 0 4.616-.9 6.423-2.707 1.809-1.817 2.714-3.949 2.714-6.427v-18.274c0-2.471-.905-4.613-2.714-6.42-1.806-1.807-3.948-2.714-6.423-2.714zM155.313 292.362h-18.271c-2.474 0-4.615.903-6.423 2.71-1.809 1.804-2.712 3.949-2.712 6.42v18.274c0 2.478.903 4.613 2.712 6.427 1.809 1.807 3.949 2.711 6.423 2.711h18.271c2.474 0 4.616-.904 6.423-2.711 1.809-1.813 2.714-3.949 2.714-6.427v-18.274c0-2.471-.905-4.616-2.714-6.42-1.806-1.806-3.948-2.71-6.423-2.71zM228.407 292.362h-18.272c-2.474 0-4.615.903-6.423 2.71-1.807 1.807-2.712 3.949-2.712 6.42v18.274c0 2.478.905 4.613 2.712 6.427 1.809 1.807 3.949 2.711 6.423 2.711h18.272c2.473 0 4.615-.904 6.423-2.711 1.807-1.813 2.712-3.949 2.712-6.427v-18.274c0-2.471-.909-4.613-2.712-6.42-1.808-1.806-3.95-2.71-6.423-2.71zM155.313 219.271h-18.271c-2.474 0-4.615.903-6.423 2.712-1.809 1.807-2.712 3.949-2.712 6.424v18.271c0 2.475.903 4.615 2.712 6.424s3.949 2.712 6.423 2.712h18.271c2.474 0 4.616-.903 6.423-2.712 1.809-1.809 2.714-3.949 2.714-6.424v-18.271c0-2.475-.905-4.617-2.714-6.424-1.806-1.808-3.948-2.712-6.423-2.712zM374.585 365.449h-18.274c-2.471 0-4.613.903-6.42 2.714-1.811 1.807-2.707 3.949-2.707 6.42v18.274c0 2.478.896 4.609 2.707 6.427 1.807 1.807 3.949 2.707 6.42 2.707h18.274c2.478 0 4.616-.9 6.427-2.707 1.811-1.817 2.707-3.949 2.707-6.427v-18.274c0-2.471-.903-4.613-2.707-6.42-1.811-1.807-3.95-2.714-6.427-2.714zM301.498 292.362h-18.274c-2.471 0-4.62.903-6.427 2.71-1.801 1.807-2.711 3.949-2.711 6.42v18.274c0 2.478.907 4.613 2.711 6.427 1.813 1.807 3.956 2.711 6.427 2.711h18.274c2.478 0 4.613-.904 6.427-2.711 1.8-1.813 2.703-3.949 2.703-6.427v-18.274c0-2.471-.903-4.613-2.703-6.42-1.811-1.806-3.949-2.71-6.427-2.71zM228.407 219.271h-18.272c-2.474 0-4.615.903-6.423 2.712-1.807 1.807-2.712 3.949-2.712 6.424v18.271c0 2.475.905 4.615 2.712 6.424 1.809 1.809 3.949 2.712 6.423 2.712h18.272c2.473 0 4.615-.903 6.423-2.712 1.807-1.809 2.712-3.949 2.712-6.424v-18.271c0-2.475-.909-4.613-2.712-6.424-1.808-1.808-3.95-2.712-6.423-2.712zM374.585 292.362h-18.274c-2.471 0-4.613.903-6.42 2.71-1.811 1.804-2.707 3.949-2.707 6.42v18.274c0 2.478.896 4.613 2.707 6.427 1.807 1.807 3.949 2.711 6.42 2.711h18.274c2.478 0 4.616-.904 6.427-2.711 1.811-1.813 2.707-3.949 2.707-6.427v-18.274c0-2.471-.903-4.613-2.707-6.42-1.811-1.806-3.95-2.71-6.427-2.71zM301.498 219.271h-18.274c-2.471 0-4.62.903-6.427 2.712-1.801 1.807-2.711 3.949-2.711 6.424v18.271c0 2.475.907 4.615 2.711 6.424 1.813 1.809 3.956 2.712 6.427 2.712h18.274c2.478 0 4.613-.903 6.427-2.712 1.8-1.809 2.703-3.949 2.703-6.424v-18.271c0-2.475-.903-4.613-2.703-6.424-1.811-1.808-3.949-2.712-6.427-2.712zM347.177 246.678c0 2.475.903 4.615 2.71 6.424 1.808 1.809 3.949 2.712 6.42 2.712h18.274c2.478 0 4.613-.903 6.427-2.712 1.808-1.809 2.711-3.949 2.711-6.424v-18.271c0-2.475-.903-4.613-2.711-6.424-1.813-1.809-3.949-2.712-6.427-2.712h-18.274c-2.471 0-4.612.903-6.42 2.712-1.807 1.807-2.71 3.949-2.71 6.424v18.271z"/>
</svg>
