<svg xmlns="http://www.w3.org/2000/svg" viewBox="0 0 438.536 438.536">
  <path d="M414.41 24.123C398.333 8.042 378.963 0 356.315 0H82.228C59.58 0 40.21 8.042 24.126 24.123 8.045 40.207.003 59.576.003 82.225v274.084c0 22.647 8.042 42.018 24.123 58.102 16.084 16.084 35.454 24.126 58.102 24.126h274.084c22.648 0 42.018-8.042 58.095-24.126 16.084-16.084 24.126-35.454 24.126-58.102V82.225c-.001-22.649-8.043-42.021-24.123-58.102zm-48.961 323.049c0 4.948-1.811 9.232-5.421 12.847-3.621 3.62-7.905 5.427-12.854 5.427h-36.542c-4.948 0-9.233-1.807-12.847-5.427-3.614-3.614-5.428-7.898-5.428-12.847v-91.358H146.184v91.358c0 4.948-1.809 9.232-5.424 12.847-3.621 3.62-7.904 5.427-12.85 5.427H91.363c-4.948 0-9.229-1.807-12.847-5.427-3.615-3.614-5.424-7.898-5.424-12.847V91.36c0-4.949 1.809-9.233 5.424-12.847 3.617-3.618 7.898-5.428 12.847-5.428h36.544c4.95 0 9.233 1.81 12.85 5.428 3.615 3.614 5.424 7.898 5.424 12.847v91.36h146.178V91.36c0-4.949 1.807-9.233 5.421-12.847 3.62-3.618 7.905-5.428 12.847-5.428h36.549c4.948 0 9.232 1.81 12.854 5.428 3.613 3.614 5.421 7.898 5.421 12.847v255.812z"/>
</svg>
