<svg xmlns="http://www.w3.org/2000/svg" viewBox="0 0 438.533 438.533">
  <path d="M431.398 210.987L363.444 53.388c-1.903-4.762-5.373-8.757-10.421-11.991-5.041-3.239-10.037-4.854-14.985-4.854H100.499c-4.949 0-9.945 1.615-14.987 4.854-5.042 3.234-8.52 7.229-10.422 11.991L7.137 210.987C2.378 222.598 0 234.302 0 246.102V383.72c0 4.949 1.807 9.23 5.424 12.848 3.619 3.613 7.902 5.424 12.851 5.424h401.991c4.948 0 9.229-1.811 12.847-5.424 3.614-3.617 5.421-7.898 5.421-12.848V246.102c-.001-11.8-2.373-23.504-7.136-35.115zm-139.327 26.552l-27.113 54.819h-91.367l-27.123-54.819H56.247c.193-.38.428-1.14.715-2.282.287-1.14.525-1.903.715-2.283l60.526-141.607h202.138l60.521 141.607c.194.575.431 1.335.711 2.283.288.947.524 1.707.719 2.282h-90.221z"/>
</svg>
