<svg xmlns="http://www.w3.org/2000/svg" viewBox="0 0 511.626 511.626">
  <path d="M502.49 383.722H9.135c-2.474 0-4.615.896-6.423 2.707C.903 388.238 0 390.378 0 392.854v54.82c0 2.471.903 4.609 2.712 6.42 1.809 1.813 3.949 2.714 6.423 2.714H502.49c2.478 0 4.616-.903 6.427-2.714 1.81-1.811 2.71-3.949 2.71-6.42v-54.82c0-2.477-.903-4.616-2.71-6.426-1.811-1.803-3.95-2.706-6.427-2.706zM100.5 347.169c2.473 0 4.615-.896 6.423-2.707 1.807-1.807 2.712-3.949 2.712-6.427V173.589c0-2.475-.905-4.617-2.712-6.427-1.809-1.806-3.951-2.709-6.423-2.709-2.667 0-4.854.854-6.567 2.568l-82.226 82.224c-1.709 1.715-2.568 3.901-2.568 6.567 0 2.665.855 4.854 2.568 6.565l82.226 82.229c1.713 1.711 3.9 2.563 6.567 2.563zM502.49 164.453H191.86c-2.474 0-4.615.9-6.423 2.709-1.809 1.81-2.712 3.952-2.712 6.427v54.817c0 2.473.903 4.615 2.712 6.424 1.809 1.803 3.949 2.712 6.423 2.712h310.63c2.478 0 4.616-.905 6.427-2.712 1.81-1.809 2.71-3.951 2.71-6.424v-54.817c0-2.475-.903-4.617-2.71-6.427-1.811-1.806-3.95-2.709-6.427-2.709zM502.49 274.082H191.86c-2.474 0-4.615.91-6.423 2.714s-2.712 3.953-2.712 6.424v54.815c0 2.478.903 4.62 2.712 6.427 1.809 1.808 3.949 2.707 6.423 2.707h310.63c2.478 0 4.616-.896 6.427-2.707 1.81-1.807 2.71-3.949 2.71-6.427V283.22c0-2.471-.903-4.613-2.71-6.424-1.811-1.804-3.95-2.714-6.427-2.714zM508.917 57.529c-1.811-1.805-3.949-2.712-6.427-2.712H9.135c-2.474 0-4.615.903-6.423 2.712S0 61.479 0 63.953v54.817c0 2.475.903 4.615 2.712 6.424s3.949 2.712 6.423 2.712H502.49c2.478 0 4.616-.9 6.427-2.712 1.81-1.809 2.71-3.949 2.71-6.424V63.953c-.001-2.474-.904-4.615-2.71-6.424z"/>
</svg>
