<svg xmlns="http://www.w3.org/2000/svg" viewBox="0 0 494.212 494.212">
  <path d="M483.627 401.147L379.99 297.511c-7.416-7.043-16.084-10.567-25.981-10.567-10.088 0-19.222 4.093-27.401 12.278l-73.087-73.087 35.98-35.976c2.663-2.667 3.997-5.901 3.997-9.71 0-3.806-1.334-7.042-3.997-9.707.377.381 1.52 1.569 3.423 3.571 1.902 2 3.142 3.188 3.72 3.571.571.378 1.663 1.328 3.278 2.853 1.625 1.521 2.901 2.475 3.856 2.853.958.378 2.245.95 3.867 1.713 1.615.761 3.183 1.283 4.709 1.57 1.522.284 3.237.428 5.14.428 7.228 0 13.703-2.665 19.411-7.995.574-.571 2.286-2.14 5.14-4.712 2.861-2.574 4.805-4.377 5.855-5.426 1.047-1.047 2.621-2.806 4.716-5.28 2.091-2.475 3.569-4.57 4.425-6.283.853-1.711 1.708-3.806 2.57-6.28.855-2.474 1.279-4.949 1.279-7.423 0-7.614-2.665-14.087-7.994-19.417L236.41 8.003c-5.33-5.33-11.802-7.994-19.413-7.994-2.474 0-4.948.428-7.426 1.283-2.475.854-4.567 1.713-6.28 2.568-1.714.855-3.806 2.331-6.28 4.427-2.474 2.094-4.233 3.665-5.282 4.712-1.047 1.049-2.855 3-5.424 5.852-2.572 2.856-4.143 4.57-4.712 5.142-5.327 5.708-7.994 12.181-7.994 19.414 0 1.903.144 3.616.431 5.137.288 1.525.809 3.094 1.571 4.714.76 1.618 1.331 2.903 1.713 3.853.378.95 1.328 2.24 2.852 3.858 1.525 1.615 2.475 2.712 2.856 3.284.378.575 1.571 1.809 3.567 3.715 2 1.902 3.193 3.049 3.571 3.427-2.664-2.667-5.901-3.999-9.707-3.999s-7.043 1.331-9.707 3.999l-99.371 99.357c-2.667 2.666-3.999 5.901-3.999 9.707 0 3.809 1.331 7.045 3.999 9.71-.381-.381-1.524-1.574-3.427-3.571-1.902-2-3.14-3.189-3.711-3.571-.571-.378-1.665-1.328-3.283-2.852-1.619-1.521-2.905-2.474-3.855-2.853-.95-.378-2.235-.95-3.854-1.714-1.615-.76-3.186-1.282-4.71-1.569-1.521-.284-3.234-.428-5.137-.428-7.233 0-13.709 2.664-19.417 7.994-.568.57-2.284 2.144-5.138 4.712-2.856 2.572-4.803 4.377-5.852 5.426-1.047 1.047-2.615 2.806-4.709 5.281-2.093 2.474-3.571 4.568-4.426 6.283-.856 1.709-1.709 3.806-2.568 6.28C.432 212.061 0 214.535 0 217.01c0 7.614 2.665 14.082 7.994 19.414l116.485 116.481c5.33 5.328 11.803 7.991 19.414 7.991 2.474 0 4.948-.422 7.426-1.277 2.475-.855 4.567-1.714 6.28-2.569s3.806-2.327 6.28-4.425 4.233-3.665 5.28-4.716c1.049-1.051 2.856-2.995 5.426-5.855 2.572-2.851 4.141-4.565 4.712-5.14 5.327-5.709 7.994-12.184 7.994-19.411 0-1.902-.144-3.617-.431-5.14-.288-1.526-.809-3.094-1.571-4.716-.76-1.615-1.331-2.902-1.713-3.854-.378-.951-1.328-2.238-2.852-3.86-1.525-1.615-2.475-2.71-2.856-3.285-.38-.571-1.571-1.807-3.567-3.717-2.002-1.902-3.193-3.045-3.571-3.429 2.663 2.669 5.902 4.001 9.707 4.001 3.806 0 7.043-1.332 9.707-4.001l35.976-35.974 73.086 73.087c-8.186 8.186-12.278 17.312-12.278 27.401 0 10.283 3.621 18.843 10.849 25.7L401.42 483.643c7.042 7.035 15.604 10.561 25.693 10.561 9.896 0 18.555-3.525 25.981-10.561l30.546-30.841c7.043-7.043 10.571-15.605 10.571-25.693.001-9.878-3.527-18.543-10.584-25.962z"/>
</svg>
