<svg xmlns="http://www.w3.org/2000/svg" viewBox="0 0 511.626 511.626">
  <path d="M54.818 200.999c-15.23 0-28.171 5.327-38.832 15.987C5.33 227.642 0 240.583 0 255.813c0 15.223 5.33 28.172 15.99 38.83 10.66 10.656 23.604 15.984 38.832 15.984 15.225 0 28.167-5.328 38.828-15.984 10.657-10.657 15.987-23.606 15.987-38.83 0-15.23-5.33-28.171-15.99-38.828-10.658-10.656-23.601-15.986-38.829-15.986zM54.821 54.817c-15.23 0-28.171 5.33-38.832 15.987C5.333 81.464.003 94.405.003 109.632c0 15.229 5.327 28.171 15.986 38.831 10.66 10.657 23.604 15.985 38.832 15.985 15.225 0 28.167-5.329 38.828-15.985 10.657-10.66 15.987-23.603 15.987-38.831 0-15.227-5.33-28.168-15.987-38.828-10.656-10.657-23.598-15.987-38.828-15.987zM54.821 347.18c-15.23 0-28.175 5.325-38.832 15.981C5.333 373.824.003 386.767.003 401.989c0 15.235 5.327 28.171 15.986 38.834 10.66 10.657 23.604 15.985 38.832 15.985 15.225 0 28.167-5.328 38.828-15.985 10.657-10.663 15.987-23.599 15.987-38.834 0-15.223-5.33-28.172-15.987-38.828-10.656-10.656-23.598-15.981-38.828-15.981zM508.917 75.8c-1.813-1.803-3.949-2.708-6.427-2.708H155.313c-2.473 0-4.615.902-6.423 2.708-1.807 1.812-2.712 3.949-2.712 6.423v54.821c0 2.475.905 4.611 2.712 6.424 1.809 1.805 3.951 2.708 6.423 2.708H502.49c2.478 0 4.616-.9 6.427-2.708 1.81-1.812 2.71-3.949 2.71-6.424v-54.82c-.001-2.474-.904-4.615-2.71-6.424zM502.49 219.271H155.313c-2.473 0-4.615.9-6.423 2.712-1.807 1.807-2.712 3.949-2.712 6.423v54.819c0 2.472.905 4.613 2.712 6.421 1.809 1.813 3.951 2.714 6.423 2.714H502.49c2.478 0 4.616-.9 6.427-2.714 1.81-1.808 2.71-3.949 2.71-6.421v-54.819c0-2.474-.903-4.62-2.71-6.423-1.814-1.808-3.95-2.712-6.427-2.712zM502.49 365.447H155.313c-2.473 0-4.615.903-6.423 2.714-1.807 1.81-2.712 3.949-2.712 6.42V429.4c0 2.478.905 4.616 2.712 6.427 1.809 1.807 3.951 2.707 6.423 2.707H502.49c2.478 0 4.616-.9 6.427-2.707 1.81-1.811 2.71-3.949 2.71-6.427v-54.819c0-2.471-.903-4.617-2.71-6.42-1.814-1.804-3.95-2.714-6.427-2.714z"/>
</svg>
