<svg xmlns="http://www.w3.org/2000/svg" viewBox="0 0 511.626 511.627">
  <path d="M498.208 68.235c-8.945-8.947-19.701-13.418-32.261-13.418H45.682c-12.562 0-23.318 4.471-32.264 13.418C4.471 77.184 0 87.935 0 100.499v310.633c0 12.566 4.471 23.312 13.418 32.265 8.945 8.945 19.701 13.414 32.264 13.414h420.266c12.56 0 23.315-4.469 32.261-13.414 8.949-8.953 13.418-19.705 13.418-32.265V100.499c-.001-12.564-4.469-23.319-13.419-32.264zm-23.13 342.89c0 2.475-.903 4.616-2.71 6.424-1.804 1.81-3.949 2.706-6.42 2.706H45.682c-2.474 0-4.615-.896-6.423-2.706-1.809-1.808-2.712-3.949-2.712-6.424V173.588c0-2.475.903-4.617 2.712-6.427 1.809-1.806 3.949-2.709 6.423-2.709h420.266c2.471 0 4.613.9 6.42 2.709 1.807 1.81 2.71 3.952 2.71 6.427v237.537z"/>
  <path d="M100.5 347.179H82.228c-2.474 0-4.615.896-6.423 2.703-1.807 1.811-2.712 3.953-2.712 6.427v18.271c0 2.478.905 4.616 2.712 6.427 1.809 1.81 3.949 2.707 6.423 2.707H100.5c2.473 0 4.615-.897 6.423-2.707 1.807-1.811 2.712-3.949 2.712-6.427v-18.271c0-2.474-.905-4.616-2.712-6.427-1.808-1.8-3.95-2.703-6.423-2.703zM100.5 274.081H82.228c-2.474 0-4.615.91-6.423 2.714-1.807 1.811-2.712 3.953-2.712 6.424v18.273c0 2.479.905 4.61 2.712 6.428 1.809 1.8 3.949 2.706 6.423 2.706H100.5c2.473 0 4.615-.906 6.423-2.706 1.807-1.817 2.712-3.949 2.712-6.428v-18.273c0-2.471-.905-4.62-2.712-6.424-1.808-1.804-3.95-2.714-6.423-2.714zM100.5 200.998H82.228c-2.474 0-4.615.902-6.423 2.708-1.807 1.812-2.712 3.949-2.712 6.423v18.276c0 2.473.905 4.615 2.712 6.424 1.809 1.803 3.949 2.712 6.423 2.712H100.5c2.473 0 4.615-.905 6.423-2.712 1.807-1.809 2.712-3.951 2.712-6.424v-18.276c0-2.474-.905-4.615-2.712-6.423-1.808-1.804-3.95-2.708-6.423-2.708zM429.399 347.179H155.313c-2.473 0-4.615.896-6.423 2.703-1.807 1.811-2.712 3.953-2.712 6.427v18.271c0 2.478.905 4.616 2.712 6.427 1.809 1.81 3.951 2.707 6.423 2.707h274.089c2.479 0 4.617-.897 6.428-2.707 1.803-1.811 2.707-3.949 2.707-6.427v-18.271c0-2.474-.907-4.616-2.711-6.427-1.807-1.807-3.95-2.703-6.427-2.703zM429.399 274.081H155.313c-2.473 0-4.615.91-6.423 2.714-1.807 1.811-2.712 3.953-2.712 6.424v18.273c0 2.479.905 4.61 2.712 6.428 1.809 1.8 3.951 2.706 6.423 2.706h274.089c2.479 0 4.617-.906 6.428-2.706 1.803-1.817 2.707-3.949 2.707-6.428v-18.273c0-2.471-.907-4.62-2.711-6.424-1.807-1.804-3.95-2.714-6.427-2.714zM429.399 200.998H155.313c-2.473 0-4.615.902-6.423 2.708-1.807 1.812-2.712 3.949-2.712 6.423v18.276c0 2.473.905 4.619 2.712 6.424 1.809 1.803 3.951 2.712 6.423 2.712h274.089c2.479 0 4.624-.905 6.428-2.712 1.803-1.809 2.707-3.951 2.707-6.424v-18.276c0-2.474-.907-4.615-2.711-6.423-1.807-1.804-3.95-2.708-6.427-2.708z"/>
</svg>
