<svg xmlns="http://www.w3.org/2000/svg" viewBox="0 0 467.374 467.374">
  <path d="M459.657 82.222c0-5.136-1.704-9.419-5.133-12.843l-56.531-56.531c-3.425-3.427-7.706-5.14-12.847-5.14-5.144 0-9.421 1.713-12.847 5.14L5.14 380.005C1.709 383.434 0 387.719 0 392.858c0 5.141 1.709 9.418 5.14 12.847l56.529 56.527c3.431 3.429 7.708 5.141 12.85 5.141 5.137 0 9.419-1.704 12.847-5.141l367.162-367.16c3.425-3.43 5.129-7.708 5.129-12.85zm-127.619 83.655l-30.546-30.55 83.651-83.654 30.546 30.549-83.651 83.655zM65.384 73.087l8.564-27.978 27.977-8.564-27.977-8.566L65.384.001l-8.566 27.978-27.978 8.566 27.978 8.564zM139.61 108.494l17.133 55.961 17.133-55.961 55.959-17.133-55.959-17.131-17.133-55.961L139.61 74.23 83.651 91.361zM439.392 210.7l-8.563-27.977-8.562 27.977-27.98 8.565 27.98 8.565 8.562 27.975 8.563-27.975 27.982-8.565zM248.106 73.087l8.566-27.978 27.976-8.564-27.976-8.566L248.106.001l-8.562 27.978-27.98 8.566 27.98 8.564z"/>
</svg>
