<svg xmlns="http://www.w3.org/2000/svg" viewBox="0 0 502.496 502.497">
  <path d="M251.249 127.907c17.7 0 32.781-6.232 45.254-18.7 12.467-12.467 18.699-27.554 18.699-45.253 0-17.705-6.232-32.783-18.699-45.255C284.029 6.233 268.948 0 251.249 0c-17.705 0-32.79 6.23-45.254 18.699-12.465 12.469-18.699 27.55-18.699 45.255 0 17.703 6.23 32.789 18.699 45.253 12.467 12.464 27.554 18.7 45.254 18.7zM381.438 153.029c-10.663-10.657-23.599-15.987-38.827-15.987H159.889c-15.23 0-28.171 5.327-38.831 15.987-10.657 10.66-15.987 23.604-15.987 38.831v118.776c0 7.611 2.663 14.079 7.993 19.407s11.803 7.994 19.414 7.994c7.614 0 14.087-2.666 19.417-7.994 5.327-5.328 7.994-11.796 7.994-19.407V210.134h18.271v260.379c0 8.754 3.144 16.275 9.423 22.559 6.28 6.276 13.796 9.418 22.554 9.418s16.278-3.142 22.557-9.418c6.28-6.283 9.42-13.802 9.42-22.559V338.038h18.27V470.52c0 8.75 3.141 16.275 9.421 22.552 6.279 6.283 13.802 9.425 22.556 9.425 8.76 0 16.279-3.142 22.559-9.425 6.283-6.283 9.418-13.798 9.418-22.552V210.134h18.274v100.495c0 7.618 2.665 14.086 7.994 19.411 5.328 5.331 11.799 7.994 19.41 7.994 7.61 0 14.093-2.663 19.417-7.994 5.328-5.325 7.994-11.793 7.994-19.411V191.86c.003-15.23-5.332-28.171-15.989-38.831z"/>
</svg>
