<svg xmlns="http://www.w3.org/2000/svg" viewBox="0 0 511.626 511.627">
  <path d="M301.492 347.177h-91.361c-7.614 0-14.084 2.662-19.414 7.994-5.33 5.331-7.992 11.8-7.992 19.41v54.823c0 7.611 2.662 14.089 7.992 19.417 5.327 5.328 11.8 7.987 19.414 7.987h91.361c7.618 0 14.086-2.662 19.418-7.987 5.325-5.331 7.994-11.806 7.994-19.417v-54.823c0-7.61-2.662-14.085-7.994-19.41s-11.8-7.994-19.418-7.994zM118.771 347.177H27.406c-7.611 0-14.084 2.662-19.414 7.994C2.663 360.502 0 366.974 0 374.585v54.826c0 7.61 2.663 14.086 7.992 19.41 5.33 5.332 11.803 7.991 19.414 7.991h91.365c7.611 0 14.084-2.663 19.414-7.991 5.33-5.324 7.992-11.8 7.992-19.41v-54.826c0-7.611-2.662-14.083-7.992-19.411s-11.803-7.997-19.414-7.997zM118.771 54.814H27.406c-7.611 0-14.084 2.663-19.414 7.993C2.663 68.137 0 74.61 0 82.221v54.821c0 7.616 2.663 14.091 7.992 19.417 5.33 5.327 11.803 7.994 19.414 7.994h91.365c7.611 0 14.084-2.667 19.414-7.994s7.992-11.798 7.992-19.414v-54.82c0-7.611-2.662-14.084-7.992-19.417-5.33-5.328-11.803-7.994-19.414-7.994zM301.492 200.999h-91.361c-7.614 0-14.084 2.664-19.414 7.994s-7.992 11.798-7.992 19.414v54.823c0 7.61 2.662 14.078 7.992 19.406 5.327 5.329 11.8 7.994 19.414 7.994h91.361c7.618 0 14.086-2.665 19.418-7.994 5.325-5.328 7.994-11.796 7.994-19.406v-54.823c0-7.616-2.662-14.087-7.994-19.414s-11.8-7.994-19.418-7.994zM118.771 200.999H27.406c-7.611 0-14.084 2.664-19.414 7.994C2.663 214.32 0 220.791 0 228.407v54.823c0 7.61 2.663 14.078 7.992 19.406 5.33 5.329 11.803 7.994 19.414 7.994h91.365c7.611 0 14.084-2.665 19.414-7.994 5.33-5.328 7.992-11.796 7.992-19.406v-54.823c0-7.616-2.662-14.087-7.992-19.414s-11.803-7.994-19.414-7.994zM503.632 62.811c-5.332-5.327-11.8-7.993-19.41-7.993h-91.365c-7.61 0-14.086 2.663-19.417 7.993-5.325 5.33-7.987 11.803-7.987 19.414v54.821c0 7.616 2.662 14.083 7.987 19.414 5.331 5.327 11.807 7.994 19.417 7.994h91.365c7.61 0 14.078-2.667 19.41-7.994s7.994-11.798 7.994-19.414V82.225c0-7.612-2.662-14.084-7.994-19.414zM301.492 54.818h-91.361c-7.614 0-14.084 2.663-19.414 7.993s-7.992 11.803-7.992 19.414v54.821c0 7.616 2.662 14.083 7.992 19.414 5.327 5.327 11.8 7.994 19.414 7.994h91.361c7.618 0 14.086-2.664 19.418-7.994 5.325-5.327 7.994-11.798 7.994-19.414V82.225c0-7.611-2.662-14.084-7.994-19.414-5.332-5.327-11.8-7.993-19.418-7.993zM484.222 200.999h-91.365c-7.61 0-14.086 2.664-19.417 7.994-5.325 5.33-7.987 11.798-7.987 19.414v54.823c0 7.61 2.662 14.078 7.987 19.406 5.331 5.329 11.807 7.994 19.417 7.994h91.365c7.61 0 14.085-2.665 19.41-7.994 5.332-5.328 7.994-11.796 7.994-19.406v-54.823c0-7.616-2.662-14.087-7.994-19.414-5.332-5.33-11.799-7.994-19.41-7.994zM484.222 347.177h-91.365c-7.61 0-14.086 2.662-19.417 7.994-5.325 5.331-7.987 11.8-7.987 19.41v54.823c0 7.611 2.662 14.089 7.987 19.417 5.331 5.328 11.807 7.987 19.417 7.987h91.365c7.61 0 14.085-2.662 19.41-7.987 5.332-5.331 7.994-11.806 7.994-19.417v-54.823c0-7.61-2.662-14.085-7.994-19.41s-11.799-7.994-19.41-7.994z"/>
</svg>
