<svg xmlns="http://www.w3.org/2000/svg" viewBox="0 0 509.054 509.054">
  <path d="M75.377 0H45.111L6.284 36.258l20.268 21.7c7.994-7.041 12.753-12.185 14.277-15.417h.571v3.427c0 7.613-.05 19.126-.144 34.545-.096 15.417-.144 27.027-.144 34.831h-30.55v28.266h95.646v-28.266H75.377V0zM505.489 73.232c-1.816-1.809-3.952-2.712-6.43-2.712H151.886c-2.474 0-4.611.903-6.423 2.712-1.805 1.809-2.708 3.949-2.708 6.424v54.817c0 2.475.9 4.615 2.708 6.424 1.812 1.807 3.949 2.712 6.423 2.712h347.176c2.478 0 4.617-.905 6.427-2.712 1.808-1.809 2.707-3.949 2.707-6.424V79.656c.004-2.474-.899-4.615-2.707-6.424zM73.664 420.834l27.123-32.833v-25.125H5.712v43.396h30.262V391.14c3.046 0 7.661-.086 13.85-.277 6.182-.195 10.8-.288 13.846-.288v.288a164.307 164.307 0 0 0-10.566 10.992c-3.427 3.904-7.471 9.041-12.135 15.409-4.661 6.379-7.751 10.521-9.275 12.423l7.421 15.988c19.985-1.526 29.979 3.802 29.979 15.988 0 5.328-2.046 9.373-6.139 12.128-4.089 2.766-8.897 4.145-14.417 4.145-10.848 0-20.937-4.281-30.262-12.85L1.998 490.211c12.562 12.562 28.931 18.843 49.109 18.843 15.416 0 28.31-4.374 38.688-13.131 10.373-8.758 15.559-20.749 15.559-35.974 0-9.709-2.859-18.083-8.562-25.129-5.712-7.036-13.417-11.704-23.128-13.986zM75.942 298.066h-36.26c.193-4.76 3.571-9.756 10.138-14.985 6.567-5.232 13.747-10.037 21.555-14.417 7.801-4.381 14.939-10.514 21.412-18.412 6.472-7.9 9.707-16.608 9.707-26.125 0-13.515-4.757-24.222-14.273-32.121-9.514-7.898-21.223-11.849-35.117-11.849-11.042 0-21.083 2.712-30.124 8.138-9.04 5.424-15.843 12.991-20.412 22.701l24.27 16.844c6.663-11.042 14.371-16.56 23.125-16.56 4.762 0 8.52 1.285 11.281 3.854 2.757 2.574 4.141 6.235 4.141 10.994 0 4.377-2.238 8.66-6.711 12.847-4.475 4.187-9.851 8.326-16.134 12.419-6.28 4.093-12.563 8.615-18.842 13.563-6.28 4.949-11.661 11.417-16.134 19.411-4.471 7.994-6.708 16.847-6.708 26.553 0 3.425.571 8.565 1.711 15.417H105.92v-45.406H75.942v17.134zM499.06 362.876H151.886c-2.663 0-4.853.858-6.563 2.569-1.713 1.712-2.568 3.901-2.568 6.564v54.819c0 2.475.9 4.616 2.708 6.423 1.812 1.808 3.949 2.711 6.423 2.711h347.176c2.478 0 4.617-.896 6.427-2.711 1.808-1.807 2.707-3.948 2.707-6.423V372.01c0-2.471-.906-4.613-2.707-6.42-1.813-1.808-3.952-2.714-6.429-2.714zM499.06 216.698H151.886c-2.663 0-4.853.855-6.563 2.568-1.713 1.713-2.568 3.903-2.568 6.567v54.818c0 2.475.9 4.613 2.708 6.424 1.812 1.81 3.949 2.714 6.423 2.714h347.176c2.478 0 4.617-.904 6.427-2.714 1.808-1.811 2.707-3.949 2.707-6.424v-54.818c0-2.474-.906-4.615-2.707-6.423-1.813-1.808-3.952-2.712-6.429-2.712z"/>
</svg>
