<svg xmlns="http://www.w3.org/2000/svg" viewBox="0 0 469.09 469.089">
  <path d="M205.566 181.586L11.138 376.013C3.906 383.244.288 391.906.288 401.994c0 10.28 3.617 18.842 10.85 25.7L41.4 458.529c7.426 7.043 16.086 10.561 25.981 10.561 10.089 0 18.654-3.518 25.697-10.561l194.709-194.715c-18.647-7.426-35.156-18.322-49.532-32.691-14.368-14.372-25.263-30.884-32.689-49.537zM98.504 396.57c-3.621 3.614-7.903 5.425-12.85 5.425-4.949 0-9.231-1.811-12.847-5.425-3.617-3.617-5.426-7.898-5.426-12.847 0-4.944 1.809-9.232 5.426-12.854 3.616-3.61 7.895-5.421 12.847-5.421 4.95 0 9.233 1.811 12.85 5.421 3.615 3.621 5.424 7.909 5.424 12.854 0 4.948-1.809 9.23-5.424 12.847zM466.379 132.477c-1.618-1.906-3.856-2.856-6.707-2.856-1.711 0-8.419 3.381-20.129 10.138-11.704 6.755-24.603 14.462-38.685 23.124-14.089 8.663-21.607 13.278-22.556 13.85l-55.106-30.55V82.229l83.651-48.254c3.045-2.093 4.568-4.758 4.568-7.994 0-3.234-1.523-5.898-4.568-7.992-8.378-5.712-18.61-10.138-30.69-13.278C364.07 1.571 352.504 0 341.467 0c-35.211 0-65.332 12.518-90.358 37.546-25.035 25.026-37.544 55.149-37.544 90.36 0 35.212 12.516 65.334 37.544 90.362 25.026 25.026 55.147 37.544 90.358 37.544 26.84 0 51.442-7.953 73.806-23.842 22.36-15.893 38.021-36.592 46.966-62.097 4.374-12.751 6.563-22.841 6.563-30.262.007-2.848-.808-5.228-2.423-7.134z"/>
</svg>
