<svg xmlns="http://www.w3.org/2000/svg" viewBox="0 0 548.176 548.175">
  <path d="M118.774 383.722h310.632c12.562 0 23.312-4.47 32.257-13.422 8.949-8.949 13.422-19.698 13.422-32.258V137.046c0-12.563-4.473-23.313-13.422-32.261-8.945-8.947-19.694-13.418-32.257-13.418H118.774c-12.562 0-23.318 4.471-32.264 13.418-8.947 8.947-13.418 19.698-13.418 32.261v200.997c0 12.56 4.471 23.312 13.418 32.258 8.946 8.945 19.702 13.421 32.264 13.421zm-9.14-246.676c0-2.474.905-4.619 2.713-6.423 1.811-1.806 3.953-2.712 6.427-2.712h310.625c2.478 0 4.619.904 6.427 2.712 1.803 1.809 2.707 3.949 2.707 6.423v200.997c0 2.471-.904 4.617-2.707 6.42-1.808 1.808-3.949 2.714-6.427 2.714H118.771c-2.475 0-4.617-.903-6.427-2.714-1.805-1.81-2.71-3.949-2.71-6.42V137.046zM502.496 401.997H0v27.404c0 7.618 4.471 14.086 13.417 19.414 8.951 5.328 19.702 7.994 32.264 7.994h456.815c12.56 0 23.312-2.666 32.258-7.994s13.422-11.796 13.422-19.414v-27.404h-45.68zm-205.568 27.404h-45.681c-3.042 0-4.565-1.526-4.565-4.568 0-3.046 1.523-4.575 4.565-4.575h45.681c3.045 0 4.571 1.529 4.571 4.575 0 3.042-1.526 4.568-4.571 4.568z"/>
</svg>
