<svg xmlns="http://www.w3.org/2000/svg" viewBox="0 0 511.617 511.616">
  <path d="M509.333 136.583c-1.526-11.038-3.805-22.845-6.851-35.408-3.046-12.559-7.563-23.219-13.559-31.977-5.996-8.754-12.71-13.134-20.13-13.134-.855-3.712-4.996-3.284-12.422 1.286-7.423 4.569-10.899 6.094-10.417 4.569.472-1.524-2.102.378-7.714 5.708-5.615 5.33-8.418 7.994-8.418 7.994l-8.426 8.42c-7.419 7.044-18.22 12.419-32.401 16.13-14.181 3.718-29.738 5.996-46.678 6.854-16.94.859-33.928 1.431-50.963 1.714a772.233 772.233 0 0 0-51.249 2.568c-17.13 1.429-30.93 3.855-41.396 7.281-20.749 6.851-40.163 15.942-58.245 27.268-18.083 11.325-34.307 24.554-48.678 39.687-14.37 15.131-25.697 32.69-33.974 52.676-8.276 19.98-12.419 40.921-12.419 62.809 0 10.089.855 19.985 2.568 29.694.381 1.902 1.902 6.091 4.57 12.562 2.666 6.475 3.997 10.089 3.997 10.855 0 3.61-2.95 8.186-8.852 13.698-5.901 5.521-12.37 10.852-19.414 15.988-7.042 5.137-13.512 11.372-19.414 18.699C2.952 409.857 0 416.853 0 423.512c0 1.335.14 2.614.428 3.856.288 1.239.575 2.14.859 2.707.284.575.81 1.523 1.569 2.851a69.717 69.717 0 0 1 1.714 3.142c3.237 5.517 5.806 9.518 7.708 11.991 1.902 2.472 4.851 4.754 8.85 6.852 3.994 2.091 8.852 3.138 14.56 3.138 5.523 0 11.231-3.045 17.133-9.13 5.896-6.088 10.895-12.758 14.987-19.985 4.09-7.231 8.376-13.895 12.847-19.985 4.471-6.088 8.232-9.134 11.276-9.134 4.377 0 13.512 3.524 27.408 10.567 13.894 7.046 22.27 11.04 25.125 11.995 26.265 8.945 53.481 13.418 81.653 13.418 42.638 0 84.316-10.287 125.051-30.841 41.688-20.745 75.705-46.247 102.069-76.513 26.364-30.269 43.92-66.711 52.678-109.353 3.798-18.653 5.701-37.019 5.701-55.102.001-7.233-.759-16.369-2.283-27.403zm-149.322 96.78c-3.617 3.617-7.905 5.426-12.854 5.426-34.64 0-64.471 4.949-89.502 14.844-25.025 9.896-50.578 26.647-76.655 50.247-3.802 3.617-10.179 9.896-19.126 18.843-8.945 8.948-15.99 15.704-21.126 20.27-3.999 3.617-8.28 5.427-12.85 5.427-4.952 0-9.233-1.81-12.851-5.427-3.617-3.607-5.424-7.898-5.424-12.847 0-4.569 1.807-8.844 5.424-12.848 23.22-25.696 45.633-46.586 67.237-62.666 21.604-16.081 46.302-28.833 74.091-38.257 27.784-9.423 58.047-14.133 90.783-14.133 4.948 0 9.236 1.809 12.854 5.424 3.613 3.621 5.424 7.903 5.424 12.85-.001 4.948-1.804 9.231-5.425 12.847z"/>
</svg>
