<svg xmlns="http://www.w3.org/2000/svg" viewBox="0 0 438.533 438.533">
  <path d="M409.133 109.203c-19.608-33.592-46.205-60.189-79.798-79.796C295.736 9.801 259.058 0 219.273 0c-39.781 0-76.47 9.801-110.063 29.407-33.595 19.604-60.192 46.201-79.8 79.796C9.801 142.8 0 179.489 0 219.267c0 39.78 9.804 76.463 29.407 110.062 19.607 33.592 46.204 60.189 79.799 79.798 33.597 19.605 70.283 29.407 110.063 29.407s76.47-9.802 110.065-29.407c33.593-19.602 60.189-46.206 79.795-79.798 19.603-33.596 29.403-70.284 29.403-110.062.001-39.782-9.8-76.472-29.399-110.064zm-55.391 188.005c-13.894 23.791-32.736 42.64-56.527 56.534-23.791 13.894-49.771 20.834-77.945 20.834-28.167 0-54.149-6.94-77.943-20.834-23.791-13.895-42.633-32.743-56.527-56.534-13.897-23.791-20.843-49.772-20.843-77.941 0-28.171 6.949-54.152 20.843-77.943 13.891-23.791 32.738-42.637 56.527-56.53 23.791-13.895 49.772-20.84 77.943-20.84 28.173 0 54.154 6.945 77.945 20.84 23.791 13.894 42.634 32.739 56.527 56.53 13.895 23.791 20.838 49.772 20.838 77.943 0 28.169-6.943 54.15-20.838 77.941z"/>
  <path d="M328.911 203.561l-155.32-91.36c-5.896-3.617-11.991-3.711-18.271-.284-6.09 3.615-9.136 8.942-9.136 15.984v182.725c0 7.04 3.046 12.371 9.136 15.985 3.046 1.522 6.09 2.286 9.135 2.286 3.234 0 6.283-.856 9.136-2.567l155.32-91.361c6.088-3.426 9.134-8.661 9.134-15.699 0-7.04-3.053-12.282-9.134-15.709z"/>
</svg>
