<svg xmlns="http://www.w3.org/2000/svg" viewBox="0 0 438.536 438.536">
  <path d="M414.41 24.123C398.333 8.042 378.963 0 356.315 0H82.228C59.58 0 40.21 8.042 24.126 24.123 8.045 40.207.003 59.576.003 82.225v274.084c0 22.647 8.042 42.018 24.123 58.102 16.084 16.084 35.454 24.126 58.102 24.126h274.084c22.648 0 42.018-8.042 58.095-24.126 16.084-16.084 24.126-35.454 24.126-58.102V82.225c-.001-22.649-8.043-42.021-24.123-58.102zm-48.961 332.186c0 2.662-.853 4.853-2.57 6.563-1.708 1.711-3.897 2.567-6.563 2.567H82.228c-2.664 0-4.854-.856-6.567-2.567-1.711-1.711-2.568-3.901-2.568-6.563V82.221c0-2.664.854-4.854 2.568-6.567 1.713-1.711 3.903-2.568 6.567-2.568h274.084c2.67 0 4.859.859 6.57 2.568 1.712 1.713 2.561 3.903 2.561 6.567v274.088h.006z"/>
  <path d="M302.926 204.411l-127.908-91.363c-5.901-4.377-12.181-4.853-18.842-1.425-6.661 3.237-9.995 8.662-9.995 16.276v182.725c0 7.617 3.333 13.038 9.995 16.275 6.661 3.429 12.941 2.953 18.842-1.427l127.908-91.358c5.141-3.617 7.7-8.565 7.7-14.843 0-6.288-2.56-11.236-7.7-14.86z"/>
</svg>
