<svg xmlns="http://www.w3.org/2000/svg" viewBox="0 0 475.078 475.077">
  <path d="M458.959 217.124c-10.759-10.758-23.654-16.134-38.69-16.134h-18.268v-73.089c0-7.611-1.91-15.99-5.719-25.122-3.806-9.136-8.371-16.368-13.699-21.698L339.18 37.683c-5.328-5.325-12.56-9.895-21.692-13.704-9.138-3.805-17.508-5.708-25.126-5.708H100.5c-7.614 0-14.087 2.663-19.417 7.993-5.327 5.327-7.994 11.799-7.994 19.414V200.99H54.818c-15.037 0-27.932 5.379-38.688 16.134C5.376 227.876 0 240.772 0 255.81v118.773c0 2.478.905 4.609 2.712 6.426 1.809 1.804 3.951 2.707 6.423 2.707h63.954v45.68c0 7.617 2.664 14.089 7.994 19.417 5.33 5.325 11.803 7.994 19.417 7.994h274.083c7.611 0 14.093-2.669 19.418-7.994 5.328-5.332 7.994-11.8 7.994-19.417v-45.68h63.953c2.471 0 4.613-.903 6.42-2.707 1.807-1.816 2.71-3.948 2.71-6.426V255.81c.004-15.038-5.37-27.934-16.119-38.686zm-93.51 203.138H109.636v-73.087h255.813v73.087zm0-182.725H109.636V54.816h182.726v45.679c0 7.614 2.669 14.083 7.991 19.414 5.328 5.33 11.799 7.993 19.417 7.993h45.679v109.635zm67.667 31.119c-3.614 3.614-7.898 5.428-12.847 5.428s-9.233-1.813-12.848-5.428c-3.613-3.61-5.42-7.898-5.42-12.847s1.807-9.232 5.42-12.847c3.614-3.617 7.898-5.426 12.848-5.426 4.948 0 9.232 1.809 12.847 5.426 3.613 3.614 5.427 7.898 5.427 12.847s-1.81 9.237-5.427 12.847z"/>
</svg>
