<svg xmlns="http://www.w3.org/2000/svg" viewBox="0 0 475.078 475.077">
  <path d="M462.094 285.791c-8.658-11.231-20.793-16.851-36.398-16.851-8.186 0-16.084 1.43-23.694 4.284-7.625 2.854-13.765 6.044-18.426 9.564-4.653 3.519-9.705 6.711-15.125 9.565-5.421 2.854-10.232 4.288-14.414 4.288-8.569 0-17.036-4.381-25.413-13.135-6.663-7.046-9.993-18.175-9.993-33.403 0-18.083 2.279-41.399 6.845-69.949.198-.571.526-2.618.999-6.139.486-3.518.951-6.757 1.431-9.707.472-2.95.801-4.615.992-4.998v-.57c-8.938.382-24.455 1.997-46.534 4.853-22.08 2.856-39.205 4.283-51.391 4.283-11.61 0-21.414-2.521-29.408-7.566-7.993-5.043-11.991-12.991-11.991-23.839 0-7.045 1.668-13.8 4.996-20.273 3.33-6.473 6.947-11.851 10.85-16.134 3.905-4.286 7.521-9.9 10.85-16.846 3.332-6.942 4.996-14.322 4.996-22.123 0-15.037-5.136-26.794-15.415-35.26-10.278-8.466-23.029-12.703-38.256-12.703-16.18 0-29.88 4.332-41.112 12.99-11.228 8.66-16.845 20.795-16.845 36.403 0 8.182 1.427 16.081 4.283 23.695 2.853 7.613 6.04 13.752 9.563 18.417 3.521 4.665 6.71 9.707 9.563 15.131 2.856 5.428 4.281 10.232 4.281 14.419 0 8.566-4.377 17.036-13.134 25.41-7.043 6.663-18.175 10-33.402 10-18.083 0-41.399-2.286-69.949-6.854-.568-.2-2.615-.534-6.136-1.01-3.523-.477-6.757-.95-9.707-1.427-2.952-.476-4.62-.806-4.998-.999V451.67c0 .191.19.287.571.287.378.188.666.28.855.28l3.711.575c1.716.373 4.331.76 7.852 1.137 3.523.38 6.14.767 7.854 1.14 28.549 4.571 51.866 6.854 69.949 6.854 15.227 0 26.359-3.334 33.402-10 8.757-8.374 13.134-16.847 13.134-25.406 0-4.185-1.425-8.99-4.281-14.421-2.853-5.421-6.045-10.461-9.563-15.126-3.518-4.664-6.707-10.804-9.563-18.415-2.856-7.613-4.283-15.512-4.283-23.698 0-15.608 5.617-27.747 16.846-36.404 11.228-8.662 24.838-12.991 40.824-12.991 15.419 0 28.266 4.237 38.544 12.703 10.278 8.467 15.415 20.226 15.415 35.262 0 7.8-1.665 15.182-4.996 22.121-3.33 6.951-6.951 12.56-10.85 16.851-3.903 4.285-7.517 9.657-10.85 16.133-3.331 6.468-4.996 13.227-4.996 20.266 0 10.855 3.995 18.802 11.991 23.846 7.998 5.041 17.799 7.56 29.408 7.56 8.758 0 18.083-.473 27.979-1.427 9.897-.948 20.889-2.235 32.977-3.854 12.087-1.619 21.36-2.718 27.832-3.285 2.098-.195 5.239-.288 9.421-.288v-1.423c.192-7.423-1.235-18.367-4.277-32.836-3.046-14.462-4.575-25.406-4.575-32.832 0-23.603 10.468-35.402 31.408-35.402 7.046 0 13.802 1.666 20.273 4.996 6.471 3.333 11.847 6.954 16.128 10.852 4.288 3.905 9.911 7.519 16.854 10.852 6.943 3.327 14.314 4.997 22.117 4.997 15.037 0 26.796-5.141 35.262-15.417 8.474-10.284 12.703-23.124 12.703-38.541 0-15.994-4.326-29.594-12.984-40.825z"/>
</svg>
