<svg xmlns="http://www.w3.org/2000/svg" viewBox="0 0 438.54 438.539">
  <path d="M182.156 140.477V2.004c-34.073 5.708-65.002 18.748-92.793 39.115-27.79 20.367-49.632 46.015-65.524 76.944C7.946 148.998 0 182.258 0 217.85c0 53.293 17.227 100.403 51.676 141.325 38.831-18.843 70.283-48.01 94.361-87.508 24.079-39.499 36.119-83.224 36.119-131.19zM414.697 118.056c-15.892-30.929-37.732-56.582-65.521-76.944C321.388 20.745 290.453 7.708 256.388 2v138.473c0 47.967 12.043 91.695 36.114 131.194 24.078 39.498 55.538 68.665 94.366 87.508 34.454-40.922 51.671-88.032 51.671-141.325-.006-35.596-7.942-68.859-23.842-99.794zM256.245 349.466c-18.556-23.599-31.173-49.107-37.831-76.52-6.471 27.412-18.986 52.921-37.544 76.52-18.559 23.596-40.968 43.681-67.237 60.237 32.548 17.891 67.475 26.836 104.781 26.836 37.495 0 72.517-8.945 105.059-26.836-26.259-16.557-48.667-36.638-67.228-60.237z"/>
</svg>
