<svg xmlns="http://www.w3.org/2000/svg" viewBox="0 0 511.633 511.633">
  <path d="M463.375 183.726c-35.782-36.735-92.789-57.764-171.02-63.094V45.83c0-7.994-3.713-13.608-11.136-16.846-7.803-3.23-14.466-1.902-19.985 3.999L115.06 179.161c-3.618 3.621-5.424 7.902-5.424 12.85 0 4.949 1.807 9.229 5.424 12.847l146.178 146.177c3.432 3.617 7.71 5.425 12.85 5.425 2.283 0 4.661-.476 7.136-1.427 7.423-3.238 11.139-8.847 11.139-16.845v-71.663c30.642 2.475 56.097 7.471 76.376 14.989 20.27 7.519 36.494 18.034 48.677 31.549 28.362 31.405 38.451 85.171 30.266 161.311-.376 4.951 1.807 8.186 6.567 9.708.571.192 1.427.284 2.569.284 3.806 0 6.468-1.618 7.994-4.853l5.709-11.42c2.662-5.331 6.516-13.945 11.56-25.841 5.041-11.901 9.616-23.794 13.709-35.692 4.093-11.893 7.755-25.026 10.992-39.396 3.234-14.376 4.853-27.079 4.853-38.116-.005-63.954-16.089-112.391-48.26-145.322z"/>
  <path d="M63.953 192.011c0-4.952 1.809-9.233 5.424-12.85l113.348-113.63V45.83c0-7.994-3.715-13.608-11.138-16.846-7.804-3.23-14.465-1.902-19.983 3.999L5.424 179.161C1.809 182.781 0 187.062 0 192.011s1.809 9.229 5.424 12.847l146.18 146.177c3.425 3.617 7.708 5.425 12.85 5.425 2.284 0 4.663-.476 7.137-1.427 7.423-3.238 11.138-8.847 11.138-16.845v-19.985L69.377 204.857c-3.615-3.617-5.424-7.895-5.424-12.846z"/>
</svg>
