<svg xmlns="http://www.w3.org/2000/svg" viewBox="0 0 431.12 431.12">
  <path d="M431.12 41.977c0-2.475-.955-4.661-2.857-6.567L395.711 2.861C393.809.955 391.625.005 389.148.005s-4.661.953-6.563 2.856L287.786 97.65l-41.104-41.112c-3.613-3.617-7.905-5.426-12.854-5.426-4.945 0-9.227 1.809-12.847 5.426-3.614 3.616-5.422 7.898-5.422 12.847v127.906c0 4.952 1.808 9.233 5.422 12.851 3.62 3.615 7.901 5.424 12.847 5.424h127.906c4.949 0 9.24-1.809 12.854-5.424 3.613-3.617 5.427-7.898 5.427-12.851 0-4.948-1.813-9.231-5.427-12.847l-41.114-41.114 94.794-94.787c1.897-1.902 2.852-4.092 2.852-6.566zM197.286 215.569H69.379c-4.948 0-9.231 1.809-12.847 5.426-3.617 3.613-5.426 7.901-5.426 12.847 0 4.948 1.809 9.232 5.426 12.847l41.112 41.113-94.787 94.787C.949 384.492 0 386.683 0 389.153c0 2.478.949 4.667 2.857 6.57L35.4 428.269c1.906 1.902 4.093 2.847 6.567 2.847s4.665-.944 6.567-2.847l94.789-94.791 41.112 41.11c3.615 3.614 7.898 5.428 12.847 5.428 4.952 0 9.233-1.813 12.85-5.428 3.616-3.61 5.424-7.898 5.424-12.847V233.835c0-4.949-1.809-9.233-5.421-12.84-3.616-3.617-7.898-5.426-12.849-5.426z"/>
</svg>
