<svg xmlns="http://www.w3.org/2000/svg" viewBox="0 0 519.625 519.625">
  <path d="M512.195 388.575L393.138 90.508c-1.523-3.617-3.997-6.757-7.42-9.419-3.429-2.668-7.049-3.999-10.854-3.999h-96.786c2.472 0 4.661.902 6.564 2.709 1.902 1.812 2.949 3.949 3.142 6.423l4.284 54.821c.191 2.665-.568 4.854-2.275 6.564-1.718 1.713-3.81 2.568-6.287 2.568h-47.394c-2.474 0-4.565-.855-6.279-2.568-1.713-1.709-2.474-3.899-2.281-6.564l4.283-54.821c.188-2.474 1.233-4.611 3.14-6.423 1.903-1.804 4.09-2.709 6.567-2.709h-96.789c-3.806 0-7.423 1.331-10.85 3.999-3.424 2.659-5.896 5.802-7.421 9.419L7.423 388.575C2.474 400.375 0 411.414 0 421.694c0 13.895 4.377 20.841 13.134 20.841H214.13c-2.474 0-4.565-.903-6.28-2.71-1.713-1.813-2.474-3.949-2.281-6.427l5.708-73.08c.19-2.478 1.237-4.617 3.14-6.427 1.902-1.811 4.093-2.707 6.567-2.707h77.654c2.478 0 4.661.896 6.57 2.707 1.903 1.81 2.95 3.949 3.139 6.427l5.715 73.08c.195 2.478-.575 4.613-2.282 6.427-1.711 1.807-3.806 2.71-6.283 2.71H506.49c8.754 0 13.135-6.946 13.135-20.841 0-10.276-2.478-21.316-7.43-33.119zM302.926 288.36c.185 2.286-.575 4.188-2.286 5.708-1.708 1.526-3.713 2.286-5.995 2.286H224.98c-2.285 0-4.287-.76-5.996-2.286-1.715-1.526-2.475-3.429-2.286-5.708v-1.143l6.854-91.356c.19-2.475 1.237-4.615 3.14-6.424 1.903-1.809 4.093-2.712 6.567-2.712h53.1c2.478 0 4.668.9 6.57 2.712 1.902 1.809 2.95 3.949 3.142 6.424l6.852 91.356v1.143h.003z"/>
</svg>
