<svg xmlns="http://www.w3.org/2000/svg" viewBox="0 0 438.536 438.536">
  <path d="M414.41 24.123C398.333 8.042 378.963 0 356.315 0H82.228C59.58 0 40.21 8.042 24.126 24.123 8.045 40.207.003 59.576.003 82.225v274.084c0 22.647 8.042 42.018 24.123 58.102 16.084 16.084 35.454 24.126 58.102 24.126h274.084c22.648 0 42.018-8.042 58.095-24.126 16.084-16.084 24.126-35.454 24.126-58.102V82.225c-.001-22.649-8.043-42.021-24.123-58.102zm-26.977 153.172L286.938 277.797c-3.62 3.614-7.898 5.421-12.847 5.428-2.279 0-4.572-.479-6.852-1.43-7.617-3.238-11.423-8.851-11.423-16.845v-45.68c-26.645 0-47.967 2.233-63.953 6.708-15.987 4.474-28.358 11.656-37.115 21.553-20.177 22.655-26.078 67.663-17.703 135.046.572 4.565-1.237 7.707-5.426 9.418-1.141.575-2.378.855-3.709.855-2.858 0-5.236-1.144-7.139-3.429-31.785-42.442-47.679-80.894-47.679-115.341 0-11.423.479-21.937 1.429-31.553.95-9.605 2.996-20.225 6.136-31.829 3.14-11.613 7.373-21.986 12.703-31.123 5.33-9.132 12.612-18.218 21.844-27.263 9.229-9.045 20.08-16.562 32.546-22.557 12.465-5.996 27.93-10.846 46.394-14.561 18.461-3.71 39.018-5.568 61.672-5.568V63.948c0-7.996 3.806-13.61 11.417-16.847 7.426-3.23 13.989-1.903 19.704 3.997l100.495 100.5c3.621 3.617 5.428 7.901 5.428 12.85s-1.806 9.232-5.427 12.847z"/>
</svg>
