<svg xmlns="http://www.w3.org/2000/svg" viewBox="0 0 438.543 438.543">
  <path d="M396.58 5.424C392.959 1.807 388.675 0 383.727 0H54.824c-4.952 0-9.235 1.807-12.852 5.424-3.615 3.615-5.424 7.898-5.424 12.847v219.268c0 16.371 3.186 32.596 9.563 48.681 6.374 16.084 14.274 30.361 23.697 42.828 9.423 12.47 20.651 24.605 33.689 36.405 13.04 11.806 25.078 21.6 36.116 29.409a452.304 452.304 0 0 0 34.545 22.121c11.991 6.943 20.511 11.663 25.553 14.134 5.043 2.478 9.088 4.38 12.132 5.708 2.286 1.143 4.758 1.718 7.426 1.718 2.671 0 5.14-.575 7.428-1.718 3.042-1.328 7.087-3.23 12.128-5.708 5.041-2.471 13.565-7.19 25.557-14.134a453.188 453.188 0 0 0 34.54-22.121c11.043-7.81 23.079-17.604 36.121-29.409 13.031-11.8 24.263-23.936 33.685-36.405 9.421-12.467 17.319-26.744 23.705-42.828 6.379-16.085 9.562-32.31 9.562-48.681V18.271c-.001-4.952-1.808-9.231-5.415-12.847zm-49.402 232.115c0 33.5-22.367 67.759-67.095 102.781-17.892 14.082-38.164 27.124-60.813 39.115V54.813h127.908v182.726z"/>
</svg>
