<svg xmlns="http://www.w3.org/2000/svg" viewBox="0 0 466.227 466.227">
  <path d="M463.36 2.852C461.454 1.047 459.172.14 456.506.14c-49.677 0-90.694 6.755-123.051 20.271-32.353 13.518-66.424 38.072-102.208 73.662-15.225 15.418-31.977 33.977-50.248 55.675l-108.205 5.708c-3.046.387-5.52 1.906-7.423 4.57L1.418 269.666c-2.285 3.806-1.807 7.519 1.427 11.136l18.271 18.271c1.714 1.714 3.901 2.569 6.567 2.569 1.143 0 1.997-.096 2.568-.287l78.802-24.273 80.228 80.232-24.269 78.795c-.949 3.43-.188 6.472 2.285 9.138l18.272 18.274c2.094 1.707 4.285 2.566 6.567 2.566 1.716 0 3.238-.384 4.569-1.144l109.639-63.953c2.666-1.902 4.186-4.373 4.568-7.419l5.708-108.209c21.7-18.274 40.262-35.022 55.676-50.251 33.89-34.074 58.009-68.378 72.375-102.923 14.373-34.547 21.556-75.519 21.556-122.91-.003-2.474-.954-4.614-2.867-6.426zM394.277 110.92c-5.325 5.326-11.8 7.994-19.414 7.994s-14.082-2.665-19.414-7.994c-5.325-5.33-7.994-11.802-7.994-19.417 0-7.611 2.666-14.084 7.994-19.414 5.328-5.327 11.8-7.993 19.414-7.993s14.086 2.663 19.414 7.993 7.994 11.803 7.994 19.414c0 7.616-2.659 14.083-7.994 19.417z"/>
</svg>
