<svg xmlns="http://www.w3.org/2000/svg" viewBox="0 0 511.627 511.627">
  <path d="M260.494 219.271H388.4c2.666 0 4.855-.855 6.563-2.57 1.715-1.713 2.573-3.9 2.573-6.567v-54.816c0-2.667-.858-4.854-2.573-6.567-1.708-1.711-3.897-2.57-6.563-2.57H260.494c-2.666 0-4.853.855-6.567 2.57-1.71 1.713-2.568 3.9-2.568 6.567v54.816c0 2.667.855 4.854 2.568 6.567 1.714 1.712 3.901 2.57 6.567 2.57zM260.497 73.089h73.087c2.666 0 4.856-.855 6.563-2.568 1.718-1.714 2.563-3.901 2.563-6.567V9.136c0-2.663-.846-4.853-2.563-6.567C338.44.859 336.25 0 333.584 0h-73.087c-2.666 0-4.853.855-6.567 2.568-1.709 1.715-2.568 3.905-2.568 6.567v54.818c0 2.666.855 4.853 2.568 6.567 1.715 1.71 3.901 2.569 6.567 2.569zM196.54 401.991h-54.817V9.136c0-2.663-.854-4.856-2.568-6.567C137.441.859 135.254 0 132.587 0H77.769c-2.663 0-4.856.855-6.567 2.568-1.709 1.715-2.568 3.905-2.568 6.567V401.99H13.816c-4.184 0-7.04 1.902-8.564 5.708-1.525 3.621-.855 6.95 1.997 9.996l91.361 91.365c2.094 1.707 4.281 2.562 6.567 2.562 2.474 0 4.665-.855 6.567-2.562l91.076-91.078c1.906-2.279 2.856-4.571 2.856-6.844 0-2.676-.859-4.859-2.568-6.584-1.713-1.706-3.9-2.562-6.568-2.562zM504.604 441.109c-1.715-1.718-3.901-2.573-6.567-2.573h-237.54c-2.666 0-4.853.855-6.567 2.573-1.709 1.711-2.568 3.901-2.568 6.564v54.815c0 2.673.855 4.853 2.568 6.571 1.715 1.711 3.901 2.566 6.567 2.566h237.539c2.666 0 4.853-.855 6.567-2.566 1.711-1.719 2.566-3.898 2.566-6.571v-54.815c.004-2.662-.855-4.853-2.565-6.564zM260.494 365.445H443.22c2.663 0 4.853-.855 6.57-2.566 1.708-1.711 2.563-3.901 2.563-6.563v-54.823c0-2.662-.855-4.853-2.563-6.563-1.718-1.711-3.907-2.566-6.57-2.566H260.494c-2.666 0-4.853.855-6.567 2.566-1.71 1.711-2.568 3.901-2.568 6.563v54.823c0 2.662.855 4.853 2.568 6.563 1.714 1.711 3.901 2.566 6.567 2.566z"/>
</svg>
