<svg xmlns="http://www.w3.org/2000/svg" viewBox="0 0 511.63 511.63">
  <path d="M240.214 401.994h-54.816V9.139c0-2.663-.855-4.856-2.57-6.567-1.713-1.709-3.899-2.568-6.567-2.568h-54.816c-2.664 0-4.858.856-6.567 2.568-1.711 1.714-2.57 3.905-2.57 6.567v392.855H57.491c-4.186 0-7.042 1.903-8.566 5.709-1.524 3.62-.854 6.95 1.999 9.999l91.36 91.365c2.096 1.704 4.283 2.56 6.567 2.56 2.475 0 4.665-.855 6.567-2.56l91.076-91.078c1.908-2.282 2.857-4.571 2.857-6.848 0-2.673-.855-4.855-2.57-6.581-1.713-1.71-3.9-2.566-6.567-2.566zM407.804 292.369H372.69l-54.823 52.814 23.421 24.55 17.7-16.556c3.425-3.433 5.899-6.379 7.419-8.854l1.995-3.429h.571v4.568c0 .955-.055 2.57-.144 4.856-.089 2.285-.144 4.093-.144 5.427v123.339h-47.671v32.544h133.902v-32.544h-47.109V292.369h-.003zM440.062 26.98C424.452 8.992 404.946 0 381.532 0c-20.749 0-37.973 6.949-51.679 20.845-13.698 13.894-20.55 30.833-20.55 50.819 0 19.224 6.369 35.642 19.13 49.249 12.758 13.611 29.212 20.417 49.389 20.417 8.385 0 16.427-1.334 24.133-3.999 7.7-2.667 13.562-6.189 17.56-10.566h.571c-3.046 16.558-9.377 30.404-18.986 41.54-9.609 11.134-22.415 16.702-38.403 16.702-7.228 0-14.366-1.237-21.402-3.711a48.864 48.864 0 0 1-8.85-3.14l-11.136 32.264c3.426 1.332 7.419 2.758 11.995 4.283 8.75 3.044 19.034 4.569 30.833 4.569 13.135 0 25.267-2.329 36.401-6.993 11.137-4.665 20.513-10.9 28.12-18.702 7.618-7.806 14.089-16.892 19.418-27.264a133.146 133.146 0 0 0 11.703-32.548c2.478-11.326 3.72-22.886 3.72-34.689-.014-30.076-7.826-54.105-23.437-72.096zm-26.546 74.949c-6.659 5.14-14.753 7.71-24.267 7.71-12.939 0-22.891-3.617-29.845-10.85-6.943-7.232-10.424-16.274-10.424-27.122 0-10.85 2.95-19.794 8.85-26.836 5.896-7.043 13.798-10.566 23.698-10.566 11.229 0 21.033 5.042 29.414 15.131 8.377 10.09 12.559 21.128 12.559 33.12 0 7.803-3.326 14.276-9.985 19.413z"/>
</svg>
