<svg xmlns="http://www.w3.org/2000/svg" viewBox="0 0 511.63 511.63">
  <path d="M240.214 401.991h-54.816V9.136c0-2.663-.855-4.856-2.57-6.567C181.115.859 178.928 0 176.261 0h-54.816c-2.664 0-4.858.855-6.567 2.568-1.711 1.715-2.57 3.905-2.57 6.567V401.99H57.491c-4.186 0-7.042 1.902-8.566 5.708-1.524 3.621-.854 6.95 1.999 9.996l91.36 91.365c2.096 1.707 4.283 2.562 6.567 2.562 2.475 0 4.665-.855 6.567-2.562l91.076-91.078c1.908-2.279 2.857-4.571 2.857-6.844 0-2.676-.855-4.859-2.57-6.584-1.713-1.706-3.9-2.562-6.567-2.562zM440.062 319.332c-15.609-17.986-35.115-26.977-58.529-26.977-20.749 0-37.973 6.943-51.679 20.841-13.698 13.894-20.55 30.834-20.55 50.819 0 19.226 6.369 35.638 19.13 49.252 12.758 13.605 29.212 20.409 49.389 20.409 8.385 0 16.427-1.331 24.133-3.997 7.7-2.662 13.562-6.188 17.56-10.561h.571c-3.046 16.557-9.377 30.402-18.986 41.538s-22.415 16.7-38.403 16.7c-7.228 0-14.366-1.235-21.402-3.71a48.644 48.644 0 0 1-8.85-3.142l-11.136 32.265c3.426 1.334 7.419 2.758 11.995 4.295 8.75 3.035 19.034 4.564 30.833 4.564 13.135 0 25.267-2.33 36.401-6.994 11.137-4.661 20.513-10.887 28.12-18.699 7.618-7.812 14.089-16.882 19.418-27.265a133.35 133.35 0 0 0 11.703-32.537c2.478-11.328 3.72-22.895 3.72-34.694-.015-30.083-7.827-54.113-23.438-72.107zm-26.546 74.956c-6.659 5.14-14.753 7.71-24.267 7.71-12.939 0-22.895-3.617-29.845-10.849-6.947-7.23-10.424-16.279-10.424-27.124 0-10.841 2.95-19.79 8.85-26.833 5.899-7.046 13.798-10.571 23.698-10.571 11.229 0 21.033 5.041 29.414 15.13 8.377 10.088 12.559 21.121 12.559 33.119 0 7.803-3.319 14.281-9.985 19.418zM358.979 60.817c3.426-3.427 5.9-6.374 7.42-8.851l1.995-3.428h.571v4.57c0 .948-.055 2.568-.144 4.853-.089 2.284-.144 4.093-.144 5.424v123.338h-47.671v32.548H454.91v-32.548h-47.109V0h-35.118l-54.816 52.825 23.421 24.554 17.691-16.562z"/>
</svg>
