<svg xmlns="http://www.w3.org/2000/svg" viewBox="0 0 438.53 438.529">
  <path d="M42.532 191.573H395.99v72.803H42.532zM42.529 284.648v18.843c0 16.173 5.474 29.93 16.418 41.251 10.944 11.32 24.128 16.987 39.543 16.987h151.039v76.8l74.227-76.8h16.282c15.414 0 28.603-5.66 39.547-16.987C390.529 333.421 396 319.664 396 303.491v-18.843H42.529zM42.532 97.927H395.99v72.802H42.532zM395.991 57.956c0-15.988-5.469-29.643-16.413-40.968S355.448 0 340.031 0H98.493C83.078 0 69.894 5.662 58.95 16.988S42.532 41.971 42.532 57.956v19.126H395.99V57.956z"/>
</svg>
