<svg xmlns="http://www.w3.org/2000/svg" viewBox="0 0 439.362 439.362">
  <path d="M362.146.412c-2.471-1.143-5.517.094-9.138 3.709l-202.7 202.707c-1.718 1.524-2.955 3.333-3.715 5.424V18.679c0-4.952-1.809-9.234-5.424-12.85-3.617-3.617-7.9-5.426-12.847-5.426H91.775c-4.952 0-9.233 1.809-12.85 5.426-3.617 3.619-5.425 7.901-5.425 12.85v401.986c0 4.948 1.807 9.236 5.424 12.847 3.621 3.62 7.902 5.428 12.85 5.428h36.543c4.947 0 9.229-1.808 12.847-5.428 3.615-3.61 5.424-7.898 5.424-12.847V227.097c.763 1.903 2 3.717 3.715 5.425l202.705 202.712c3.621 3.617 6.667 4.859 9.138 3.72 2.478-1.144 3.716-4.189 3.716-9.138V9.547c0-4.948-1.238-7.994-3.716-9.135z"/>
</svg>
