<svg xmlns="http://www.w3.org/2000/svg" viewBox="0 0 511.34 511.34">
  <path d="M497.78 326.334l-51.395-70.808 51.395-70.804c1.711-2.475 2.088-5.232 1.14-8.276-.767-2.859-2.669-4.762-5.712-5.712l-83.363-27.408V55.959c0-3.044-1.242-5.519-3.721-7.421-2.85-1.902-5.615-2.284-8.274-1.143l-83.367 26.836-51.391-70.804C261.378 1.143 258.905 0 255.667 0c-3.234 0-5.708 1.146-7.422 3.427l-51.394 70.805-83.368-26.836c-2.662-1.142-5.424-.76-8.28 1.143-2.474 1.903-3.711 4.377-3.711 7.421v87.366l-83.367 27.408c-3.044.953-4.947 2.856-5.708 5.712-.95 3.044-.571 5.802 1.143 8.276l51.391 70.804-51.391 70.808c-1.714 2.282-2.093 5.041-1.143 8.278.76 2.847 2.664 4.753 5.708 5.712l83.367 27.407v87.364c0 3.043 1.237 5.521 3.711 7.423 2.856 1.903 5.618 2.283 8.28 1.144l83.368-26.837 51.394 70.805c1.902 2.471 4.377 3.71 7.422 3.71s5.522-1.239 7.424-3.71l51.391-70.805 83.371 26.837c2.659 1.143 5.421.76 8.271-1.144 2.479-1.902 3.721-4.38 3.721-7.423v-87.364l83.363-27.407c3.043-.955 4.945-2.861 5.712-5.712.955-3.237.571-5.996-1.14-8.278zm-90.646-6.995c-8.661 20.27-20.365 37.78-35.114 52.534-14.753 14.749-32.261 26.456-52.534 35.118-20.266 8.657-41.541 12.99-63.811 12.99-22.27 0-43.537-4.333-63.81-12.99-20.27-8.665-37.782-20.369-52.532-35.118-14.75-14.754-26.455-32.265-35.117-52.534-8.66-20.272-12.99-41.541-12.99-63.813 0-22.27 4.331-43.537 12.99-63.81 8.658-20.27 20.367-37.781 35.117-52.534 14.753-14.749 32.262-26.457 52.532-35.115 20.27-8.663 41.54-12.99 63.81-12.99 22.266 0 43.545 4.327 63.811 12.99 20.273 8.658 37.781 20.366 52.534 35.115 14.749 14.753 26.453 32.264 35.114 52.534 8.658 20.273 12.991 41.543 12.991 63.81 0 22.272-4.336 43.54-12.991 63.813z"/>
</svg>
