<svg xmlns="http://www.w3.org/2000/svg" viewBox="0 0 511.63 511.631">
  <path d="M493.356 347.177H18.274c-4.952 0-9.233 1.811-12.851 5.425C1.809 356.215 0 360.506 0 365.455v73.083c0 4.942 1.809 9.233 5.424 12.847 3.621 3.614 7.904 5.428 12.851 5.428h475.082c4.944 0 9.232-1.813 12.85-5.428 3.614-3.613 5.425-7.904 5.425-12.847v-73.083c0-4.949-1.811-9.24-5.425-12.854-3.619-3.614-7.907-5.424-12.851-5.424zm-18.272 73.094H292.369v-36.548h182.723v36.548h-.008zM493.356 201H18.274c-4.952 0-9.233 1.809-12.851 5.426C1.809 210.041 0 214.324 0 219.271v73.087c0 4.948 1.809 9.233 5.424 12.847 3.621 3.614 7.904 5.428 12.851 5.428h475.082c4.944 0 9.232-1.813 12.85-5.428 3.614-3.613 5.425-7.898 5.425-12.847v-73.087c0-4.947-1.811-9.229-5.425-12.845-3.619-3.618-7.907-5.426-12.851-5.426zm-18.278 73.09h-292.35v-36.543h292.35v36.543zM506.206 60.243c-3.617-3.612-7.905-5.424-12.85-5.424H18.274c-4.952 0-9.233 1.812-12.851 5.424C1.809 63.86 0 68.145 0 73.093v73.085c0 4.952 1.809 9.235 5.424 12.85 3.621 3.617 7.904 5.424 12.851 5.424h475.082c4.944 0 9.232-1.807 12.85-5.424 3.614-3.615 5.425-7.898 5.425-12.85V73.093c-.002-4.948-1.812-9.23-5.426-12.85zm-31.128 67.668H365.449V91.364h109.629v36.547z"/>
</svg>
