<svg xmlns="http://www.w3.org/2000/svg" viewBox="0 0 438.533 438.533">
  <path d="M246.676 182.72c-7.617 0-14.089-2.663-19.417-7.993-5.33-5.327-7.992-11.799-7.992-19.414V0H63.953C56.341 0 49.869 2.663 44.54 7.993c-5.33 5.327-7.994 11.799-7.994 19.414v383.719c0 7.617 2.664 14.089 7.994 19.417 5.33 5.325 11.801 7.991 19.414 7.991h310.633c7.611 0 14.079-2.666 19.407-7.991 5.328-5.332 7.994-11.8 7.994-19.417V182.72H246.676zM328.9 356.309c0 2.662-.855 4.853-2.566 6.563s-3.901 2.567-6.564 2.567h-201c-2.663 0-4.853-.856-6.567-2.567-1.709-1.711-2.568-3.901-2.568-6.563v-18.274c0-2.669.856-4.859 2.568-6.57 1.715-1.704 3.905-2.566 6.567-2.566h201c2.663 0 4.854.862 6.564 2.566 1.711 1.711 2.566 3.901 2.566 6.57v18.274zm0-73.091c0 2.67-.855 4.853-2.566 6.571-1.711 1.707-3.901 2.566-6.564 2.566h-201c-2.663 0-4.853-.859-6.567-2.566-1.709-1.719-2.568-3.901-2.568-6.571v-18.274c0-2.662.856-4.853 2.568-6.563 1.715-1.711 3.905-2.566 6.567-2.566h201c2.663 0 4.854.855 6.564 2.566s2.566 3.901 2.566 6.563v18.274z"/>
  <path d="M382.58 108.493l-89.078-89.081C283.981 9.895 271.415 3.706 255.81.854v145.324h145.326c-2.855-15.612-9.045-28.172-18.556-37.685z"/>
</svg>
