<svg xmlns="http://www.w3.org/2000/svg" viewBox="0 0 420.266 420.266">
  <path d="M333.177 195.57c-1.143-1.713-7.094-10.323-17.843-25.835-10.756-15.515-20.369-29.886-28.839-43.114s-17.936-30.168-28.407-50.819c-10.465-20.651-18.37-39.831-23.695-57.53-1.525-5.708-4.709-10.185-9.568-13.418C219.979 1.619 215.078 0 210.13 0s-9.801 1.619-14.56 4.853c-4.76 3.234-7.994 7.71-9.707 13.418-5.33 17.699-13.23 36.879-23.697 57.53-10.466 20.651-19.936 37.59-28.406 50.819-8.47 13.229-18.083 27.6-28.836 43.114-10.754 15.513-16.702 24.123-17.843 25.835-15.417 24.75-23.125 50.918-23.125 78.515 0 40.357 14.276 74.805 42.825 103.353s62.997 42.828 103.349 42.828c40.348 0 74.802-14.274 103.353-42.828 28.551-28.555 42.828-63.002 42.828-103.353 0-28.171-7.713-54.34-23.134-78.514zM199.424 336.467c-7.141 7.139-15.75 10.712-25.841 10.712-10.085 0-18.699-3.573-25.837-10.712-7.137-7.132-10.708-15.749-10.708-25.837 0-6.852 1.906-13.415 5.711-19.698.193-.195 1.665-2.327 4.427-6.42 2.76-4.093 5.187-7.714 7.281-10.854 2.096-3.142 4.476-7.327 7.139-12.563 2.664-5.235 4.665-10.04 5.996-14.41.761-3.046 2.762-4.576 5.996-4.576 3.236 0 5.236 1.53 5.997 4.576 1.332 4.37 3.332 9.175 5.996 14.41 2.663 5.236 5.043 9.422 7.137 12.563 2.092 3.141 4.517 6.762 7.279 10.854 2.758 4.093 4.233 6.225 4.427 6.42 3.805 6.283 5.708 12.847 5.708 19.698-.002 10.088-3.573 18.705-10.708 25.837z"/>
</svg>
