<svg xmlns="http://www.w3.org/2000/svg" viewBox="0 0 438.536 438.536">
  <path d="M433.113 5.424C429.496 1.807 425.215 0 420.267 0H18.276C13.324 0 9.041 1.807 5.425 5.424 1.808 9.04.001 13.322.001 18.271v401.991c0 4.948 1.807 9.233 5.424 12.847 3.619 3.617 7.902 5.428 12.851 5.428h401.991c4.948 0 9.229-1.811 12.847-5.428 3.614-3.613 5.421-7.898 5.421-12.847V18.271c-.001-4.952-1.805-9.231-5.422-12.847zM201 347.172c0 2.669-.855 4.853-2.568 6.57-1.714 1.707-3.904 2.566-6.567 2.566H54.821c-2.666 0-4.853-.859-6.567-2.566-1.709-1.718-2.568-3.901-2.568-6.57V54.813c0-2.666.855-4.853 2.568-6.565 1.714-1.711 3.901-2.57 6.567-2.57h137.044c2.663 0 4.853.859 6.567 2.57 1.713 1.712 2.568 3.899 2.568 6.565v292.359zm191.858-109.633c0 2.666-.855 4.856-2.566 6.563-1.711 1.718-3.901 2.57-6.563 2.57H246.691c-2.677 0-4.859-.853-6.571-2.57-1.711-1.707-2.566-3.897-2.566-6.563V54.813c0-2.666.855-4.853 2.566-6.565 1.712-1.711 3.895-2.57 6.571-2.57h137.037c2.662 0 4.853.859 6.563 2.57 1.711 1.712 2.566 3.899 2.566 6.565v182.726z"/>
</svg>
