<svg xmlns="http://www.w3.org/2000/svg" viewBox="0 0 438.536 438.536">
  <path d="M414.41 24.123C398.333 8.042 378.963 0 356.315 0H82.228C59.58 0 40.21 8.042 24.126 24.123 8.045 40.207.003 59.576.003 82.225v274.084c0 22.647 8.042 42.018 24.123 58.102 16.084 16.084 35.454 24.126 58.102 24.126h274.084c22.648 0 42.018-8.042 58.095-24.126 16.084-16.084 24.126-35.454 24.126-58.102V82.225c-.001-22.649-8.043-42.021-24.123-58.102zm-93.784 341.61c-14.654 6.851-27.408 11.512-38.26 13.982-11.797 2.663-24.079 3.997-36.83 3.997-14.845 0-28.169-1.902-39.972-5.708-11.61-3.806-21.508-9.232-29.691-16.275-7.994-6.852-13.611-14.277-16.845-22.271-3.239-8.179-4.854-19.698-4.854-34.54V189.571h-36.258v-46.537c12.944-4.377 23.982-10.372 33.118-17.988 9.329-7.993 16.751-17.412 22.27-28.262 5.52-10.849 9.325-24.838 11.421-41.971h46.822v83.084h78.23v51.673h-78.23v84.226c0 18.843 1.047 31.121 3.142 36.833 1.902 5.324 5.612 9.612 11.136 12.847 7.042 4.38 15.413 6.566 25.125 6.566 16.365 0 32.929-5.328 49.677-15.984v51.675h-.001z"/>
</svg>
