<svg xmlns="http://www.w3.org/2000/svg" viewBox="0 0 475.082 475.082">
  <path d="M461.667 31.691c-8.949-8.945-19.698-13.417-32.265-13.417H45.682c-12.562 0-23.317 4.471-32.264 13.417C4.473 40.638 0 51.389 0 63.952v347.173c0 12.566 4.473 23.318 13.418 32.264 8.947 8.946 19.701 13.419 32.264 13.419h383.72c12.566 0 23.315-4.473 32.265-13.419 8.945-8.945 13.415-19.697 13.415-32.264V63.952c0-12.563-4.47-23.314-13.415-32.261zM219.271 420.266H45.682c-2.474 0-4.615-.907-6.423-2.707-1.809-1.811-2.712-3.949-2.712-6.427V91.367h182.725v328.899zm219.265-9.141c0 2.478-.903 4.62-2.71 6.427-1.813 1.807-3.949 2.71-6.427 2.71H255.813V91.36h182.729v319.765h-.006z"/>
</svg>
