<svg xmlns="http://www.w3.org/2000/svg" viewBox="0 0 438.543 438.543">
  <path d="M13.706 27.131c23.223.572 37.212 4.286 41.967 11.122 3.234 4.764 4.854 25.031 4.854 60.813v95.076c0 29.886 1.52 52.438 4.565 67.666 4.192 22.648 12.09 41.21 23.7 55.672 11.416 14.277 28.455 25.893 51.103 34.834 22.27 8.754 49.298 13.131 81.082 13.131 27.787 0 52.058-3.135 72.81-9.417 20.361-6.092 37.685-14.565 51.955-25.413 14.093-11.037 24.749-22.744 31.977-35.118 4.948-8.754 8.856-20.369 11.711-34.824 3.997-20.745 5.428-49.687 4.284-86.8-2.662-71.761-4.757-109.446-6.283-113.063 0-2.091-.144-5.042-.424-8.848-.288-3.809-.432-6.374-.432-7.708 0-4.949 1.431-8.854 4.285-11.706 1.149-1.141 8.661-2.762 22.555-4.856 7.427-.19 15.424-1.431 23.986-3.711.767-4.567 1.14-7.517 1.14-8.852 0-2.474-.564-7.329-1.708-14.558L431.693 0c-22.843 2.475-41.494 3.424-55.963 2.854L317.205 0h-23.982l-.575 24.556 4 .854 28.552-.57c8.179-.19 15.509 3.047 21.98 9.71 3.613 3.997 5.903 12.369 6.851 25.122l1.137 16.849c1.149 16.368 2.43 31.545 3.86 45.533 1.431 13.99 2.478 25.649 3.142 34.973.664 9.329.999 21.51.999 36.547 0 29.694-1.999 51.48-5.996 65.374-3.23 11.04-8.281 21.895-15.126 32.552-3.244 5.331-9.428 11.42-18.568 18.277-8.179 6.276-17.597 11.129-28.26 14.555-16.563 5.332-34.738 7.994-54.529 7.994-16.946 0-33.783-4.47-50.535-13.422-11.61-6.276-20.745-15.03-27.407-26.262-8.563-14.842-13.418-34.074-14.561-57.677l-3.997-79.938-.291-65.374c0-1.138-.049-3.566-.144-7.277a369.601 369.601 0 0 1-.144-9.276c0-22.459 1.237-35.019 3.71-37.685 3.621-4.76 11.137-7.139 22.557-7.139 12.185 0 23.984-.855 35.404-2.568v-2.57l-.57-18.271.283-3.999c-5.708.38-13.891.572-24.551.572-5.708.19-19.605.666-41.684 1.427-15.612.572-31.599.854-47.967.854-6.473 0-22.27-.662-47.395-1.997C33.501.964 22.841.585 11.421.585 6.281.585 2.474.677.002.869l.857 25.126c1.521.376 5.804.758 12.847 1.136zM429.4 402.001H9.14c-2.664 0-4.854.855-6.567 2.57-1.715 1.715-2.568 3.901-2.568 6.567v18.271c0 2.666.857 4.856 2.568 6.567 1.713 1.715 3.899 2.566 6.567 2.566H429.4c2.669 0 4.859-.852 6.57-2.566 1.711-1.711 2.563-3.901 2.563-6.567v-18.271c0-2.666-.853-4.853-2.563-6.567s-3.901-2.57-6.57-2.57z"/>
</svg>
