<svg xmlns="http://www.w3.org/2000/svg" viewBox="0 0 438.536 438.536">
  <path d="M414.41 24.123C398.333 8.042 378.963 0 356.315 0H82.228C59.58 0 40.21 8.042 24.126 24.123 8.045 40.207.003 59.576.003 82.225v274.084c0 22.647 8.042 42.018 24.123 58.102 16.084 16.084 35.454 24.126 58.102 24.126h274.084c22.648 0 42.018-8.042 58.095-24.126 16.084-16.084 24.126-35.454 24.126-58.102V82.225c-.001-22.649-8.043-42.021-24.123-58.102zm-48.961 332.186c0 2.471-.903 4.613-2.714 6.42s-3.949 2.711-6.42 2.711H82.228c-2.474 0-4.615-.904-6.423-2.711s-2.712-3.949-2.712-6.42V82.221c0-2.474.903-4.615 2.712-6.423 1.809-1.805 3.949-2.712 6.423-2.712h274.084c2.478 0 4.62.903 6.427 2.712 1.808 1.809 2.704 3.949 2.704 6.423v274.088h.006z"/>
  <path d="M274.088 109.634c-3.806 0-7.334 1.146-10.571 3.427l-127.905 91.365c-5.14 3.612-7.708 8.561-7.708 14.844 0 6.278 2.571 11.226 7.708 14.84l127.905 91.361c3.237 2.289 6.766 3.433 10.571 3.433 4.948 0 9.232-1.814 12.847-5.428 3.61-3.614 5.428-7.898 5.428-12.847V127.907c0-4.949-1.811-9.235-5.428-12.847-3.618-3.614-7.899-5.426-12.847-5.426z"/>
</svg>
