<svg xmlns="http://www.w3.org/2000/svg" viewBox="0 0 438.536 438.536">
  <path d="M414.41 24.123C398.333 8.042 378.963 0 356.315 0H82.228C59.58 0 40.21 8.042 24.126 24.123 8.045 40.207.003 59.576.003 82.225v274.084c0 22.647 8.042 42.018 24.123 58.102 16.084 16.084 35.454 24.126 58.102 24.126h274.084c22.648 0 42.018-8.042 58.095-24.126 16.084-16.084 24.126-35.454 24.126-58.102V82.225c-.001-22.649-8.043-42.021-24.123-58.102zm-56.377 121.196c-2.673 13.894-10.52 35.454-23.562 64.665-13.045 29.218-29.455 57.054-49.252 83.511-22.654 30.453-46.445 53.009-71.374 67.673-6.473 3.99-13.706 6.995-21.698 8.99-7.994 1.995-16.086 1.852-24.269-.432-11.613-4.948-21.414-16.847-29.408-35.689-3.997-9.712-9.423-28.459-16.274-56.246-6.85-26.837-11.897-44.633-15.131-53.387-.95-2.477-2.141-6.332-3.567-11.564-1.429-5.236-2.856-9.801-4.281-13.706a61.447 61.447 0 0 0-5.282-10.992c-3.234-5.52-7.183-8.373-11.847-8.566-4.661-.188-10.185.81-16.558 2.996-6.374 2.19-11.56 2.993-15.559 2.426-2.281-.38-4.327-2.283-6.136-5.709-1.809-3.422-4.237-5.896-7.283-7.421v-1.999c7.613-5.333 19.271-15.037 34.973-29.127 15.703-14.085 28.693-24.172 38.971-30.262 13.324-7.804 25.41-10.185 36.26-7.139 5.137 1.524 9.945 5.33 14.416 11.42 4.471 6.091 7.85 12.658 10.135 19.701 2.096 6.66 5.33 22.266 9.707 46.822.572 3.805 1.384 10.61 2.428 20.411 1.045 9.803 1.999 17.795 2.853 23.982.855 6.188 2.664 13.135 5.426 20.838 2.756 7.713 6.324 13.853 10.704 18.421 8.186 8.754 16.464 10.089 24.838 3.997 5.332-3.997 12.088-13.421 20.273-28.26 8.945-17.316 13.894-30.928 14.839-40.825 1.334-14.465-1.191-23.885-7.563-28.265-6.372-4.377-17.173-5.902-32.401-4.57a105.654 105.654 0 0 1 12.703-26.122c5.428-8.086 11.088-14.753 16.988-19.984 5.91-5.236 12.049-9.851 18.418-13.849 6.379-3.996 11.848-6.897 16.423-8.705 4.565-1.809 8.466-3 11.704-3.571 25.693-3.805 43.488.476 53.392 12.847 7.038 8.947 9.036 21.512 5.994 37.69z"/>
</svg>
