<svg xmlns="http://www.w3.org/2000/svg" viewBox="0 0 480.509 480.509">
  <path d="M418.119 331.046c4.094 4.374 7.766 8.186 10.996 11.416a142.687 142.687 0 0 0 10.427 9.422c3.71 3.042 6.427 4.568 8.135 4.568 3.241 0 9.517-4.661 18.843-13.99 9.328-9.321 13.989-15.604 13.989-18.842 0-1.523-2.714-5.421-8.138-11.704-5.421-6.276-12.364-13.702-20.838-22.271a2036.088 2036.088 0 0 0-24.694-24.55c-8.001-7.81-15.8-15.373-23.417-22.703-7.611-7.327-11.992-11.56-13.135-12.703-1.902-1.902-4.093-2.853-6.563-2.853-3.237 0-9.521 4.661-18.843 13.988-9.328 9.322-13.989 15.605-13.989 18.843 0 1.711 1.522 4.421 4.568 8.138a144.41 144.41 0 0 0 9.421 10.424c3.23 3.23 7.047 6.899 11.42 10.992 4.377 4.093 6.848 6.423 7.423 6.995l-27.408 27.404-101.362-101.352c24.94-33.498 37.408-68.236 37.408-104.211 0-31.024-9.761-56.293-29.263-75.801-19.512-19.511-44.778-29.265-75.805-29.265-30.454 0-60.244 9.042-89.363 27.119-29.121 18.083-52.727 41.686-70.808 70.808C9.042 140.038 0 169.828 0 200.28c0 31.029 9.753 56.286 29.265 75.803 19.511 19.517 44.777 29.27 75.801 29.27 35.976 0 70.71-12.467 104.212-37.407l191.574 191.579c5.332 5.328 11.796 7.994 19.417 7.994 7.991 0 15.704-3.72 23.12-11.14 7.426-7.426 11.143-15.129 11.143-23.127 0-7.617-2.666-14.092-7.994-19.417l-62.811-62.811 27.405-27.404c.567.575 2.901 3.046 6.987 7.426zM221.556 161.458c-10.656 10.657-23.601 15.987-38.828 15.987-7.996 0-15.896-1.812-23.7-5.43 3.617 7.808 5.426 15.706 5.426 23.7 0 15.229-5.327 28.171-15.987 38.828-10.66 10.655-23.606 15.986-38.831 15.986-15.227 0-28.168-5.325-38.828-15.986-10.657-10.657-15.987-23.599-15.987-38.828 0-15.227 5.327-28.171 15.987-38.828C81.464 146.23 94.409 140.9 109.636 140.9c7.992 0 15.893 1.809 23.695 5.424-3.616-7.804-5.424-15.706-5.424-23.699 0-15.227 5.327-28.171 15.987-38.828 10.66-10.657 23.604-15.987 38.831-15.987 15.227 0 28.171 5.327 38.828 15.987 10.657 10.66 15.987 23.601 15.987 38.828-.001 15.227-5.331 28.172-15.984 38.833z"/>
</svg>
