<svg xmlns="http://www.w3.org/2000/svg" viewBox="0 0 512.209 512.209">
  <path d="M507.345 439.683L288.084 37.688c-3.237-5.899-7.71-10.564-13.429-13.988-5.705-3.427-11.893-5.142-18.554-5.142s-12.85 1.718-18.558 5.142c-5.708 3.424-10.184 8.089-13.418 13.988L4.859 439.683c-6.663 11.998-6.473 23.989.57 35.98 3.239 5.517 7.664 9.897 13.278 13.128 5.618 3.237 11.66 4.859 18.132 4.859h438.529c6.479 0 12.519-1.622 18.134-4.859 5.62-3.23 10.038-7.611 13.278-13.128 7.043-11.998 7.235-23.982.565-35.98zm-214.69-28.551c0 2.662-.91 4.897-2.71 6.704-1.807 1.811-3.949 2.71-6.427 2.71h-54.816c-2.474 0-4.616-.899-6.423-2.71-1.809-1.807-2.713-4.042-2.713-6.704v-54.248c0-2.662.905-4.897 2.713-6.704 1.807-1.811 3.946-2.71 6.423-2.71h54.812c2.479 0 4.62.899 6.428 2.71 1.803 1.807 2.71 4.042 2.71 6.704v54.248h.003zm-.567-106.775c-.198 1.902-1.198 3.47-3.001 4.709-1.811 1.238-4.046 1.854-6.711 1.854h-52.82c-2.663 0-4.947-.62-6.849-1.854-1.908-1.243-2.858-2.807-2.858-4.716l-4.853-130.47c0-2.667.953-4.665 2.856-5.996 2.474-2.093 4.758-3.14 6.854-3.14h62.809c2.098 0 4.38 1.043 6.854 3.14 1.902 1.331 2.851 3.14 2.851 5.424l-5.132 131.049z"/>
</svg>
