<svg xmlns="http://www.w3.org/2000/svg" viewBox="0 0 511.794 511.795">
  <path d="M413.691 261.553c-8.747-5.522-18.555-9.995-29.403-13.42-2.286-.765-3.907-1.333-4.859-1.715-.951-.381-2.098-1.093-3.425-2.141-1.335-1.049-1.767-2.24-1.284-3.571.479-1.332.903-3.234 1.284-5.708 8.559-21.888 8.559-38.828 0-50.819-8.762-11.61-23.315-17.417-43.688-17.417-20.365 0-43.776 5.617-70.229 16.845l-1.718.572c-1.135.381-2.422.71-3.847.998-1.431.288-2.812.333-4.143.144-1.328-.188-2.281-.854-2.853-1.997-.572-1.143-.474-3.046.287-5.711 8.561-27.6 6.661-47.488-5.713-59.672-14.083-14.084-37.541-14.75-70.377-1.997-32.827 12.756-65.326 35.214-97.496 67.384-24.362 24.362-43.159 48.916-56.387 73.66C6.611 281.736 0 305.045 0 326.939c0 20.554 6.186 39.54 18.555 56.959 12.375 17.419 28.693 31.788 48.966 43.112 20.268 11.32 43.158 20.177 68.662 26.553 25.505 6.372 51.678 9.562 78.515 9.562 26.838 0 52.58-2.947 77.226-8.847 24.646-5.903 46.158-13.798 64.521-23.698 18.371-9.894 34.407-21.077 48.109-33.548 13.709-12.467 24.078-25.498 31.124-39.115 7.043-13.606 10.568-26.885 10.568-39.823 0-12.18-3.23-23.274-9.709-33.264-6.467-10.003-14.085-17.758-22.846-23.277zm-93.209 130.921c-27.884 22.553-63.05 36.019-105.493 40.396-27.79 2.666-53.915.667-78.371-5.995-24.457-6.667-44.302-17.036-59.527-31.121-15.227-14.09-23.697-30.27-25.41-48.544-2.667-27.788 9.945-52.958 37.829-75.513 27.884-22.56 63.05-36.025 105.494-40.402 27.79-2.668 53.913-.666 78.365 5.996 24.455 6.661 44.304 17.034 59.532 31.118 15.229 14.089 23.695 30.269 25.406 48.54 2.662 27.793-9.941 52.963-37.825 75.525z"/>
  <path d="M223.269 274.126c-20.174-5.141-40.208-3.327-60.098 5.427-19.892 8.754-34.307 21.978-43.254 39.684-8.946 18.076-9.567 35.923-1.857 53.529 7.71 17.607 21.745 29.644 42.112 36.121 21.126 6.848 42.447 5.708 63.953-3.433 21.508-9.137 36.542-23.414 45.115-42.824 8.559-19.038 8.322-37.165-.719-54.393-9.046-17.219-24.126-28.591-45.252-34.111zm-30.55 92.504c-4.188 6.468-10.135 10.992-17.848 13.559-7.708 2.573-14.803 2.334-21.271-.712-6.47-3.046-10.562-7.851-12.275-14.421-1.714-6.561-.477-13.076 3.71-19.551 3.995-6.286 9.707-10.66 17.129-13.131 7.426-2.475 14.372-2.382 20.844.284 6.662 2.851 10.948 7.614 12.851 14.273 1.902 6.661.857 13.224-3.14 19.699zm26.835-34.554c-1.331 2.478-3.427 4.24-6.28 5.287-2.855 1.048-5.617 1.092-8.28.144-5.708-2.669-6.945-6.946-3.711-12.847 1.332-2.478 3.378-4.236 6.136-5.287 2.758-1.047 5.47-1.092 8.136-.14 2.474.947 4.139 2.713 4.998 5.283.856 2.564.525 5.093-.999 7.56zM407.983 206.884c2.102 4.093 5.332 6.899 9.712 8.423 4.381 1.332 8.61.953 12.703-1.143 4.093-2.091 6.902-5.327 8.426-9.707 3.613-10.656 4.236-21.842 1.848-33.545-2.375-11.704-7.562-22.032-15.55-30.978-7.994-8.947-17.614-15.181-28.839-18.704-11.231-3.521-22.556-4.043-33.972-1.569-4.575.953-8.094 3.381-10.571 7.282-2.471 3.9-3.23 8.136-2.275 12.703.76 4.569 3.135 8.09 7.128 10.564 4.001 2.474 8.282 3.235 12.854 2.286 11.995-2.475 22.169.857 30.55 9.992 8.378 9.134 10.656 19.698 6.852 31.691-1.344 4.377-.957 8.613 1.134 12.705z"/>
  <path d="M508.917 156.918c-4.859-24.075-15.561-45.251-32.121-63.522-16.562-18.46-36.356-31.261-59.395-38.403-23.028-7.139-46.243-8.232-69.661-3.284-5.332 1.143-9.473 3.949-12.423 8.424-2.95 4.476-3.854 9.375-2.707 14.705 1.14 5.33 3.99 9.469 8.565 12.419 4.562 2.95 9.514 3.855 14.839 2.712 16.563-3.424 33.03-2.614 49.396 2.428 16.371 5.044 30.457 14.13 42.26 27.264 11.797 12.944 19.418 27.978 22.844 45.111 3.429 17.128 2.478 33.498-2.854 49.105-1.52 5.142-1.047 10.09 1.431 14.849 2.471 4.758 6.276 7.992 11.416 9.707 5.141 1.709 10.089 1.331 14.846-1.143 4.76-2.474 7.997-6.28 9.712-11.42 7.421-21.889 8.704-44.873 3.852-68.952z"/>
</svg>
