<svg xmlns="http://www.w3.org/2000/svg" viewBox="0 0 437.116 437.116">
  <path d="M165.306 178.022l52.532-76.23h35.689V53.827h-73.374l-39.971 65.094-7.137 11.992c-1.521 2.283-2.568 4.283-3.14 5.997h-.856c-.571-2.286-1.615-4.286-3.14-5.997-3.999-7.236-6.189-11.23-6.567-11.992L79.656 53.827H.859v47.965h39.112l52.819 77.656-56.243 83.083H0v47.678h73.66l44.252-71.372c2.857-4.572 5.236-8.758 7.139-12.563l2.568-5.995h.859c.571 2.282 1.619 4.281 3.14 5.995l6.855 11.991 45.395 71.944h70.81v-47.678h-31.132l-58.24-84.509zM401.138 324.486v22.85H334.91c.76-7.423 4.661-14.37 11.704-20.841 7.046-6.472 15.327-12.467 24.838-17.987a486.406 486.406 0 0 0 28.407-17.843c9.418-6.375 17.415-14.562 23.986-24.561 6.563-9.993 9.852-21.262 9.852-33.825 0-18.846-6.478-33.929-19.417-45.254-12.936-11.326-29.879-16.989-50.819-16.989-20.553 0-38.451 6.189-53.666 18.56-7.05 5.518-13.045 11.801-17.994 18.842l29.985 26.265c4.188-5.14 7.61-8.761 10.28-10.849 8.761-7.431 17.986-11.142 27.692-11.142 7.802 0 14.51 2.331 20.129 6.995 5.612 4.665 8.411 10.616 8.411 17.844 0 6.282-2.471 12.371-7.419 18.28-4.941 5.9-11.136 11.03-18.562 15.41-7.416 4.377-15.41 9.565-23.982 15.554-8.562 5.996-16.561 12.187-23.986 18.556-7.416 6.375-13.606 14.612-18.555 24.701-4.948 10.092-7.426 21.224-7.426 33.4 0 .198.287 4.575.855 13.134l1.143 7.703h146.749v-58.803h-35.977z"/>
</svg>
