<svg xmlns="http://www.w3.org/2000/svg" viewBox="0 0 438.536 438.536">
  <path d="M414.41 24.123C398.333 8.042 378.963 0 356.315 0H82.228C59.58 0 40.21 8.042 24.126 24.123 8.045 40.207.003 59.576.003 82.225v274.084c0 22.647 8.042 42.018 24.123 58.102 16.084 16.084 35.454 24.126 58.102 24.126h274.084c22.648 0 42.018-8.042 58.095-24.126 16.084-16.084 24.126-35.454 24.126-58.102V82.225c-.001-22.649-8.043-42.021-24.123-58.102zM124.486 292.64H71.665c-3.046 0-5.33-1.242-6.851-3.72-1.713-2.663-1.713-5.325 0-7.991l55.961-98.779v-.284L85.083 120.19c-1.521-3.234-1.615-5.996-.284-8.277 1.521-2.092 3.996-3.142 7.423-3.142h52.532c5.898 0 10.847 3.239 14.845 9.712 23.982 42.062 35.974 63.188 35.974 63.382l-56.811 100.49c-3.616 6.852-8.374 10.285-14.276 10.285zM373.724 47.967L256.953 254.383v.287l74.236 135.895c1.708 2.854 1.811 5.523.281 7.994-1.328 2.282-3.706 3.429-7.132 3.429h-52.534c-6.091 0-11.04-3.333-14.845-9.992-49.678-91.17-74.612-136.948-74.8-137.328L299.501 46.529c3.617-6.665 8.277-9.994 13.986-9.994h53.393c3.23 0 5.509 1.143 6.851 3.427 1.522 2.288 1.522 4.955-.007 8.005z"/>
</svg>
