<svg xmlns="http://www.w3.org/2000/svg" viewBox="0 0 438.536 438.536">
  <path d="M414.41 24.123C398.333 8.042 378.963 0 356.315 0H82.228C59.58 0 40.21 8.042 24.126 24.123 8.045 40.207.003 59.576.003 82.225v274.084c0 22.647 8.042 42.018 24.123 58.102 16.084 16.084 35.454 24.126 58.102 24.126h274.084c22.648 0 42.018-8.042 58.095-24.126 16.084-16.084 24.126-35.454 24.126-58.102V82.225c-.001-22.649-8.043-42.021-24.123-58.102zM258.958 63.378h19.13v77.654c0 4.57.089 7.045.28 7.426.192 3.046 1.719 4.567 4.572 4.567 3.806 0 7.807-2.948 11.991-8.848V63.378h19.13v105.637h-19.137V157.59c-7.803 8.563-15.129 12.85-21.98 12.85-6.088 0-10.181-2.568-12.278-7.708-1.144-3.424-1.708-8.66-1.708-15.704v-83.65zM186.725 97.64c0-11.038 1.999-19.32 5.996-24.838 5.138-7.232 12.559-10.85 22.266-10.85 9.329 0 16.754 3.621 22.268 10.85 4 5.519 5.999 13.8 5.999 24.838v37.117c0 11.421-1.999 19.701-5.999 24.839-5.514 7.236-12.939 10.852-22.268 10.852-9.707 0-17.128-3.619-22.266-10.852-3.997-5.52-5.996-13.8-5.996-24.839V97.64zm-51.394-70.521l15.133 55.677 14.56-55.677h21.414l-25.697 84.51h.004v57.386h-21.127v-57.386c-2.096-10.468-6.473-25.505-13.134-45.108l-6.567-19.701-6.855-19.701h22.269zm235.262 344.61c-1.903 8.18-5.948 15.126-12.139 20.842-6.181 5.708-13.363 9.041-21.55 9.996-26.073 2.851-65.288 4.28-117.628 4.28-52.344 0-91.553-1.43-117.628-4.28-8.183-.955-15.367-4.288-21.555-9.996-6.186-5.716-10.229-12.662-12.133-20.842-3.805-15.991-5.708-40.737-5.708-74.233 0-32.935 1.903-57.67 5.708-74.233 1.905-8.375 5.948-15.371 12.133-20.988 6.188-5.617 13.466-8.901 21.842-9.851 25.882-2.859 64.997-4.284 117.341-4.284 52.535 0 91.746 1.429 117.628 4.284 8.187.953 15.41 4.233 21.693 9.851 6.283 5.614 10.38 12.609 12.282 20.988 3.61 15.797 5.421 40.539 5.421 74.233.001 33.495-1.903 58.237-5.707 74.233z"/>
  <path d="M85.651 244.678h22.27v120.767h21.127V244.678h22.841v-19.986H85.651zM190.149 340.607c-4.187 5.896-8.186 8.847-11.991 8.847-2.665 0-4.093-1.427-4.283-4.281-.191-.38-.287-2.854-.287-7.426v-77.088h-18.843v82.796c0 7.234.572 12.374 1.715 15.413 1.712 5.332 5.711 7.994 11.991 7.994 7.042 0 14.275-4.281 21.698-12.847v11.424h19.126V260.666h-19.126v79.941zM264.099 259.235c-6.852 0-13.326 3.806-19.411 11.423v-45.966h-19.13v140.753h19.13v-10.279c6.276 7.802 12.755 11.703 19.411 11.703 7.806 0 12.847-3.997 15.126-11.991 1.334-3.997 1.998-10.944 1.998-20.841v-41.682c0-10.089-.671-17.132-1.998-21.129-2.28-7.994-7.321-11.991-15.126-11.991zm-1.715 76.233c0 9.325-2.758 13.982-8.281 13.989-3.23 0-6.376-1.525-9.422-4.571v-63.954c3.046-3.038 6.191-4.564 9.422-4.564 5.523 0 8.281 4.753 8.281 14.271v44.829zM333.466 335.324c0 1.998-.049 3.565-.137 4.709-.093 1.143-.145 1.81-.145 1.998-1.14 4.945-3.997 7.419-8.565 7.419-6.472 0-9.709-4.853-9.709-14.558v-18.555h37.973v-21.703c0-11.037-1.995-19.219-5.995-24.551-5.134-7.231-12.56-10.852-22.269-10.852s-17.319 3.62-22.843 10.852c-3.806 5.14-5.708 13.329-5.708 24.551v36.832c0 11.231 1.998 19.418 5.995 24.558 5.523 7.231 13.23 10.852 23.131 10.852 10.088 0 17.699-3.806 22.843-11.423 2.282-3.429 3.716-7.234 4.284-11.42.377-2.666.568-6.759.568-12.278V329.185h-19.417v6.14h-.006zm-18.549-44.399c0-9.705 3.142-14.558 9.422-14.558 6.283 0 9.421 4.853 9.421 14.558v9.712h-18.843v-9.712zM214.987 153.025c6.091 0 9.135-4.851 9.135-14.558v-44.54c0-9.895-3.044-14.847-9.135-14.847-6.09 0-9.135 4.952-9.135 14.847v44.54c0 9.704 3.045 14.558 9.135 14.558z"/>
</svg>
